<svg width="13" height="15" viewBox="0 0 13 15" fill="none" xmlns="http://www.w3.org/2000/svg">
<path d="M6.5 0C6.5 0 7.48269 1.05591 9.90541 1.12792C11.9388 1.18694 12.6709 0.648068 12.6709 0.648068C12.6709 0.648068 13.8362 9.00271 11.7815 11.5C9.93463 13.7428 6.82363 14.9321 6.5 15C6.17862 14.9321 3.06762 13.7422 1.21855 11.5C-0.836162 9.00271 0.329129 0.648068 0.329129 0.648068C0.329129 0.648068 1.05954 1.18871 3.09459 1.12792C5.51731 1.05591 6.5 0 6.5 0Z" fill="#C52126"/>
<path d="M11.3825 2.82617L5.12417 6.57669L2.78874 3.75262L1.625 4.29812L4.32787 9.5653L11.7812 3.4444L11.3825 2.82617Z" fill="white"/>
</svg>
