<svg width="24" height="24" viewBox="0 0 24 24" fill="none" xmlns="http://www.w3.org/2000/svg">
<rect width="24" height="24" rx="12" fill="url(#paint0_linear_1426_2545)"/>
<path d="M12.5229 5.00205C12.7099 5.03739 12.8994 5.063 13.0838 5.10808C14.8981 5.55372 16.065 6.68166 16.6064 8.46372C16.6717 8.69307 16.7155 8.92801 16.737 9.16548C16.7442 9.23207 16.757 9.26178 16.8318 9.27254C17.0649 9.30532 17.1904 9.46104 17.1904 9.7023C17.1904 10.2463 17.1904 10.7903 17.1904 11.3343C17.1904 11.5848 17.0546 11.741 16.8062 11.7692C16.7427 11.7763 16.7391 11.8019 16.736 11.8506C16.7125 12.221 16.6848 12.5913 16.6623 12.9622C16.6107 13.7735 16.5595 14.5853 16.5086 15.3973C16.4712 15.993 16.4323 16.5888 16.3959 17.184C16.3534 17.9318 15.669 18.5906 14.9181 18.5906C13.0399 18.5947 11.1598 18.5947 9.2779 18.5906C8.52697 18.5906 7.84365 17.9288 7.79704 17.1819C7.72123 15.9775 7.64388 14.7731 7.56499 13.5686C7.52845 13.0042 7.49345 12.4395 7.45999 11.8747C7.45589 11.8055 7.45077 11.7722 7.36164 11.764C7.26327 11.7565 7.17147 11.7118 7.10487 11.639C7.03827 11.5662 7.00187 11.4708 7.00307 11.3722C6.99898 10.8016 6.99898 10.2309 7.00307 9.6603C7.0018 9.56396 7.03663 9.47063 7.10072 9.39867C7.1648 9.32672 7.2535 9.28136 7.34934 9.27152C7.42157 9.26127 7.44667 9.24334 7.45794 9.16343C7.74718 7.1828 8.83704 5.86328 10.7275 5.20489C10.996 5.11736 11.2729 5.05813 11.5538 5.02817C11.5778 5.0251 11.6086 5.03688 11.6188 5L12.5229 5.00205ZM12.1044 11.7717C10.8655 11.7717 9.62656 11.7717 8.38764 11.7717C8.3313 11.7717 8.25753 11.7379 8.26624 11.8593C8.31132 12.5211 8.34564 13.1834 8.38713 13.8452C8.45372 14.904 8.52594 15.9628 8.58895 17.0211C8.61763 17.4964 8.92088 17.7961 9.39725 17.7961H13.4321C13.9054 17.7961 14.3792 17.7992 14.8525 17.7961C15.0442 17.7947 15.2283 17.7209 15.3678 17.5894C15.5073 17.4579 15.5918 17.2785 15.6045 17.0872C15.6475 16.3321 15.6952 15.5776 15.7423 14.8231C15.8027 13.8499 15.8622 12.8725 15.9277 11.8977C15.9344 11.7953 15.9129 11.7676 15.8073 11.7681C14.5729 11.7726 13.3385 11.7738 12.1044 11.7717ZM12.0921 9.26434H15.6742C15.9482 9.26434 15.9482 9.26434 15.9001 8.99696C15.5763 7.19646 14.0637 5.8667 12.2427 5.80523C11.1291 5.76733 10.1651 6.14945 9.37164 6.93215C8.77451 7.51838 8.38787 8.28553 8.27188 9.11426C8.25344 9.23361 8.27649 9.26793 8.40403 9.26793C9.63339 9.2623 10.8628 9.26434 12.0921 9.26434ZM12.0993 10.9737C13.4878 10.9737 14.8764 10.9737 16.2653 10.9737C16.3595 10.9737 16.3969 10.9588 16.3928 10.8533C16.3836 10.6279 16.3867 10.402 16.3928 10.1766C16.3954 10.0911 16.3728 10.0634 16.2832 10.0655C16.0138 10.0716 15.7438 10.0655 15.4739 10.0655C12.9663 10.0655 10.4589 10.0655 7.95173 10.0655C7.8416 10.0655 7.79806 10.0814 7.80369 10.2063C7.81496 10.4138 7.81496 10.6217 7.80369 10.8292C7.79806 10.9455 7.82879 10.9752 7.94712 10.9747C9.33117 10.9721 10.7152 10.9737 12.0993 10.9737Z" fill="white"/>
<defs>
<linearGradient id="paint0_linear_1426_2545" x1="-2.5" y1="5.5" x2="26" y2="19.5" gradientUnits="userSpaceOnUse">
<stop stop-color="#FD7C85"/>
<stop offset="1" stop-color="#F55964"/>
</linearGradient>
</defs>
</svg>
