<svg width="11" height="13" viewBox="0 0 11 13" fill="none" xmlns="http://www.w3.org/2000/svg">
<path d="M8.8112 13H2.14955C2.14955 12.9492 2.10554 12.9573 2.07479 12.9492C1.88681 12.8974 1.71109 12.8111 1.55734 12.6953C1.10404 12.3515 0.901514 11.8939 0.901514 11.3464C0.901514 8.90671 0.902397 6.46716 0.904164 4.02778C0.904164 3.91452 0.876065 3.86222 0.757836 3.82108C0.227661 3.63571 -0.0952158 3.05371 0.025134 2.53266C0.161389 1.94355 0.624232 1.58348 1.26044 1.5779C1.66974 1.57434 2.07956 1.5779 2.48886 1.5779C2.59807 1.5779 2.74493 1.61345 2.80696 1.56012C2.88066 1.49816 2.83241 1.35393 2.83082 1.24576C2.8234 0.687124 3.18816 0.189429 3.7528 0.0457068C3.78196 0.038089 3.82596 0.0421517 3.83868 0H7.09025C7.09608 0.0198062 7.11252 0.020822 7.13001 0.0238691C7.31288 0.0527506 7.48648 0.121184 7.6376 0.223967C7.78872 0.326751 7.9134 0.461181 8.00215 0.61704C8.15802 0.870966 8.17711 1.15333 8.16544 1.43773C8.16067 1.55352 8.1946 1.58094 8.31442 1.58145C8.85573 1.58501 9.39757 1.55149 9.93782 1.59821C10.4781 1.64493 10.9096 2.0695 10.9897 2.61392C11.0623 3.10501 10.7442 3.63724 10.2591 3.81448C10.1393 3.85815 10.0969 3.90741 10.0974 4.0359C10.1023 6.4289 10.1038 8.8219 10.1016 11.2149C10.1021 11.3585 10.0938 11.5019 10.0767 11.6445C10.035 11.947 9.90247 12.2313 9.69521 12.4629C9.48795 12.6945 9.21491 12.8635 8.90928 12.9492C8.87376 12.9589 8.82816 12.9523 8.8112 13ZM5.50768 3.90945C4.23525 3.90945 2.96283 3.90945 1.69041 3.90691C1.57112 3.90691 1.54037 3.93382 1.54037 4.05012C1.54391 6.45734 1.54497 8.86456 1.54356 11.2718C1.54356 11.3058 1.54356 11.3398 1.54356 11.3733C1.56635 11.9721 1.96345 12.4023 2.6442 12.3977C4.5698 12.3845 6.49539 12.3926 8.42311 12.3931C8.71364 12.3931 8.97025 12.3144 9.17225 12.1077C9.39651 11.8787 9.46437 11.5963 9.46437 11.2911C9.46437 8.87539 9.46526 6.45971 9.46702 4.04403C9.46702 3.92671 9.43097 3.90691 9.31963 3.90741C8.04562 3.90945 6.77691 3.90589 5.50768 3.90589V3.90945ZM5.49283 3.28733H9.65577C9.71302 3.28733 9.77028 3.28733 9.82701 3.28326C9.9532 3.27595 10.073 3.22771 10.1668 3.14648C10.2605 3.06526 10.3226 2.95588 10.3429 2.83635C10.365 2.71037 10.3398 2.58095 10.2719 2.47101C10.204 2.36106 10.0977 2.27766 9.97175 2.23556C9.87428 2.20905 9.77278 2.19875 9.67167 2.20509H1.33202C1.26599 2.20424 1.19997 2.20695 1.13426 2.21322C0.992087 2.23223 0.863038 2.30301 0.773966 2.41085C0.684893 2.51868 0.642656 2.65526 0.656042 2.79217C0.696336 3.10602 0.917419 3.28225 1.27847 3.28276L5.49283 3.28733ZM5.50768 1.58298C6.14389 1.58298 6.77532 1.58298 7.40888 1.58298C7.50113 1.58298 7.53347 1.56114 7.52499 1.47125C7.51651 1.38136 7.52499 1.29401 7.52181 1.20513C7.50697 0.862841 7.26892 0.620596 6.91052 0.618056C5.96893 0.610608 5.02716 0.610608 4.08522 0.618056C3.74802 0.618056 3.51899 0.837956 3.48082 1.15993C3.46915 1.2615 3.48082 1.36308 3.4718 1.46465C3.46279 1.56622 3.49301 1.5845 3.59321 1.58399C4.23154 1.57688 4.86934 1.57942 5.50768 1.57942V1.58298Z" fill="#0D0C0C"/>
<path d="M7.04696 7.88242C7.04696 6.96829 7.04696 6.05415 7.04696 5.14002C7.04695 5.07667 7.0528 5.01345 7.06445 4.9511C7.07779 4.8844 7.11449 4.82406 7.16849 4.78007C7.2225 4.73607 7.29056 4.71106 7.36143 4.70916C7.4323 4.70727 7.50171 4.7286 7.5582 4.76964C7.61468 4.81068 7.65484 4.86897 7.67204 4.93485C7.68641 4.99206 7.6937 5.0507 7.69377 5.10955C7.69377 6.96626 7.69377 8.82296 7.69377 10.6797C7.69377 10.9179 7.58403 11.0575 7.39157 11.0692C7.31395 11.0769 7.23623 11.0555 7.17474 11.0095C7.11325 10.9634 7.07277 10.8964 7.0618 10.8224C7.05123 10.7644 7.04591 10.7056 7.0459 10.6467C7.04661 9.72576 7.04696 8.80434 7.04696 7.88242Z" fill="#0D0C0C"/>
<path d="M3.94888 7.89566C3.94888 8.8301 3.94888 9.76455 3.94888 10.699C3.94888 10.8387 3.92078 10.9595 3.78505 11.0342C3.74486 11.0564 3.69999 11.0698 3.65372 11.0733C3.60745 11.0767 3.56095 11.0703 3.51762 11.0544C3.47428 11.0385 3.4352 11.0135 3.40323 10.9813C3.37126 10.949 3.3472 10.9104 3.33281 10.8681C3.31824 10.8239 3.31074 10.7779 3.31055 10.7315C3.31055 8.84128 3.31055 6.95122 3.31055 5.06133C3.31055 4.86682 3.40651 4.74748 3.57563 4.72107C3.61885 4.71249 3.66348 4.71287 3.70652 4.72219C3.74957 4.73151 3.79003 4.74955 3.82519 4.77509C3.86035 4.80064 3.88939 4.83311 3.91036 4.8703C3.93133 4.9075 3.94374 4.94857 3.94676 4.99074C3.95153 5.03695 3.95047 5.08368 3.95047 5.1304C3.95011 6.05232 3.94958 6.97407 3.94888 7.89566Z" fill="#060606"/>
<path d="M5.18266 7.89101C5.18266 6.96469 5.18266 6.03853 5.18266 5.11255C5.18266 5.01961 5.17895 4.92668 5.24045 4.84491C5.27192 4.79897 5.31642 4.76257 5.36873 4.73999C5.42103 4.71741 5.47897 4.70959 5.53576 4.71744C5.59573 4.7212 5.65312 4.74222 5.70042 4.77774C5.74772 4.81326 5.78272 4.86163 5.80084 4.91652C5.82085 4.97704 5.82911 5.04055 5.82523 5.10392C5.82523 6.96604 5.82523 8.82647 5.82523 10.6852C5.82523 10.8228 5.80297 10.9462 5.66989 11.0265C5.62612 11.0532 5.5761 11.0691 5.52432 11.0727C5.47255 11.0763 5.42065 11.0675 5.37331 11.0471C5.32597 11.0267 5.28468 10.9953 5.25315 10.9558C5.22163 10.9163 5.20087 10.8699 5.19273 10.8208C5.18558 10.7662 5.18292 10.7112 5.18478 10.6563C5.18337 9.73468 5.18266 8.81293 5.18266 7.89101Z" fill="#060606"/>
</svg>
