<svg width="26" height="26" viewBox="0 0 26 26" fill="none" xmlns="http://www.w3.org/2000/svg">
<path d="M12.6972 2.11597C10.6045 2.11597 8.55876 2.73653 6.81873 3.89919C5.07869 5.06184 3.7225 6.71437 2.92165 8.64779C2.1208 10.5812 1.91126 12.7087 2.31953 14.7612C2.7278 16.8137 3.73554 18.6991 5.21532 20.1789C6.6951 21.6586 8.58045 22.6664 10.633 23.0747C12.6855 23.4829 14.813 23.2734 16.7464 22.4725C18.6798 21.6717 20.3323 20.3155 21.495 18.5755C22.6576 16.8354 23.2782 14.7897 23.2782 12.697C23.2772 9.89104 22.162 7.20033 20.1779 5.21624C18.1938 3.23215 15.5031 2.11703 12.6972 2.11597ZM12.6972 21.162C11.023 21.162 9.38638 20.6655 7.99431 19.7354C6.60225 18.8052 5.51727 17.4832 4.87658 15.9364C4.23588 14.3896 4.06824 12.6876 4.39487 11.0455C4.72149 9.40348 5.52771 7.89516 6.71156 6.71131C7.89541 5.52746 9.40373 4.72124 11.0458 4.39462C12.6878 4.068 14.3899 4.23563 15.9366 4.87633C17.4834 5.51702 18.8055 6.602 19.7356 7.99406C20.6658 9.38613 21.1622 11.0227 21.1622 12.697C21.1593 14.9411 20.2665 17.0925 18.6797 18.6794C17.0928 20.2663 14.9414 21.1591 12.6972 21.162ZM6.87822 18.516L14.8242 14.823L18.5162 6.87797L10.5702 10.571L6.87822 18.516ZM12.6982 11.532C12.9284 11.532 13.1535 11.6002 13.3449 11.7281C13.5363 11.856 13.6855 12.0378 13.7736 12.2505C13.8617 12.4632 13.8848 12.6973 13.8398 12.9231C13.7949 13.1488 13.6841 13.3563 13.5213 13.519C13.3585 13.6818 13.1511 13.7927 12.9253 13.8376C12.6995 13.8825 12.4655 13.8595 12.2528 13.7714C12.0401 13.6833 11.8583 13.5341 11.7304 13.3427C11.6025 13.1512 11.5342 12.9262 11.5342 12.696C11.534 12.5432 11.5639 12.3918 11.6222 12.2506C11.6806 12.1094 11.7662 11.9811 11.8743 11.873C11.9823 11.765 12.1106 11.6793 12.2518 11.621C12.3931 11.5626 12.5444 11.5327 12.6972 11.533L12.6982 11.532Z" fill="#D1D1D1"/>
</svg>
