<svg width="25" height="26" viewBox="0 0 25 26" fill="none" xmlns="http://www.w3.org/2000/svg">
<path d="M16.1615 10.2993H6.33566L6.33276 15.8394H16.1615V10.2993Z" fill="#D32027"/>
<path d="M16.1615 15.8394H6.33276V18.7475H16.1615V15.8394Z" fill="#D32027"/>
<path d="M16.1615 11.248H15.9387V18.7477H16.1615V11.248Z" fill="#D32027"/>
<path d="M20.6504 11.4725C20.6526 11.4153 20.6329 11.3595 20.5956 11.3174C20.5582 11.2754 20.5064 11.2504 20.4514 11.248H16.1614V12.0744H20.6458L20.6504 11.4725Z" fill="#D32027"/>
<path d="M23.2922 16.5117V18.1529C23.2922 18.2311 23.2774 18.3084 23.2486 18.3806C23.2199 18.4528 23.1777 18.5184 23.1246 18.5736C23.0714 18.6288 23.0083 18.6726 22.9389 18.7025C22.8694 18.7323 22.795 18.7476 22.7199 18.7476H16.1614V12.0742H20.6452V12.1043L21.2471 14.986L22.9201 15.8773C23.0321 15.937 23.126 16.0276 23.1917 16.1392C23.2573 16.2508 23.2921 16.379 23.2922 16.5099V16.5117Z" fill="#D32027"/>
<path d="M20.658 14.8869L20.2396 12.4951H18.7078V14.8869H20.658Z" fill="#D32027"/>
<path d="M14.4398 13.5567L12.1128 12.1592V12.9392H7.98438V14.1742H12.1128V14.9542L14.4398 13.5567Z" fill="#D32027"/>
<path d="M18.1088 12.4951H16.5538V14.8869H18.1088V12.4951Z" fill="#D32027"/>
<path d="M11.8426 18.7477H7.82349C7.83885 18.204 8.05731 17.688 8.4325 17.3091C8.80768 16.9302 9.31007 16.7183 9.83303 16.7183C10.356 16.7183 10.8584 16.9302 11.2336 17.3091C11.6088 17.688 11.8272 18.204 11.8426 18.7477Z" fill="white"/>
<path d="M21.3328 18.7477H17.3137C17.329 18.204 17.5475 17.688 17.9227 17.3091C18.2979 16.9302 18.8002 16.7183 19.3232 16.7183C19.8462 16.7183 20.3486 16.9302 20.7237 17.3091C21.0989 17.688 21.3174 18.204 21.3328 18.7477Z" fill="white"/>
<path d="M10.0921 20.4708C10.9726 20.3222 11.5705 19.4593 11.4276 18.5436C11.2847 17.6279 10.455 17.006 9.57452 17.1547C8.69401 17.3033 8.09609 18.1662 8.23901 19.0819C8.38194 19.9976 9.21159 20.6195 10.0921 20.4708Z" fill="#D32027"/>
<path d="M9.98853 19.807C10.5166 19.7179 10.8753 19.2004 10.7895 18.6511C10.7038 18.1019 10.2062 17.7289 9.6781 17.8181C9.14998 17.9072 8.79136 18.4247 8.87708 18.974C8.96281 19.5232 9.46042 19.8962 9.98853 19.807Z" fill="#D32027"/>
<path d="M9.93033 19.4339C10.2603 19.3782 10.4844 19.0548 10.4308 18.7117C10.3773 18.3685 10.0663 18.1354 9.73636 18.1911C9.40637 18.2468 9.18228 18.5702 9.23584 18.9134C9.28941 19.2566 9.60034 19.4896 9.93033 19.4339Z" fill="#D32027"/>
<path d="M20.8155 19.4559C21.1569 18.5988 20.7655 17.6162 19.9414 17.2612C19.1173 16.9062 18.1725 17.3132 17.8311 18.1703C17.4897 19.0274 17.8811 20.01 18.7052 20.365C19.5293 20.72 20.4742 20.313 20.8155 19.4559Z" fill="#D32027"/>
<path d="M20.2184 19.1987C20.4231 18.6846 20.1884 18.0953 19.6941 17.8823C19.1998 17.6694 18.6331 17.9135 18.4283 18.4276C18.2236 18.9417 18.4583 19.531 18.9526 19.744C19.4469 19.9569 20.0136 19.7128 20.2184 19.1987Z" fill="#D32027"/>
<path d="M19.8826 19.054C20.0105 18.7328 19.8639 18.3645 19.555 18.2315C19.2461 18.0984 18.8921 18.251 18.7641 18.5722C18.6362 18.8934 18.7829 19.2617 19.0917 19.3947C19.4006 19.5278 19.7547 19.3752 19.8826 19.054Z" fill="#D32027"/>
<path d="M23.2922 16.512V17.8018H23.272C22.3223 17.8018 22.4357 17.3919 22.4357 16.8857C22.4325 16.6842 22.494 16.4872 22.6104 16.326C22.7269 16.1648 22.8916 16.0486 23.0787 15.9956C23.1462 16.0621 23.1999 16.1421 23.2366 16.2309C23.2733 16.3197 23.2922 16.4153 23.2922 16.512Z" fill="#D32027"/>
<path d="M20.0376 15.3213H19.0382V15.6656H20.0376V15.3213Z" fill="#D32027"/>
<path d="M5.53936 17.0464H2.1117C1.88861 17.0464 1.70776 17.2345 1.70776 17.4665V17.5297C1.70776 17.7617 1.88861 17.9498 2.1117 17.9498H5.53936C5.76245 17.9498 5.9433 17.7617 5.9433 17.5297V17.4665C5.9433 17.2345 5.76245 17.0464 5.53936 17.0464Z" fill="#D32027"/>
<path d="M7.6574 15.3882H4.22974C4.00665 15.3882 3.82581 15.5763 3.82581 15.8083V15.8715C3.82581 16.1035 4.00665 16.2916 4.22974 16.2916H7.6574C7.88049 16.2916 8.06134 16.1035 8.06134 15.8715V15.8083C8.06134 15.5763 7.88049 15.3882 7.6574 15.3882Z" fill="#D32027"/>
<path d="M9.91761 12.7273V13.1534H8.15341V12.7273H9.91761ZM8.68182 16V12.2756C8.68182 12.0881 8.72585 11.9318 8.81392 11.8068C8.90199 11.6818 9.01634 11.5881 9.15696 11.5256C9.29759 11.4631 9.44602 11.4318 9.60227 11.4318C9.72585 11.4318 9.8267 11.4418 9.90483 11.4616C9.98295 11.4815 10.0412 11.5 10.0795 11.517L9.93466 11.9517C9.90909 11.9432 9.87358 11.9325 9.82812 11.9197C9.78409 11.907 9.72585 11.9006 9.65341 11.9006C9.48722 11.9006 9.36719 11.9425 9.29332 12.0263C9.22088 12.1101 9.18466 12.233 9.18466 12.3949V16H8.68182ZM10.6223 16V12.7273H11.1081V13.2216H11.1422C11.2019 13.0597 11.3098 12.9283 11.4661 12.8274C11.6223 12.7266 11.7985 12.6761 11.9945 12.6761C12.0314 12.6761 12.0776 12.6768 12.133 12.6783C12.1884 12.6797 12.2303 12.6818 12.2587 12.6847V13.196C12.2417 13.1918 12.2026 13.1854 12.1415 13.1768C12.0819 13.1669 12.0186 13.1619 11.9519 13.1619C11.7928 13.1619 11.6507 13.1953 11.5257 13.2621C11.4022 13.3274 11.3042 13.4183 11.2317 13.5348C11.1607 13.6499 11.1252 13.7812 11.1252 13.929V16H10.6223ZM14.1273 16.0682C13.812 16.0682 13.54 15.9986 13.3113 15.8594C13.084 15.7188 12.9086 15.5227 12.785 15.2713C12.6628 15.0185 12.6017 14.7244 12.6017 14.3892C12.6017 14.054 12.6628 13.7585 12.785 13.5028C12.9086 13.2457 13.0804 13.0455 13.3006 12.902C13.5222 12.7571 13.7807 12.6847 14.0762 12.6847C14.2466 12.6847 14.415 12.7131 14.5811 12.7699C14.7473 12.8267 14.8986 12.919 15.035 13.0469C15.1713 13.1733 15.28 13.3409 15.361 13.5497C15.4419 13.7585 15.4824 14.0156 15.4824 14.321V14.5341H12.9597V14.0994H14.9711C14.9711 13.9148 14.9341 13.75 14.8603 13.6051C14.7878 13.4602 14.6841 13.3459 14.5492 13.2621C14.4157 13.1783 14.258 13.1364 14.0762 13.1364C13.8759 13.1364 13.7026 13.1861 13.5563 13.2855C13.4114 13.3835 13.2999 13.5114 13.2218 13.669C13.1436 13.8267 13.1046 13.9957 13.1046 14.1761V14.4659C13.1046 14.7131 13.1472 14.9226 13.2324 15.0945C13.3191 15.2649 13.4391 15.3949 13.5925 15.4844C13.7459 15.5724 13.9242 15.6165 14.1273 15.6165C14.2594 15.6165 14.3787 15.598 14.4853 15.5611C14.5932 15.5227 14.6863 15.4659 14.7644 15.3906C14.8425 15.3139 14.9029 15.2187 14.9455 15.1051L15.4313 15.2415C15.3801 15.4062 15.2942 15.5511 15.1735 15.6761C15.0527 15.7997 14.9036 15.8963 14.726 15.9659C14.5485 16.0341 14.3489 16.0682 14.1273 16.0682ZM17.6195 16.0682C17.3042 16.0682 17.0321 15.9986 16.8034 15.8594C16.5762 15.7188 16.4007 15.5227 16.2772 15.2713C16.155 15.0185 16.0939 14.7244 16.0939 14.3892C16.0939 14.054 16.155 13.7585 16.2772 13.5028C16.4007 13.2457 16.5726 13.0455 16.7928 12.902C17.0144 12.7571 17.2729 12.6847 17.5684 12.6847C17.7388 12.6847 17.9071 12.7131 18.0733 12.7699C18.2395 12.8267 18.3908 12.919 18.5272 13.0469C18.6635 13.1733 18.7722 13.3409 18.8532 13.5497C18.9341 13.7585 18.9746 14.0156 18.9746 14.321V14.5341H16.4519V14.0994H18.4632C18.4632 13.9148 18.4263 13.75 18.3525 13.6051C18.28 13.4602 18.1763 13.3459 18.0414 13.2621C17.9078 13.1783 17.7502 13.1364 17.5684 13.1364C17.3681 13.1364 17.1948 13.1861 17.0485 13.2855C16.9036 13.3835 16.7921 13.5114 16.714 13.669C16.6358 13.8267 16.5968 13.9957 16.5968 14.1761V14.4659C16.5968 14.7131 16.6394 14.9226 16.7246 15.0945C16.8113 15.2649 16.9313 15.3949 17.0847 15.4844C17.2381 15.5724 17.4164 15.6165 17.6195 15.6165C17.7516 15.6165 17.8709 15.598 17.9775 15.5611C18.0854 15.5227 18.1784 15.4659 18.2566 15.3906C18.3347 15.3139 18.3951 15.2187 18.4377 15.1051L18.9235 15.2415C18.8723 15.4062 18.7864 15.5511 18.6657 15.6761C18.5449 15.7997 18.3958 15.8963 18.2182 15.9659C18.0407 16.0341 17.8411 16.0682 17.6195 16.0682Z" fill="white"/>
</svg>
