<svg width="25" height="25" viewBox="0 0 25 25" fill="none" xmlns="http://www.w3.org/2000/svg">
<path d="M12.5 20.8814C17.1289 20.8814 20.8814 17.1289 20.8814 12.5C20.8814 7.87112 17.1289 4.11865 12.5 4.11865C7.87109 4.11865 4.11862 7.87112 4.11862 12.5C4.11862 17.1289 7.87109 20.8814 12.5 20.8814Z" fill="#D32027"/>
<path d="M12.5 19.3985C16.3101 19.3985 19.3987 16.3099 19.3987 12.4998C19.3987 8.68974 16.3101 5.60107 12.5 5.60107C8.68995 5.60107 5.60129 8.68974 5.60129 12.4998C5.60129 16.3099 8.68995 19.3985 12.5 19.3985Z" stroke="white" stroke-width="0.3" stroke-miterlimit="10"/>
<path d="M8.31518 11.7786L4.94998 14.6782L7.22142 17.3144L10.5866 14.4147L8.31518 11.7786Z" fill="#D32027"/>
<path d="M4.77603 13.5625L5.76098 13.9803L6.37209 13.1094" stroke="white" stroke-width="0.5" stroke-miterlimit="10"/>
<path d="M10.9858 10.6364V15H10.4574V11.1903H10.4318L9.36648 11.8977V11.3608L10.4574 10.6364H10.9858ZM13.6044 15.0597C13.3544 15.0597 13.1293 15.0099 12.929 14.9105C12.7287 14.8111 12.5682 14.6747 12.4474 14.5014C12.3267 14.3281 12.2607 14.1307 12.2493 13.9091H12.7607C12.7805 14.1065 12.87 14.2699 13.0291 14.3991C13.1896 14.527 13.3814 14.5909 13.6044 14.5909C13.7834 14.5909 13.9425 14.549 14.0817 14.4652C14.2223 14.3814 14.3324 14.2663 14.4119 14.12C14.4929 13.9723 14.5334 13.8054 14.5334 13.6193C14.5334 13.429 14.4915 13.2592 14.4077 13.1101C14.3253 12.9595 14.2116 12.8409 14.0668 12.7543C13.9219 12.6676 13.7564 12.6236 13.5703 12.6222C13.4368 12.6207 13.2997 12.6413 13.1591 12.6839C13.0185 12.7251 12.9027 12.7784 12.8118 12.8438L12.3175 12.7841L12.5817 10.6364H14.8487V11.1051H13.0249L12.8714 12.392H12.897C12.9865 12.321 13.0987 12.2621 13.2337 12.2152C13.3686 12.1683 13.5092 12.1449 13.6555 12.1449C13.9226 12.1449 14.1605 12.2088 14.3693 12.3366C14.5795 12.4631 14.7443 12.6364 14.8636 12.8565C14.9844 13.0767 15.0447 13.3281 15.0447 13.6108C15.0447 13.8892 14.9822 14.1378 14.8572 14.3565C14.7337 14.5739 14.5632 14.7457 14.3459 14.8722C14.1286 14.9972 13.8814 15.0597 13.6044 15.0597Z" fill="white"/>
</svg>
