<svg width="22" height="22" viewBox="0 0 22 22" fill="none" xmlns="http://www.w3.org/2000/svg">
<path d="M15.2938 22C14.9767 21.932 14.6563 21.8721 14.3426 21.7945C13.1862 21.5119 12.1568 20.9222 11.3943 20.1056C11.3557 20.0619 11.3053 20.0274 11.2477 20.0052C11.1902 19.983 11.1272 19.9738 11.0646 19.9785C7.94599 19.9785 4.82736 19.9785 1.70874 19.9785C0.909374 19.9785 0.270215 19.5543 0.0663893 18.8957C0.0204015 18.7436 -0.00189049 18.5867 0.000125433 18.4293C0.000125433 12.8036 0.000125433 7.17792 0.000125433 1.55223C0.000125433 0.522634 0.936216 -0.00731494 1.76159 7.62627e-05C4.86511 0.0222499 7.96864 0.00894535 11.0722 0.00894535C11.1451 0.0037452 11.2185 0.00523179 11.2911 0.0133805C11.3753 0.0264809 11.4516 0.0651066 11.5069 0.122574C11.5622 0.180041 11.593 0.252733 11.5939 0.328072C11.5948 0.40341 11.5658 0.476655 11.5118 0.53513C11.4579 0.593605 11.3825 0.633633 11.2986 0.648285C11.218 0.658177 11.1364 0.659913 11.0554 0.653459H1.84127C1.0981 0.653459 0.760908 0.949107 0.760908 1.61062C0.760908 7.20083 0.758112 12.7908 0.75252 18.3805C0.75252 19.0228 1.22392 19.3369 1.82701 19.3347C4.73426 19.3251 7.64235 19.3303 10.5504 19.3303H10.7668C10.5097 18.904 10.3088 18.4531 10.1679 17.9866C9.35012 15.1779 11.3867 12.2148 14.5892 11.5629C14.8872 11.495 15.192 11.4527 15.4993 11.4365C15.6092 11.4365 15.6419 11.3944 15.6327 11.3064C15.6302 11.2636 15.6302 11.2206 15.6327 11.1778V1.64462C15.6327 0.955759 15.2896 0.654198 14.5062 0.654198C13.919 0.654198 13.3361 0.654198 12.7514 0.654198C12.4687 0.654198 12.3161 0.533721 12.322 0.322333C12.3278 0.110944 12.4755 0.0104239 12.7497 0.0104239C13.4157 0.0104239 14.0817 0.0067283 14.7477 0.0104239C15.1741 0.0145998 15.5818 0.1651 15.8843 0.42995C16.1867 0.6948 16.36 1.05313 16.3674 1.4288C16.3767 2.37339 16.3674 3.31873 16.3674 4.26332C16.3674 6.5679 16.3658 8.87248 16.3624 11.1771C16.3624 11.3692 16.3976 11.4284 16.6384 11.4491C19.1262 11.6604 21.2517 13.3087 21.8313 15.4595C22.0213 16.1519 22.0511 16.8708 21.9191 17.5735C21.7871 18.2762 21.496 18.9483 21.063 19.5498C20.63 20.1513 20.0641 20.6698 19.3989 21.0745C18.7337 21.4792 17.9829 21.7618 17.1911 21.9054C16.9999 21.9401 16.7961 21.9217 16.614 22H15.2938ZM21.2492 16.7205C21.2522 16.1125 21.1192 15.5101 20.8578 14.9474C20.5964 14.3848 20.2117 13.8731 19.7258 13.4416C19.2399 13.01 18.6622 12.6671 18.0258 12.4324C17.3894 12.1977 16.7067 12.0757 16.0168 12.0736C13.1649 12.0684 10.7492 14.2075 10.7325 16.7434C10.7199 19.2239 13.1473 21.3533 15.9892 21.3555C17.3836 21.3529 18.7201 20.8639 19.7063 19.9953C20.6925 19.1266 21.2482 17.9492 21.2517 16.7205H21.2492Z" fill="#100F0F"/>
<path d="M8.20253 6.00694H3.62105C3.5724 6.00694 3.52376 6.00694 3.47427 6.00694C3.1614 6.0025 2.97602 5.87759 2.97854 5.67212C2.98106 5.46664 3.16727 5.34173 3.48182 5.34099H12.8847C12.9902 5.33265 13.0964 5.34897 13.1925 5.38829C13.2543 5.4154 13.3058 5.45781 13.3407 5.51033C13.3755 5.56284 13.3923 5.62318 13.3888 5.68394C13.3901 5.7492 13.3669 5.81302 13.3227 5.86543C13.2786 5.91784 13.216 5.9559 13.1447 5.97368C13.0427 5.99727 12.9372 6.00723 12.8318 6.00324C11.2884 6.00718 9.74534 6.00842 8.20253 6.00694Z" fill="#1E1C1C"/>
<path d="M8.18244 3.00161H12.7622C12.8268 3.00161 12.8922 3.00161 12.9568 3.00161C13.2227 3.01048 13.3838 3.12948 13.3888 3.32017C13.3938 3.51087 13.2211 3.65573 12.951 3.65573C11.5217 3.65573 10.0924 3.65573 8.66306 3.65573H3.44998C3.13711 3.65573 2.94167 3.4983 2.98697 3.28174C2.99497 3.20575 3.03514 3.1352 3.09948 3.08412C3.16382 3.03303 3.24763 3.00516 3.33423 3.00605C3.52128 2.99939 3.70749 3.00087 3.89454 3.00087L8.18244 3.00161Z" fill="#100F0F"/>
<path d="M8.19163 7.69804H12.8696C12.9422 7.69195 13.0155 7.69369 13.0876 7.70321C13.2839 7.74608 13.4005 7.86138 13.3863 8.04247C13.3849 8.11825 13.3512 8.19081 13.2918 8.24562C13.2324 8.30044 13.1517 8.33347 13.0658 8.33812C13.001 8.34182 12.936 8.34182 12.8712 8.33812H3.51956C3.45414 8.33812 3.38871 8.33812 3.32412 8.33812C3.11023 8.3226 3.0079 8.20212 2.98861 8.0299C2.98462 7.94679 3.01735 7.86554 3.07991 7.80324C3.14248 7.74094 3.23001 7.70244 3.32412 7.69582C3.38895 7.69286 3.4539 7.69286 3.51872 7.69582L8.19163 7.69804Z" fill="#100F0F"/>
<path d="M8.18308 10.701H3.50598C3.4089 10.7108 3.31055 10.7012 3.21827 10.6729C3.14115 10.6485 3.07605 10.6012 3.03412 10.5392C2.99219 10.4772 2.97604 10.4042 2.98844 10.3329C2.99306 10.2603 3.02786 10.1918 3.08619 10.1404C3.14452 10.089 3.2223 10.0583 3.30467 10.0542C3.38554 10.0478 3.46673 10.0451 3.54792 10.0461H12.8291C13.2125 10.0461 13.397 10.1562 13.3894 10.3794C13.3819 10.6027 13.2066 10.7017 12.8358 10.7017L8.18308 10.701Z" fill="#100F0F"/>
<path d="M5.49796 12.3848C6.16899 12.3848 6.84589 12.3848 7.52028 12.3848C7.79037 12.3848 7.97071 12.5222 7.97239 12.7144C7.97407 12.9066 7.79624 13.0396 7.52448 13.0492C7.46744 13.0492 7.41124 13.0492 7.35672 13.0492H3.5528C3.49576 13.0492 3.43873 13.0492 3.38504 13.0492C3.14431 13.0307 2.98326 12.9014 2.98242 12.7196C2.98159 12.5378 3.15522 12.3877 3.40182 12.3862C4.10053 12.3818 4.79924 12.3848 5.49796 12.3848Z" fill="#1E1C1C"/>
<path d="M19.7331 15.7531C19.7231 16.4523 19.4287 16.9564 19.0269 17.4153C18.2602 18.2897 17.257 18.918 16.1901 19.4723C16.1313 19.5053 16.0631 19.5228 15.9934 19.5228C15.9237 19.5228 15.8555 19.5053 15.7967 19.4723C14.6367 18.8566 13.532 18.1781 12.7636 17.167C12.3677 16.6496 12.1337 16.082 12.309 15.4478C12.5137 14.7087 13.1059 14.3288 13.9119 14.1839C14.5939 14.0612 15.2314 14.2017 15.8202 14.5136C15.8692 14.5463 15.929 14.564 15.9905 14.564C16.0519 14.564 16.1117 14.5463 16.1607 14.5136C16.9542 14.1041 17.7855 13.9962 18.6419 14.3458C19.3532 14.6481 19.7063 15.1595 19.7331 15.7531ZM14.3112 14.8114C14.2818 14.8114 14.1845 14.8159 14.0881 14.8262C13.3063 14.9105 12.8668 15.467 13.0438 16.1426C13.1268 16.4335 13.2764 16.7064 13.4833 16.9445C14.1267 17.7221 14.9931 18.2676 15.9032 18.7746C15.9321 18.7922 15.9668 18.8009 16.0018 18.7993C16.0369 18.7977 16.0704 18.7859 16.097 18.7657C16.7991 18.3762 17.4734 17.9564 18.0463 17.4242C18.428 17.0702 18.7635 16.6851 18.9229 16.2069C19.1343 15.5705 18.8088 15.0391 18.0841 14.8676C17.4365 14.7139 16.8536 14.8617 16.3226 15.2076C16.0299 15.3998 15.9452 15.3998 15.6566 15.2076C15.2728 14.9438 14.7979 14.8039 14.3112 14.8114Z" fill="#100F0F"/>
<path d="M9.99609 0.277344H14.1078" stroke="#0E0D0D" stroke-width="0.5" stroke-miterlimit="10"/>
</svg>
