<svg width="20" height="20" viewBox="0 0 20 20" fill="none" xmlns="http://www.w3.org/2000/svg">
<path d="M0.43581 19.9961C0.0971383 19.8235 0 19.5479 0 19.1751C0.0105014 14.5023 0.0122518 9.82927 0.00525084 5.15602C0.00433856 4.99985 0.0294023 4.84461 0.0794171 4.69666C0.542356 3.31288 1.00333 1.92889 1.46233 0.544673C1.60213 0.12534 1.77999 0 2.22368 0H15.2881C15.72 0 15.8985 0.12534 16.035 0.534829C16.5102 1.95492 16.9846 3.375 17.458 4.79509C17.4883 4.88071 17.5042 4.97072 17.5053 5.06152C17.5053 6.58442 17.5053 8.10732 17.5053 9.63021C17.5053 9.86252 17.3917 9.99442 17.1961 9.9977C17.0005 10.001 16.8784 9.87171 16.8778 9.64137C16.8778 9.01007 16.8778 8.37878 16.8778 7.74748C16.8778 6.99216 16.8745 6.23815 16.8811 5.48217C16.8811 5.35092 16.8548 5.30761 16.713 5.30826C14.9488 5.31351 13.1848 5.31351 11.421 5.30826C11.2805 5.30826 11.2523 5.34698 11.2536 5.4802C11.2602 6.22896 11.2575 6.97706 11.2569 7.72583C11.2569 8.02244 11.1558 8.12285 10.8598 8.1235H6.63954C6.35337 8.1235 6.25099 8.02244 6.25099 7.73895C6.25099 6.98363 6.25099 6.22962 6.25099 5.47364C6.25099 5.35355 6.22998 5.30761 6.09478 5.30826C4.32484 5.31264 2.55426 5.31264 0.783014 5.30826C0.651746 5.30826 0.624836 5.34436 0.624836 5.4697C0.628336 10.0515 0.628336 14.6333 0.624836 19.2151C0.624836 19.3464 0.660278 19.374 0.785639 19.3733C4.65848 19.3702 8.53089 19.3702 12.4029 19.3733C12.4376 19.3733 12.479 19.3917 12.5197 19.3457C12.0147 19.0505 11.5623 18.6735 11.1808 18.2301C9.23077 15.9648 9.73681 12.4553 12.2572 10.8147C12.4652 10.6789 12.6575 10.6999 12.7665 10.8705C12.8754 11.0411 12.8177 11.2019 12.6063 11.3436C11.6218 12.0097 10.9911 12.9186 10.7272 14.0834C10.2074 16.373 11.7229 18.7623 14.0175 19.2591C16.4492 19.7841 18.7431 18.3069 19.2793 15.8697C19.7768 13.609 18.2528 11.2426 15.9832 10.7425C15.1865 10.5633 14.3559 10.6048 13.581 10.8626C13.3185 10.9486 13.1124 10.8127 13.1216 10.5667C13.1288 10.4 13.2285 10.3166 13.3808 10.2681C15.0591 9.73127 16.6199 9.97342 18.0257 11.0293C19.1415 11.8686 19.7847 13.0059 19.9606 14.3977C19.9646 14.4253 19.9692 14.4483 20 14.4542V15.5868C19.9212 15.6597 19.9442 15.7653 19.9285 15.8533C19.7564 16.8364 19.295 17.7459 18.6032 18.4654C17.9114 19.1849 17.0206 19.6817 16.0449 19.8924C15.8664 19.9324 15.678 19.9199 15.5087 20L0.43581 19.9961ZM0.755448 4.68616H5.95498C6.27921 4.68616 6.2733 4.68616 6.29233 4.35148C6.32712 3.73462 6.36978 3.11842 6.41113 2.50156C6.40979 2.42903 6.43406 2.35835 6.47968 2.30194C6.52529 2.24554 6.58933 2.20701 6.66054 2.19313C6.72757 2.17563 6.79856 2.1815 6.86181 2.20978C6.92505 2.23805 6.97676 2.28704 7.0084 2.34866C7.04398 2.42596 7.05476 2.51238 7.03925 2.59606C6.99856 3.23851 6.95918 3.88096 6.91455 4.52341C6.90601 4.64088 6.92111 4.69403 7.06156 4.69009C7.47178 4.67959 7.88199 4.68156 8.29155 4.69009C8.4156 4.69009 8.44119 4.65466 8.44054 4.53653C8.4366 3.28138 8.4366 2.02557 8.44054 0.769104C8.44054 0.666076 8.42347 0.62014 8.30533 0.622765C7.97388 0.63064 7.64111 0.631296 7.30966 0.622765C7.19349 0.622765 7.16461 0.666732 7.16264 0.767792C7.16002 0.904288 7.15323 1.04078 7.1423 1.17728C7.12064 1.44896 6.99199 1.58218 6.77999 1.56249C6.58309 1.54346 6.47873 1.38203 6.49974 1.12741C6.50827 1.02372 6.51155 0.919382 6.5273 0.81701C6.55093 0.670013 6.50893 0.62014 6.34812 0.62014C4.99431 0.627577 3.64072 0.627577 2.28735 0.62014C2.14164 0.62014 2.09044 0.669357 2.04581 0.799947C1.73274 1.76067 1.41179 2.71943 1.09281 3.67884C0.98451 4.00958 0.870964 4.33967 0.755448 4.68616ZM16.7163 4.68616C16.7298 4.63262 16.722 4.57595 16.6947 4.528C16.2779 3.28116 15.8598 2.03432 15.4476 0.787479C15.4043 0.656233 15.3459 0.624077 15.2159 0.624733C13.863 0.629108 12.5101 0.629108 11.1571 0.624733C11.0049 0.624733 10.9602 0.659514 10.9734 0.814385C11.0609 2.05291 11.1425 3.29166 11.2182 4.53063C11.2267 4.67238 11.2838 4.69272 11.4105 4.69206C12.8413 4.68813 14.2723 4.68813 15.7036 4.69206L16.7163 4.68616ZM8.75558 5.31155C8.18325 5.31155 7.61158 5.31155 7.03925 5.31155C6.91848 5.31155 6.87385 5.3332 6.87582 5.46707C6.8837 6.09793 6.8837 6.72835 6.87582 7.35833C6.87582 7.48958 6.91848 7.50402 7.03072 7.50336C8.17494 7.49943 9.31894 7.49943 10.4627 7.50336C10.5822 7.50336 10.6307 7.48433 10.6288 7.34784C10.6209 6.72398 10.6209 6.10012 10.6288 5.47626C10.6288 5.33058 10.5789 5.30958 10.4516 5.31155C9.88645 5.31548 9.32003 5.31155 8.75558 5.31155ZM9.06668 2.64987C9.06668 3.26804 9.07062 3.88621 9.06668 4.50438C9.06668 4.63891 9.08112 4.69731 9.23996 4.69141C9.63376 4.67697 10.0341 4.67959 10.4312 4.69141C10.5723 4.69141 10.6038 4.65269 10.594 4.5175C10.5474 3.88818 10.5106 3.25819 10.4693 2.62887C10.4286 2.01923 10.382 1.40959 10.3479 0.799291C10.3393 0.655577 10.2908 0.616859 10.151 0.622765C9.84576 0.634577 9.53859 0.634577 9.23208 0.622765C9.089 0.616859 9.06472 0.66542 9.06603 0.796667C9.07062 1.41353 9.06668 2.0317 9.06668 2.64987Z" fill="#080808"/>
<path d="M17.9581 13.6759C17.9458 13.7597 17.9119 13.8389 17.8596 13.9056C16.9184 15.2224 15.9777 16.5395 15.0374 17.8567C14.8779 18.0799 14.7092 18.1041 14.4906 17.9394C13.6475 17.3081 12.8047 16.676 11.9624 16.0429C11.7373 15.8736 11.7156 15.7227 11.885 15.4963C12.235 15.0264 12.5866 14.5585 12.9397 14.0926C13.0841 13.9023 13.2508 13.8787 13.4471 14.0204C13.6728 14.1845 13.9013 14.3485 14.1159 14.5257C14.2347 14.6248 14.2859 14.5972 14.3666 14.4824C14.8333 13.817 15.3084 13.1575 15.7804 12.496C15.9805 12.2158 16.1164 12.1902 16.3934 12.387C16.8489 12.7112 17.3031 13.0374 17.7592 13.3609C17.8701 13.4396 17.9555 13.5315 17.9581 13.6759ZM12.5407 15.684C13.2206 16.1938 13.8973 16.6998 14.5707 17.2097C14.6455 17.2661 14.6823 17.2622 14.7374 17.1841C15.5325 16.0659 16.3299 14.9503 17.1298 13.8373C17.1875 13.7559 17.1744 13.7231 17.1003 13.6719C16.8377 13.4908 16.5752 13.3104 16.3238 13.1155C16.2109 13.0275 16.163 13.0498 16.0869 13.1575C15.6038 13.8432 15.1148 14.5244 14.6259 15.2056C14.4644 15.43 14.3016 15.4543 14.0798 15.2909C13.8579 15.1275 13.6203 14.949 13.3952 14.7738C13.3224 14.7167 13.2738 14.697 13.2082 14.7889C12.9948 15.0874 12.7664 15.3814 12.5407 15.684Z" fill="#080808"/>
<path d="M3.43365 15.9338H1.63725C1.38587 15.9338 1.25394 15.8268 1.25197 15.6247C1.25001 15.4226 1.38324 15.3091 1.63003 15.3091H5.2399C5.49062 15.3091 5.62517 15.418 5.62714 15.6175C5.62911 15.817 5.49587 15.9338 5.24712 15.9338H3.43365Z" fill="#080808"/>
<path d="M3.43298 17.1841H1.63986C1.38782 17.1841 1.2559 17.0771 1.25393 16.8756C1.25196 16.6742 1.3852 16.5593 1.63132 16.5593H5.24119C5.49257 16.5593 5.62647 16.6669 5.62909 16.8671C5.63172 17.0672 5.49782 17.1834 5.24973 17.1834C4.64371 17.1847 4.03812 17.1849 3.43298 17.1841Z" fill="#080808"/>
<path d="M3.42643 18.4336H1.63003C1.38062 18.4336 1.25001 18.3227 1.25198 18.1179C1.25394 17.9132 1.38324 17.8088 1.63659 17.8088H5.24646C5.49259 17.8088 5.62845 17.9237 5.62648 18.1245C5.62451 18.3253 5.48996 18.4336 5.2399 18.4336H3.42643Z" fill="#080808"/>
<path d="M15.0081 19.6482C17.5647 19.6482 19.6372 17.576 19.6372 15.0198C19.6372 12.4636 17.5647 10.3914 15.0081 10.3914C12.4515 10.3914 10.3789 12.4636 10.3789 15.0198C10.3789 17.576 12.4515 19.6482 15.0081 19.6482Z" stroke="#0E0D0D" stroke-width="0.5" stroke-miterlimit="10"/>
<path d="M17.2581 5.47363L17.1367 10.9086" stroke="#0E0D0D" stroke-width="0.5" stroke-miterlimit="10"/>
<path d="M6.83707 0.347168L6.53516 5.00445" stroke="#0E0D0D" stroke-width="0.5" stroke-miterlimit="10"/>
</svg>
