<svg width="28" height="28" viewBox="0 0 28 28" fill="none" xmlns="http://www.w3.org/2000/svg">
<path d="M21 9.33334C22.933 9.33334 24.5 7.76634 24.5 5.83334C24.5 3.90035 22.933 2.33334 21 2.33334C19.067 2.33334 17.5 3.90035 17.5 5.83334C17.5 7.76634 19.067 9.33334 21 9.33334Z" stroke="#FE6F6A" stroke-width="2" stroke-linecap="round" stroke-linejoin="round"/>
<path d="M7 17.5C8.933 17.5 10.5 15.933 10.5 14C10.5 12.067 8.933 10.5 7 10.5C5.067 10.5 3.5 12.067 3.5 14C3.5 15.933 5.067 17.5 7 17.5Z" stroke="#FE6F6A" stroke-width="2" stroke-linecap="round" stroke-linejoin="round"/>
<path d="M21 25.6667C22.933 25.6667 24.5 24.0997 24.5 22.1667C24.5 20.2337 22.933 18.6667 21 18.6667C19.067 18.6667 17.5 20.2337 17.5 22.1667C17.5 24.0997 19.067 25.6667 21 25.6667Z" stroke="#FE6F6A" stroke-width="2" stroke-linecap="round" stroke-linejoin="round"/>
<path d="M10.0234 15.7617L17.9918 20.405" stroke="#FE6F6A" stroke-width="2" stroke-linecap="round" stroke-linejoin="round"/>
<path d="M17.9801 7.595L10.0234 12.2383" stroke="#FE6F6A" stroke-width="2" stroke-linecap="round" stroke-linejoin="round"/>
</svg>
