<svg width="12" height="12" viewBox="0 0 12 12" fill="none" xmlns="http://www.w3.org/2000/svg">
<path d="M12 2.64737C11.9694 2.64737 11.9638 2.67319 11.9581 2.69431C11.8946 2.94402 11.751 3.14305 11.5713 3.32329C9.25173 5.63896 6.93315 7.95572 4.6155 10.2736C4.27571 10.6129 3.93451 10.9518 3.5966 11.2931C3.51055 11.3836 3.39748 11.4441 3.27423 11.4654C2.34334 11.6372 1.41293 11.808 0.481569 11.9798C0.472627 11.9798 0.465568 11.9934 0.458038 12H0.222727C-0.0347018 11.855 -0.0201124 11.6339 0.0283615 11.3837C0.20155 10.4918 0.363443 9.6 0.525336 8.70816C0.548455 8.58935 0.608958 8.48099 0.698054 8.39883C2.19086 6.90804 3.6832 5.41678 5.17506 3.92505C6.33593 2.76534 7.49679 1.60501 8.65766 0.444045C8.86661 0.234696 9.10004 0.0760414 9.39559 0.021592C9.40453 0.021592 9.41112 0.00751027 9.41865 0H9.81726C9.82103 0.00610209 9.82432 0.0173674 9.82856 0.0178368C10.1246 0.0506942 10.3637 0.19292 10.5698 0.398983C10.9149 0.743204 11.2592 1.08742 11.6028 1.43164C11.7728 1.59339 11.8954 1.79838 11.9572 2.02449C11.9633 2.0489 11.9633 2.08128 11.9991 2.08692L12 2.64737ZM8.31128 1.80246C8.28398 1.82875 8.25904 1.8494 8.23504 1.87522C5.98045 4.12736 3.7254 6.37997 1.46987 8.63305C1.40681 8.69642 1.40257 8.72693 1.46987 8.79358C2.04999 9.36781 2.62744 9.945 3.20222 10.5252C3.27376 10.5979 3.30576 10.5867 3.37118 10.5209C4.84767 9.04142 6.32542 7.56346 7.80442 6.08707L10.1293 3.75748C10.1651 3.72181 10.2173 3.69928 10.15 3.63262C9.55277 3.04213 8.95979 2.44694 8.36587 1.85316C8.35128 1.83673 8.33387 1.82171 8.31128 1.80059V1.80246ZM11.296 2.36573C11.2954 2.21385 11.2355 2.06818 11.1289 1.95971C10.7665 1.59405 10.4065 1.22511 10.0347 0.869313C9.79091 0.634617 9.46994 0.649169 9.2271 0.881987C9.10616 0.997927 8.99179 1.12091 8.8699 1.23591C8.82284 1.28003 8.81908 1.30397 8.86755 1.35279C9.46367 1.94391 10.0573 2.53675 10.6484 3.13131C10.6893 3.17215 10.7147 3.17825 10.7576 3.13413C10.8813 3.00458 11.0108 2.88019 11.1341 2.7511C11.2341 2.64716 11.2918 2.50979 11.296 2.36573ZM2.50524 10.8861L1.10702 9.48875C1.10249 9.49619 1.0996 9.50452 1.09855 9.51316C0.999251 10.0497 0.905127 10.5867 0.802532 11.1208C0.788413 11.1969 0.796884 11.2044 0.871713 11.1898C1.23503 11.1194 1.59976 11.0561 1.96355 10.9889C2.15415 10.9556 2.34428 10.9176 2.50524 10.8861Z" fill="#080707"/>
</svg>
