<svg width="182" height="219" viewBox="0 0 182 219" fill="none" xmlns="http://www.w3.org/2000/svg">
<g opacity="0.8">
<path d="M128.322 82.1923L179.123 72.0322L179.783 71.9004C180.12 71.8327 180.47 71.8544 180.793 71.9629C181.117 72.0714 181.4 72.2624 181.612 72.5138C181.824 72.7653 181.955 73.067 181.99 73.3844C182.025 73.7017 181.962 74.0217 181.81 74.3076L161.639 112.284C161.509 112.528 161.317 112.739 161.08 112.9C160.843 113.061 160.568 113.167 160.278 113.208C159.986 113.25 159.688 113.226 159.41 113.137C159.131 113.049 158.88 112.899 158.677 112.7L144.668 99.004C144.568 98.9041 144.447 98.8245 144.313 98.77C144.178 98.7155 144.033 98.6875 143.886 98.6876C143.687 98.685 143.49 98.7327 143.318 98.8257C143.145 98.9187 143.003 99.0534 142.907 99.2154L140.038 104.136C139.854 104.465 139.558 104.726 139.196 104.88C138.834 105.034 138.426 105.071 138.038 104.986L138.024 104.983C137.632 104.906 137.279 104.709 137.022 104.423C136.765 104.138 136.619 103.78 136.608 103.408L136.033 92.0491C136.026 91.9073 135.988 91.7684 135.921 91.6409C135.848 91.5148 135.751 91.4028 135.632 91.3112L127.55 85.1601C127.285 84.9579 127.086 84.6904 126.976 84.3883C126.867 84.0861 126.852 83.7616 126.933 83.4518C127.013 83.142 127.186 82.8596 127.432 82.6368C127.678 82.414 127.986 82.26 128.322 82.1923H128.322ZM128.012 84.6371L136.094 90.7883C136.199 90.867 136.295 90.9564 136.379 91.0548L179.215 73.0432C179.253 73.0269 179.292 73.0141 179.333 73.005C179.498 72.9655 179.673 72.9808 179.827 73.0482C179.981 73.1156 180.106 73.2309 180.178 73.3742C180.25 73.5175 180.266 73.6797 180.223 73.8328C180.18 73.9859 180.081 74.1202 179.943 74.2126L144.721 98.1997C144.9 98.2859 145.061 98.4 145.198 98.537L159.208 112.233C159.329 112.351 159.48 112.441 159.647 112.494C159.814 112.547 159.992 112.562 160.167 112.537C160.341 112.513 160.507 112.45 160.649 112.353C160.792 112.257 160.907 112.13 160.985 111.983L181.155 74.0069C181.246 73.8353 181.282 73.6437 181.26 73.4539C181.239 73.2641 181.16 73.0837 181.033 72.9333C180.907 72.7829 180.737 72.6685 180.543 72.6032C180.35 72.5379 180.141 72.5242 179.939 72.5639L179.263 72.6993L128.478 82.8558C128.277 82.8962 128.091 82.9885 127.944 83.1221C127.796 83.2557 127.692 83.4251 127.643 83.611C127.594 83.7969 127.603 83.9917 127.668 84.1732C127.734 84.3547 127.853 84.5154 128.012 84.6371Z" fill="white"/>
<path d="M117.494 217.665C122.05 216.524 127.596 211.778 126.409 205.255C125.82 202.02 123.56 199.926 121.217 198.571C117.975 196.698 114.284 195.992 110.726 195.814C106.623 195.608 102.524 196.127 98.4518 196.675C94.4313 197.217 90.4104 197.702 86.3719 197.998C70.5692 199.147 54.6698 198.052 39.2235 194.752C35.4111 193.936 31.6217 192.979 27.855 191.881C24.2857 190.907 20.7961 189.698 17.4127 188.263C12.9345 186.269 5.65195 182.391 6.24577 175.207C6.56065 171.398 8.97999 168.356 11.4203 166.237C14.371 163.674 17.7853 161.988 21.1294 160.351C36.6842 152.735 52.2694 145.209 67.8393 137.639C71.4732 135.872 75.1312 134.153 78.6579 132.082C81.9597 130.144 85.2461 127.892 87.9033 124.779C90.2241 122.06 92.2979 118.409 92.2248 114.328C92.1641 110.944 90.503 108.072 88.4685 105.925C83.4315 100.611 76.3062 98.4569 69.8663 97.3283C61.8655 95.9262 53.7489 95.9334 45.7429 94.5795C39.2785 93.4862 32.3713 91.3758 27.1139 86.4303C24.89 84.4187 23.317 81.8707 22.5726 79.074C21.9013 76.1448 22.2276 73.0946 23.5064 70.3447C24.9306 67.1909 27.2023 64.6786 29.591 62.6214C32.3349 60.2911 35.447 58.3635 38.8193 56.9053C45.9199 53.7682 53.3865 52.1348 60.6598 49.7274C64.2268 48.5468 67.8298 47.2521 71.142 45.2242C73.9481 43.5061 77.0049 41.1902 78.5661 37.7463C81.7872 30.6408 74.1027 26.406 69.7484 24.8019C66.7889 23.7612 63.7405 22.9521 60.6353 22.3831C59.9788 22.2524 60.2573 21.0374 60.9108 21.1674C64.1794 21.7583 67.3828 22.6255 70.4807 23.7582C73.1064 24.7696 75.8157 26.0989 77.8782 28.3862C78.8172 29.419 79.5115 30.6233 79.9159 31.9209C80.3204 33.2186 80.426 34.5806 80.226 35.9186C79.6797 39.3279 77.305 41.9548 75.0747 43.8576C72.1254 46.3738 68.7628 48.017 65.3533 49.3565C61.7626 50.7673 58.0956 51.8667 54.4299 52.9452C47.105 55.1001 39.4515 57.0205 32.8392 61.6061C28.2136 64.8138 21.9298 70.8282 23.4685 78.2832C24.1515 81.5925 26.2256 84.1798 28.4639 86.0828C31.0923 88.2518 34.1235 89.9606 37.41 91.1261C52.0631 96.5935 68.1898 92.6836 82.4653 100.109C87.319 102.634 93.2146 107.231 93.262 114.464C93.2867 118.221 91.6622 121.668 89.6538 124.391C87.2484 127.654 84.1335 130.066 80.9643 132.082C77.6273 134.128 74.1624 135.987 70.5878 137.652C66.6828 139.554 62.777 141.453 58.8703 143.35L35.1623 154.876L23.3829 160.603C19.7878 162.351 16.1004 164.028 12.8316 166.594C10.1552 168.695 6.99303 172.142 7.26611 176.421C7.48298 179.82 9.91838 182.273 12.1438 183.913C15.0255 186.037 18.2626 187.41 21.4835 188.551C25.1985 189.868 28.9746 190.96 32.758 191.942C40.508 193.95 48.4175 195.385 56.4122 196.234C64.387 197.086 72.421 197.363 80.442 197.065C84.4948 196.914 88.5412 196.613 92.5814 196.163C96.746 195.698 100.893 194.982 105.068 194.664C108.845 194.376 112.658 194.443 116.377 195.367C119.482 196.139 122.763 197.514 125.12 200.197C126.858 202.246 127.728 204.813 127.567 207.415C127.407 210.011 126.409 212.503 124.701 214.567C122.967 216.674 120.53 218.191 117.769 218.881C117.118 219.044 116.84 217.829 117.494 217.665L117.494 217.665Z" fill="#CACACA"/>
<path d="M9.48614 182.483C5.21445 182.483 1.75156 179.272 1.75156 175.312C1.75156 171.351 5.21445 168.141 9.48614 168.141C13.7578 168.141 17.2207 171.351 17.2207 175.312C17.2207 179.272 13.7578 182.483 9.48614 182.483Z" fill="#CACACA"/>
<path d="M23.5974 81.4109C19.3257 81.4109 15.8628 78.2003 15.8628 74.2399C15.8628 70.2794 19.3257 67.0688 23.5974 67.0688C27.8691 67.0688 31.332 70.2794 31.332 74.2399C31.332 78.2003 27.8691 81.4109 23.5974 81.4109Z" fill="#CACACA"/>
<path d="M41.0842 0.299956L62.5607 8.956C63.5092 9.33948 64.2549 10.0561 64.6343 10.9487C65.0136 11.8413 64.9955 12.837 64.584 13.7173L57.9152 27.9398C57.5016 28.8192 56.7287 29.5106 55.7659 29.8623C54.8031 30.214 53.7292 30.1973 52.7798 29.8158L31.3033 21.1597C30.3548 20.7762 29.609 20.0596 29.2297 19.167C28.8504 18.2744 28.8684 17.2787 29.2799 16.3984L35.9487 2.17588C36.3623 1.29647 37.1353 0.605078 38.0981 0.253395C39.0608 -0.0982873 40.1347 -0.0815416 41.0842 0.299956ZM40.195 2.1963C40.0666 2.14509 39.9317 2.10908 39.7936 2.08912L47.0545 14.7902L61.9677 11.0065C61.8749 10.9459 61.7756 10.8943 61.6715 10.8523L40.195 2.1963ZM32.1925 19.2634L53.6689 27.9194C54.0759 28.0829 54.5361 28.0901 54.9487 27.9393C55.3613 27.7886 55.6926 27.4923 55.8699 27.1154L62.4788 13.0206L46.7817 17.0032C46.5373 17.0653 46.2774 17.0482 46.0448 16.955C45.8122 16.8617 45.6208 16.6978 45.5021 16.4902L37.9023 3.19613L31.3253 17.2228C31.149 17.6001 31.1412 18.0268 31.3038 18.4093C31.4664 18.7919 31.786 19.099 32.1925 19.2634Z" fill="#CACACA"/>
<path d="M65.1732 123.669C54.3731 123.669 45.6179 115.551 45.6179 105.538C45.6179 95.525 54.3731 87.4077 65.1732 87.4077C75.9733 87.4077 84.7285 95.525 84.7285 105.538C84.7285 115.551 75.9733 123.669 65.1732 123.669Z" fill="white"/>
<path d="M68.2544 218.464H73.6474C74.2771 218.464 74.8808 218.231 75.326 217.818C75.7713 217.406 76.0217 216.846 76.0225 216.262V174.589C76.0217 174.006 75.7713 173.446 75.326 173.033C74.8808 172.62 74.2771 172.388 73.6474 172.387H68.2544C67.6247 172.388 67.021 172.62 66.5758 173.033C66.1305 173.446 65.8801 174.006 65.8793 174.589V216.262C65.8801 216.846 66.1305 217.406 66.5758 217.818C67.021 218.231 67.6247 218.464 68.2544 218.464Z" fill="black"/>
<path d="M57.5874 218.464H62.9804C63.6101 218.464 64.2138 218.231 64.659 217.818C65.1043 217.406 65.3547 216.846 65.3555 216.262V174.589C65.3547 174.006 65.1043 173.446 64.659 173.033C64.2138 172.62 63.6101 172.388 62.9804 172.387H57.5874C56.9577 172.388 56.354 172.62 55.9088 173.033C55.4635 173.446 55.2131 174.006 55.2123 174.589V216.262C55.2131 216.846 55.4635 217.406 55.9088 217.818C56.354 218.231 56.9577 218.464 57.5874 218.464Z" fill="black"/>
<path d="M35.2395 170.232C35.4765 170.231 35.712 170.199 35.9386 170.134C36.2371 170.05 36.5147 169.912 36.7553 169.728C36.9958 169.543 37.1946 169.317 37.3402 169.061L58.4103 132.25C58.5566 131.995 58.6471 131.715 58.6767 131.427C58.7064 131.14 58.6746 130.849 58.5832 130.573C58.4918 130.296 58.3425 130.039 58.1439 129.816C57.9454 129.593 57.7014 129.409 57.4259 129.273L52.6622 126.929C52.3868 126.794 52.0851 126.71 51.7746 126.682C51.4641 126.655 51.1508 126.684 50.8526 126.769C50.5543 126.854 50.277 126.992 50.0365 127.176C49.796 127.36 49.597 127.587 49.4508 127.842L28.381 164.653C28.2347 164.908 28.1441 165.188 28.1144 165.476C28.0847 165.763 28.1165 166.054 28.2079 166.33C28.2993 166.607 28.4486 166.864 28.6472 167.087C28.8459 167.31 29.0899 167.494 29.3654 167.63L34.1291 169.974C34.4708 170.143 34.8522 170.232 35.2395 170.232Z" fill="white"/>
<path d="M79.1021 136.302C79.3871 136.302 79.6697 136.254 79.9363 136.161H79.9367L121.985 121.433C122.277 121.331 122.544 121.177 122.771 120.979C122.998 120.781 123.181 120.543 123.309 120.279C123.437 120.016 123.508 119.732 123.517 119.443C123.527 119.154 123.475 118.866 123.364 118.595L121.462 113.918C121.238 113.372 120.789 112.931 120.215 112.692C119.641 112.452 118.987 112.433 118.398 112.638L76.3506 127.362C75.7625 127.57 75.2869 127.985 75.0277 128.516C74.7685 129.048 74.7467 129.653 74.9672 130.2L76.873 134.878C77.0451 135.297 77.3505 135.657 77.7485 135.911C78.1466 136.166 78.6186 136.302 79.1021 136.302Z" fill="white"/>
<path d="M53.1426 126.819H77.6465C78.8573 126.819 79.8389 127.729 79.8389 128.851V177.117C79.8389 178.24 78.8573 179.15 77.6465 179.15H53.1426C51.9319 179.15 50.9503 178.24 50.9503 177.117V128.851C50.9503 127.729 51.9319 126.819 53.1426 126.819Z" fill="black"/>
<path d="M50.7283 87.7833C49.5793 90.121 48.4795 92.9463 49.7162 95.447C50.17 96.4572 51.0212 97.2696 52.0971 97.7194C53.3718 98.1908 54.7612 97.9218 55.9423 97.3518C58.4292 96.1519 60.0322 93.9223 62.2527 92.3948C63.2635 91.665 64.459 91.1873 65.7253 91.0073C67.1844 90.8309 68.6328 91.15 70.0598 91.3963C71.5776 91.6583 73.1462 91.7965 74.551 91.083C75.7868 90.4133 76.7539 89.3888 77.3063 88.1645C77.5956 87.5691 78.5405 88.0853 78.2528 88.6774C77.0583 91.1357 74.5881 92.8109 71.6201 92.6171C70.0497 92.5146 68.5328 92.0445 66.9597 91.9771C65.5246 91.9332 64.1172 92.3503 62.9758 93.1579C60.5379 94.7691 58.8833 97.2435 56.0865 98.4137C54.7669 98.9658 53.2558 99.1959 51.8645 98.7204C50.6645 98.2876 49.6647 97.4805 49.0375 96.4379C47.202 93.5079 48.3809 90.1207 49.7818 87.2703C50.0739 86.676 51.0189 87.1919 50.7283 87.7833Z" fill="black"/>
<path d="M63.0113 111.592C64.2192 111.56 65.7228 111.521 66.8807 110.737C67.2256 110.494 67.5089 110.184 67.7109 109.828C67.9129 109.473 68.0286 109.081 68.0501 108.68C68.071 108.395 68.0206 108.109 67.9026 107.845C67.7847 107.581 67.6025 107.346 67.3703 107.158C66.7658 106.684 65.8827 106.573 64.93 106.832L65.9166 100.15L65.1922 100.058L64.0329 107.914L64.6374 107.657C65.3378 107.359 66.3005 107.207 66.8986 107.675C67.0454 107.798 67.1597 107.95 67.2327 108.12C67.3058 108.29 67.3355 108.474 67.3196 108.656C67.3019 108.955 67.215 109.246 67.0649 109.511C66.9148 109.776 66.705 110.007 66.4497 110.19C65.5484 110.8 64.3501 110.879 62.9906 110.914L63.0113 111.592Z" fill="black"/>
<path d="M69.4968 100.726H73.4326V101.404H69.4968V100.726Z" fill="black"/>
<path d="M57.073 100.726H61.0088V101.404H57.073V100.726Z" fill="black"/>
<path d="M79.8716 136.002L97.1522 131.117C97.6911 130.965 98.1461 130.626 98.4227 130.171C98.6993 129.715 98.7763 129.179 98.6377 128.673L96.6204 121.303C96.5407 121.012 96.3924 120.741 96.1862 120.509C95.98 120.278 95.7209 120.091 95.4277 119.963C95.1345 119.836 94.8145 119.77 94.4905 119.771C94.1666 119.771 93.8468 119.838 93.5542 119.967L76.4145 127.521C75.8713 127.712 75.4319 128.095 75.1926 128.586C74.9532 129.076 74.9334 129.635 75.1374 130.14L77.0435 134.818C77.2495 135.322 77.6631 135.73 78.1933 135.952C78.7235 136.175 79.3271 136.192 79.8716 136.002Z" fill="black"/>
<path d="M58.0991 131.833L50.6881 147.109C50.457 147.585 50.0368 147.961 49.5149 148.158C48.993 148.355 48.4094 148.358 47.8852 148.166L40.2551 145.379C39.9537 145.269 39.6823 145.099 39.4605 144.88C39.2388 144.661 39.0721 144.399 38.9725 144.113C38.8729 143.827 38.8428 143.525 38.8845 143.227C38.9261 142.929 39.0385 142.643 39.2134 142.391L49.4614 127.582C49.7345 127.106 50.1998 126.751 50.7552 126.593C51.3106 126.435 51.9109 126.487 52.4247 126.738L57.1894 129.083C57.7031 129.336 58.0874 129.768 58.258 130.283C58.4286 130.799 58.3714 131.357 58.0991 131.833Z" fill="black"/>
<path d="M128.322 82.1923L179.123 72.0322L179.783 71.9004C180.12 71.8327 180.47 71.8544 180.793 71.9629C181.117 72.0714 181.4 72.2624 181.612 72.5138C181.824 72.7653 181.955 73.067 181.99 73.3844C182.025 73.7017 181.962 74.0217 181.81 74.3076L161.639 112.284C161.509 112.528 161.317 112.739 161.08 112.9C160.843 113.061 160.568 113.167 160.278 113.208C159.986 113.25 159.688 113.226 159.41 113.137C159.131 113.049 158.88 112.899 158.677 112.7L144.668 99.004C144.568 98.9041 144.447 98.8245 144.313 98.77C144.178 98.7155 144.033 98.6875 143.886 98.6876C143.687 98.685 143.49 98.7327 143.318 98.8257C143.145 98.9187 143.003 99.0534 142.907 99.2154L140.038 104.136C139.854 104.465 139.558 104.726 139.196 104.88C138.834 105.034 138.426 105.071 138.038 104.986L138.024 104.983C137.632 104.906 137.279 104.709 137.022 104.423C136.765 104.138 136.619 103.78 136.608 103.408L136.033 92.0491C136.026 91.9073 135.988 91.7684 135.921 91.6409C135.848 91.5148 135.751 91.4028 135.632 91.3112L127.55 85.1601C127.285 84.9579 127.086 84.6904 126.976 84.3883C126.867 84.0861 126.852 83.7616 126.933 83.4518C127.013 83.142 127.186 82.8596 127.432 82.6368C127.678 82.414 127.986 82.26 128.322 82.1923H128.322ZM128.012 84.6371L136.094 90.7883C136.199 90.867 136.295 90.9564 136.379 91.0548C136.454 91.1424 136.519 91.2372 136.573 91.3376C136.629 91.4403 136.674 91.5483 136.706 91.6597L136.705 91.663C136.738 91.7791 136.758 91.8982 136.762 92.0183L137.337 103.378C137.342 103.601 137.429 103.816 137.583 103.988C137.737 104.159 137.95 104.277 138.186 104.322L138.193 104.323C138.425 104.377 138.671 104.356 138.889 104.264C139.107 104.172 139.286 104.015 139.395 103.817L142.266 98.8929C142.414 98.6396 142.629 98.4256 142.891 98.2711C143.153 98.1166 143.453 98.0268 143.764 98.0101L143.767 98.0109C143.809 98.009 143.85 98.0072 143.891 98.0086C144.181 98.0087 144.466 98.0743 144.721 98.1997C144.9 98.2859 145.061 98.4 145.198 98.537L159.208 112.233C159.329 112.351 159.48 112.441 159.647 112.494C159.814 112.547 159.992 112.562 160.167 112.537C160.341 112.513 160.507 112.45 160.649 112.353C160.792 112.257 160.907 112.13 160.985 111.983L181.155 74.0069C181.246 73.8353 181.282 73.6437 181.26 73.4539C181.239 73.2641 181.16 73.0837 181.033 72.9333C180.907 72.7829 180.737 72.6685 180.543 72.6032C180.35 72.5379 180.141 72.5242 179.939 72.5639L179.263 72.6993L128.478 82.8558C128.277 82.8962 128.091 82.9885 127.944 83.1221C127.796 83.2557 127.692 83.4251 127.643 83.611C127.594 83.7969 127.603 83.9917 127.668 84.1732C127.734 84.3547 127.853 84.5154 128.012 84.6371Z" fill="#D2D2D3"/>
<path d="M136.217 91.1221L136.518 91.7392L136.705 91.6629L136.706 91.6596L179.508 73.6654L143.767 98.0108L143.764 98.01L143.669 98.0774L144.1 98.6237L144.722 98.1996L179.943 74.2125C180.081 74.1201 180.18 73.9858 180.223 73.8327C180.266 73.6796 180.25 73.5174 180.178 73.3741C180.106 73.2308 179.982 73.1155 179.827 73.0481C179.673 72.9807 179.498 72.9654 179.333 73.0049C179.292 73.014 179.253 73.0269 179.215 73.0432L136.379 91.0547L136.217 91.1221Z" fill="#E4E4E4"/>
</g>
</svg>
