<svg width="22" height="22" viewBox="0 0 22 22" fill="none" xmlns="http://www.w3.org/2000/svg">
<path d="M10.6972 0.115967C8.60449 0.115967 6.55876 0.736532 4.81873 1.89919C3.07869 3.06184 1.7225 4.71437 0.921646 6.64779C0.120795 8.58122 -0.0887436 10.7087 0.319527 12.7612C0.727797 14.8137 1.73554 16.6991 3.21532 18.1789C4.6951 19.6586 6.58045 20.6664 8.63297 21.0747C10.6855 21.4829 12.813 21.2734 14.7464 20.4725C16.6798 19.6717 18.3323 18.3155 19.495 16.5755C20.6576 14.8354 21.2782 12.7897 21.2782 10.697C21.2772 7.89104 20.162 5.20033 18.1779 3.21624C16.1938 1.23215 13.5031 0.117027 10.6972 0.115967ZM10.6972 19.162C9.023 19.162 7.38638 18.6655 5.99431 17.7354C4.60225 16.8052 3.51727 15.4832 2.87658 13.9364C2.23588 12.3896 2.06824 10.6876 2.39487 9.04553C2.72149 7.40348 3.52771 5.89516 4.71156 4.71131C5.89541 3.52746 7.40373 2.72124 9.04578 2.39462C10.6878 2.068 12.3899 2.23563 13.9366 2.87633C15.4834 3.51702 16.8055 4.602 17.7356 5.99406C18.6658 7.38613 19.1622 9.02275 19.1622 10.697C19.1593 12.9411 18.2665 15.0925 16.6797 16.6794C15.0928 18.2663 12.9414 19.1591 10.6972 19.162ZM4.87822 16.516L12.8242 12.823L16.5162 4.87797L8.57022 8.57097L4.87822 16.516ZM10.6982 9.53197C10.9284 9.53197 11.1535 9.60023 11.3449 9.72814C11.5363 9.85604 11.6855 10.0378 11.7736 10.2505C11.8617 10.4632 11.8848 10.6973 11.8398 10.9231C11.7949 11.1488 11.6841 11.3563 11.5213 11.519C11.3585 11.6818 11.1511 11.7927 10.9253 11.8376C10.6995 11.8825 10.4655 11.8595 10.2528 11.7714C10.0401 11.6833 9.85829 11.5341 9.73038 11.3427C9.60248 11.1512 9.53422 10.9262 9.53422 10.696C9.53395 10.5432 9.56386 10.3918 9.62221 10.2506C9.68056 10.1094 9.76622 9.98106 9.87426 9.87301C9.98231 9.76497 10.1106 9.67931 10.2518 9.62096C10.3931 9.56261 10.5444 9.5327 10.6972 9.53297L10.6982 9.53197Z" fill="#D1D1D1"/>
</svg>
