<svg width="47" height="36" viewBox="0 0 47 36" fill="none" xmlns="http://www.w3.org/2000/svg">
<path d="M24.402 15.704C24.318 15.704 24.248 15.6807 24.192 15.634C24.136 15.578 24.108 15.5033 24.108 15.41C24.108 15.3167 24.108 15.2233 24.108 15.13C24.108 15.0367 24.108 14.9433 24.108 14.85C24.1267 14.4487 24.2153 14.094 24.374 13.786C24.5327 13.478 24.724 13.198 24.948 12.946C25.1813 12.694 25.4147 12.456 25.648 12.232C25.8813 11.9987 26.0773 11.7653 26.236 11.532C26.404 11.2987 26.5067 11.0513 26.544 10.79C26.5813 10.454 26.516 10.174 26.348 9.95C26.18 9.71667 25.9513 9.53933 25.662 9.418C25.3727 9.29667 25.074 9.236 24.766 9.236C24.2713 9.236 23.8467 9.36667 23.492 9.628C23.1467 9.88 22.918 10.3093 22.806 10.916C22.778 11.028 22.7313 11.1073 22.666 11.154C22.6007 11.2007 22.526 11.224 22.442 11.224H21.77C21.686 11.224 21.6113 11.196 21.546 11.14C21.49 11.084 21.462 11.0093 21.462 10.916C21.4713 10.5333 21.5553 10.1693 21.714 9.824C21.8727 9.47867 22.0967 9.17533 22.386 8.914C22.6847 8.65267 23.0347 8.44733 23.436 8.298C23.8467 8.13933 24.304 8.06 24.808 8.06C25.3773 8.06 25.8627 8.13933 26.264 8.298C26.6747 8.44733 27.0013 8.65267 27.244 8.914C27.496 9.166 27.678 9.446 27.79 9.754C27.902 10.062 27.9487 10.37 27.93 10.678C27.902 11.0513 27.8087 11.3873 27.65 11.686C27.4913 11.9753 27.3 12.246 27.076 12.498C26.852 12.7407 26.6233 12.9833 26.39 13.226C26.166 13.4593 25.97 13.7067 25.802 13.968C25.6433 14.22 25.5547 14.4953 25.536 14.794C25.5267 14.8967 25.5173 14.9993 25.508 15.102C25.508 15.1953 25.508 15.2887 25.508 15.382C25.4893 15.4847 25.452 15.564 25.396 15.62C25.34 15.676 25.2607 15.704 25.158 15.704H24.402ZM24.29 18C24.1967 18 24.1173 17.972 24.052 17.916C23.996 17.8507 23.968 17.7713 23.968 17.678V16.824C23.968 16.7307 23.996 16.656 24.052 16.6C24.1173 16.5347 24.1967 16.502 24.29 16.502H25.2C25.3027 16.502 25.382 16.5347 25.438 16.6C25.5033 16.656 25.536 16.7307 25.536 16.824V17.678C25.536 17.7713 25.5033 17.8507 25.438 17.916C25.382 17.972 25.3027 18 25.2 18H24.29Z" fill="url(#paint0_linear_859_1433)"/>
<path d="M3.64446 11.8452C3.63189 11.7879 3.63794 11.7409 3.66262 11.7042C3.69254 11.6665 3.73378 11.6432 3.78633 11.6341L8.93354 10.7416C8.99134 10.7316 9.03944 10.7395 9.07782 10.7653C9.12146 10.7901 9.14957 10.8312 9.16213 10.8885L9.24954 11.2871C9.26211 11.3444 9.25343 11.3918 9.2235 11.4295C9.19997 11.4714 9.1593 11.4974 9.1015 11.5074L6.92596 11.8846L7.51553 14.5727L9.69107 14.1955C9.74888 14.1855 9.79697 14.1934 9.83536 14.2192C9.88014 14.2492 9.90824 14.2903 9.91967 14.3424L10.0071 14.741C10.0196 14.7983 10.011 14.8457 9.98104 14.8834C9.95751 14.9253 9.91684 14.9513 9.85903 14.9613L4.71183 15.8538C4.65928 15.8629 4.61061 15.8524 4.56583 15.8223C4.52744 15.7965 4.50197 15.755 4.4894 15.6976L4.40199 15.2991C4.39057 15.247 4.39662 15.2 4.42015 15.1581C4.45008 15.1204 4.49132 15.0971 4.54387 15.088L6.80612 14.6957L6.21654 12.0076L3.95429 12.3999C3.90174 12.409 3.85308 12.3985 3.80829 12.3684C3.76991 12.3426 3.74443 12.301 3.73186 12.2437L3.64446 11.8452Z" fill="black"/>
<path d="M7.00996 20.9169C6.78322 20.5809 6.66199 20.2638 6.6463 19.9656C6.6306 19.6673 6.70247 19.3945 6.86189 19.1471C7.02603 18.8972 7.2589 18.6827 7.56052 18.5038C7.63753 18.4567 7.7372 18.4005 7.85955 18.3352C7.9866 18.2675 8.08926 18.2157 8.16753 18.1799C8.49175 18.025 8.81413 17.9432 9.13467 17.9345C9.45819 17.9303 9.76426 18.0045 10.0529 18.1571C10.3415 18.3098 10.5977 18.5519 10.8214 18.8835C11.0452 19.215 11.1649 19.5299 11.1806 19.8282C11.1963 20.1265 11.1245 20.3993 10.965 20.6467C10.8086 20.8985 10.5772 21.1151 10.2709 21.2966C10.1986 21.3412 10.0989 21.3974 9.97186 21.4651C9.84951 21.5304 9.74685 21.5822 9.66387 21.6204C9.34436 21.7729 9.02198 21.8547 8.69674 21.8659C8.3762 21.8745 8.07162 21.8025 7.783 21.6499C7.49439 21.4972 7.2367 21.2529 7.00996 20.9169ZM7.55345 20.627C7.73843 20.9011 7.97787 21.0709 8.27177 21.1366C8.57038 21.1997 8.90297 21.1426 9.26954 20.965C9.34311 20.9318 9.43401 20.8863 9.54223 20.8286C9.65046 20.7708 9.73837 20.7209 9.80597 20.6788C10.1546 20.4748 10.3655 20.242 10.4387 19.9805C10.5165 19.7165 10.4629 19.4475 10.278 19.1734C10.093 18.8993 9.84969 18.7285 9.5481 18.6609C9.25419 18.5953 8.92545 18.6534 8.56186 18.8354C8.48829 18.8686 8.3974 18.9141 8.28917 18.9718C8.18094 19.0296 8.09303 19.0795 8.02543 19.1216C7.67378 19.3212 7.45903 19.553 7.3812 19.817C7.31106 20.0829 7.36847 20.3529 7.55345 20.627Z" fill="black"/>
<path d="M10.8774 26.729C10.8207 26.6892 10.7877 26.6466 10.7784 26.6012C10.7727 26.5518 10.7801 26.4955 10.8008 26.4324L12.3374 23.0048C12.3464 22.9787 12.3597 22.9557 12.3774 22.9358C12.4093 22.8999 12.449 22.8792 12.4964 22.8737C12.5482 22.8713 12.5916 22.8823 12.6265 22.9068L12.9145 23.1092C12.9625 23.1429 12.989 23.181 12.9939 23.2233C12.9988 23.2656 12.9968 23.2998 12.9878 23.3258L11.7107 26.0906L14.4721 24.4076C14.5056 24.3858 14.5479 24.3702 14.5988 24.3607C14.6542 24.3542 14.7102 24.371 14.767 24.4108L14.9895 24.5672C15.0462 24.6071 15.0775 24.6517 15.0832 24.701C15.089 24.7504 15.0816 24.7906 15.0612 24.8215L13.8577 27.5992L16.588 25.8555C16.61 25.8386 16.6448 25.8274 16.6922 25.8219C16.7397 25.8164 16.7874 25.8305 16.8354 25.8642L17.1234 26.0666C17.1627 26.0942 17.1848 26.1291 17.1897 26.1714C17.1946 26.2138 17.1811 26.2529 17.1493 26.2887C17.1315 26.3087 17.1095 26.3255 17.083 26.3393L13.6875 28.4607C13.6319 28.4993 13.5742 28.5203 13.5145 28.5237C13.4627 28.5262 13.4063 28.5059 13.3452 28.463L13.0899 28.2836C13.0332 28.2438 12.9958 28.1981 12.9778 28.1466C12.9677 28.0941 12.9773 28.0394 13.0067 27.9824L14.1501 25.3082L11.4881 26.9153C11.4282 26.9509 11.3683 26.9704 11.3086 26.9737C11.2524 26.9731 11.1938 26.9513 11.1327 26.9084L10.8774 26.729Z" fill="black"/>
<path d="M31.45 32.3174C31.3926 32.3564 31.3381 32.3742 31.2863 32.371C31.2311 32.3636 31.1716 32.3432 31.1078 32.3097L27.7484 30.1334C27.7222 30.1192 27.7004 30.1019 27.683 30.0817C27.6517 30.0453 27.6389 30.006 27.6445 29.9638C27.6545 29.9185 27.6772 29.8839 27.7124 29.8599L28.0036 29.662C28.0521 29.6291 28.1 29.6157 28.1474 29.622C28.1947 29.6283 28.2314 29.6385 28.2577 29.6528L30.9582 31.4406L29.8003 28.6428C29.7848 28.6085 29.7781 28.5682 29.7802 28.5219C29.7868 28.4726 29.8187 28.4284 29.8761 28.3895L30.101 28.2366C30.1584 28.1976 30.2147 28.1818 30.2699 28.1891C30.3251 28.1964 30.3671 28.2127 30.3958 28.2381L33.1285 29.9657L31.8968 27.1795C31.8838 27.1563 31.8801 27.1236 31.8857 27.0813C31.8913 27.0391 31.9184 27.0015 31.9669 26.9685L32.258 26.7706C32.2977 26.7437 32.3413 26.7333 32.3886 26.7396C32.4359 26.7459 32.4752 26.7672 32.5065 26.8036C32.5239 26.8238 32.5369 26.847 32.5454 26.8733L34.0258 30.3266C34.0542 30.3841 34.063 30.439 34.0521 30.4913C34.0421 30.5366 34.0062 30.5802 33.9444 30.6222L33.6864 30.7975C33.629 30.8365 33.5701 30.8573 33.5095 30.8601C33.4499 30.8557 33.3926 30.8338 33.3376 30.7943L30.703 29.1441L31.8026 31.8375C31.8267 31.898 31.8332 31.9544 31.8223 32.0067C31.8078 32.055 31.7698 32.1001 31.708 32.1421L31.45 32.3174Z" fill="black"/>
<path d="M38.7684 27.3653C38.4444 27.6089 38.1204 27.7564 37.7964 27.8077C37.4724 27.8591 37.1591 27.8295 36.8566 27.7189C36.5504 27.6045 36.2696 27.4245 36.0142 27.1791C35.9475 27.1166 35.8663 27.0351 35.7708 26.9346C35.6715 26.8303 35.5947 26.7456 35.5401 26.6805C35.3067 26.412 35.1538 26.1359 35.0814 25.8522C35.0134 25.5654 35.0347 25.2842 35.1456 25.0087C35.2564 24.7332 35.4717 24.4752 35.7914 24.2349C36.1111 23.9945 36.433 23.8486 36.757 23.7973C37.081 23.7459 37.3943 23.7755 37.6968 23.8861C38.0036 23.9934 38.2865 24.1718 38.5456 24.4211C38.6086 24.4798 38.6898 24.5612 38.789 24.6656C38.8846 24.7661 38.9615 24.8508 39.0197 24.9197C39.2495 25.1844 39.4024 25.4605 39.4784 25.748C39.5507 26.0316 39.5315 26.3112 39.4206 26.5867C39.3098 26.8622 39.0924 27.1218 38.7684 27.3653ZM38.3439 26.919C38.6082 26.7203 38.7476 26.4863 38.762 26.217C38.7727 25.9438 38.6448 25.6555 38.3782 25.3522C38.3274 25.291 38.2597 25.216 38.1751 25.1271C38.0906 25.0382 38.0186 24.9664 37.9593 24.9116C37.6671 24.6275 37.3706 24.4694 37.0695 24.4372C36.7647 24.4012 36.4802 24.4825 36.2159 24.6812C35.9516 24.8799 35.8119 25.1175 35.797 25.3939C35.7826 25.6632 35.9108 25.9479 36.1816 26.248C36.2324 26.3092 36.3001 26.3842 36.3847 26.4731C36.4692 26.562 36.5412 26.6338 36.6005 26.6886C36.8884 26.9759 37.1847 27.1376 37.4894 27.1736C37.7948 27.2025 38.0796 27.1177 38.3439 26.919Z" fill="black"/>
<path d="M41.1594 23.7126C41.1333 23.7591 41.0965 23.7922 41.049 23.8118C40.9992 23.8245 40.9499 23.8201 40.9012 23.7985L37.4421 22.2643C37.3934 22.2427 37.3598 22.2103 37.3413 22.1673C37.3254 22.1196 37.3306 22.0725 37.3567 22.026L37.5367 21.705C37.5628 21.6585 37.6021 21.6266 37.6545 21.6091C37.7069 21.5917 37.7574 21.5938 37.8062 21.6154L38.128 21.7582C38.0144 21.5916 37.9618 21.4086 37.9703 21.209C37.9787 21.0095 38.0469 20.7957 38.1748 20.5678L38.3314 20.2887C38.3575 20.2422 38.3954 20.2126 38.4452 20.1998C38.4901 20.1849 38.5369 20.1882 38.5857 20.2098L38.8855 20.3428C38.9343 20.3645 38.9654 20.3957 38.979 20.4366C38.9926 20.4775 38.9864 20.5212 38.9603 20.5677L38.7254 20.9863C38.5845 21.2375 38.5516 21.4697 38.6267 21.6831C38.6969 21.8943 38.8637 22.0583 39.1269 22.1751L41.277 23.1287C41.3257 23.1503 41.358 23.185 41.3739 23.2327C41.3849 23.2782 41.3773 23.3242 41.3512 23.3708L41.1594 23.7126Z" fill="black"/>
<path d="M43.2005 18.9069C43.1912 18.9595 43.1675 19.0019 43.1294 19.0343C43.0869 19.0606 43.0392 19.0702 42.9864 19.0628L37.7249 18.332C37.672 18.3247 37.6326 18.3031 37.6064 18.2671C37.5759 18.2252 37.5652 18.178 37.5745 18.1255L37.6395 17.7552C37.6488 17.7026 37.6746 17.6632 37.7172 17.6368C37.7553 17.6044 37.8008 17.5919 37.8536 17.5993L40.6112 17.9823L39.5844 16.2495C39.5426 16.1792 39.5166 16.1271 39.5063 16.0934C39.4916 16.0537 39.4912 15.9945 39.505 15.9157L39.5784 15.4981C39.5867 15.4508 39.6095 15.4136 39.6467 15.3865C39.6839 15.3594 39.7263 15.3491 39.7739 15.3557C39.795 15.3586 39.8174 15.3698 39.841 15.3892C39.8656 15.4034 39.8879 15.4307 39.9078 15.4712L41.1094 17.5026L43.4369 15.7596C43.5008 15.7039 43.5539 15.6789 43.5961 15.6848C43.6437 15.6914 43.6805 15.7127 43.7067 15.7486C43.7328 15.7845 43.7418 15.8261 43.7335 15.8734L43.6615 16.2831C43.6476 16.3619 43.6295 16.4186 43.6072 16.4532C43.5796 16.487 43.5344 16.5291 43.4714 16.5796L41.4749 18.1022L43.1151 18.3301C43.1679 18.3374 43.2096 18.362 43.2401 18.4039C43.2663 18.4398 43.2748 18.4841 43.2655 18.5366L43.2005 18.9069Z" fill="black"/>
<path d="M43.188 11.235C43.2229 11.5317 43.2156 11.7894 43.1661 12.0081C43.1167 12.2269 43.0466 12.4075 42.956 12.5497C42.8653 12.692 42.7709 12.8025 42.6728 12.8813C42.5741 12.9547 42.4932 12.997 42.43 13.0082C42.3723 13.019 42.3249 13.0046 42.2881 12.9652C42.2513 12.9258 42.2303 12.8849 42.2254 12.8425L42.1843 12.4929C42.1806 12.4611 42.1831 12.4368 42.1918 12.4199C42.1946 12.3982 42.2128 12.3698 42.2462 12.3346C42.3125 12.2588 42.3778 12.1751 42.4422 12.0834C42.5066 11.9918 42.5555 11.8828 42.589 11.7565C42.6218 11.625 42.6274 11.4665 42.6056 11.2811C42.5738 11.011 42.4973 10.7932 42.3758 10.6277C42.2491 10.4628 42.0848 10.3897 41.883 10.4085C41.7502 10.4208 41.6484 10.4677 41.5774 10.5493C41.5059 10.6256 41.4491 10.7593 41.4072 10.9507C41.3646 11.1367 41.3275 11.3918 41.2958 11.716C41.2588 12.0407 41.1981 12.3007 41.1136 12.496C41.0239 12.6917 40.9094 12.8362 40.77 12.9295C40.6253 13.0233 40.4574 13.079 40.2662 13.0968C40.0697 13.115 39.8744 13.0743 39.6801 12.9745C39.4806 12.8752 39.3093 12.7198 39.1663 12.5082C39.0227 12.2913 38.931 12.0133 38.8912 11.6743C38.8588 11.3989 38.8657 11.1599 38.9117 10.9575C38.9577 10.7552 39.0263 10.5855 39.1176 10.4485C39.2036 10.312 39.2932 10.2073 39.3867 10.1343C39.4801 10.0614 39.561 10.0191 39.6294 10.0074C39.6819 9.99712 39.7289 10.0088 39.7705 10.0424C39.8067 10.0766 39.8276 10.1175 39.8332 10.1651L39.8724 10.4988C39.8768 10.5359 39.8725 10.5684 39.8597 10.5964C39.8463 10.6191 39.8302 10.642 39.8114 10.6651C39.7486 10.7245 39.687 10.7945 39.6267 10.8751C39.5658 10.9503 39.5209 11.0482 39.4921 11.1687C39.4574 11.2844 39.4509 11.4349 39.4727 11.6203C39.5038 11.8851 39.5829 12.0786 39.71 12.2007C39.8371 12.3227 39.9856 12.3759 40.1555 12.3601C40.2564 12.3507 40.3433 12.3132 40.4161 12.2475C40.4889 12.1819 40.5475 12.064 40.5919 11.8938C40.6364 11.7237 40.6768 11.4736 40.7132 11.1436C40.7411 10.7876 40.8017 10.5035 40.8949 10.2914C40.9881 10.0793 41.1067 9.92369 41.2507 9.82463C41.3948 9.72558 41.5677 9.66668 41.7695 9.64793C41.9925 9.62722 42.2048 9.67444 42.4062 9.78959C42.607 9.89946 42.7781 10.0763 42.9195 10.3202C43.0549 10.5593 43.1445 10.8642 43.188 11.235Z" fill="black"/>
<path d="M20.9087 33.4629C20.8554 33.4655 20.8092 33.4517 20.7699 33.4216C20.7357 33.3859 20.7169 33.3414 20.7137 33.2882L20.4823 29.5032C20.4791 29.45 20.4925 29.4066 20.5225 29.3731C20.5575 29.3341 20.6016 29.3133 20.6549 29.3107L21.0385 29.2922C21.0917 29.2896 21.1355 29.3062 21.1697 29.3419C21.2036 29.3723 21.2222 29.4141 21.2255 29.4673L21.4568 33.2523C21.4601 33.3055 21.4469 33.3515 21.4172 33.3903C21.3872 33.4238 21.3455 33.4418 21.2922 33.4444L20.9087 33.4629ZM20.5436 28.5392C20.4904 28.5418 20.4441 28.528 20.4049 28.4979C20.3706 28.4622 20.3519 28.4177 20.3486 28.3644L20.3223 27.9332C20.319 27.88 20.3324 27.8367 20.3624 27.8032C20.3974 27.7641 20.4416 27.7433 20.4948 27.7407L20.9982 27.7164C21.0515 27.7138 21.0953 27.7304 21.1295 27.7661C21.1687 27.7962 21.19 27.8379 21.1933 27.8912L21.2196 28.3224C21.2229 28.3756 21.207 28.4217 21.172 28.4608C21.142 28.4943 21.1003 28.5123 21.047 28.5149L20.5436 28.5392Z" fill="black"/>
<path d="M25.2346 33.2602C24.9371 33.2866 24.6892 33.2523 24.4908 33.1574C24.2918 33.0573 24.1382 32.9076 24.0301 32.7084C23.9214 32.504 23.851 32.2586 23.8189 31.9724L23.584 29.8735L22.9624 29.9285C22.9093 29.9332 22.8623 29.9213 22.8216 29.8928C22.7856 29.8585 22.7646 29.8149 22.7586 29.7619L22.7284 29.4916C22.7225 29.4386 22.7336 29.3947 22.762 29.3601C22.795 29.3197 22.8381 29.2972 22.8912 29.2925L23.5128 29.2375L23.3641 27.9098C23.3582 27.8568 23.3694 27.813 23.3977 27.7783C23.4308 27.7379 23.4738 27.7154 23.527 27.7107L23.9015 27.6775C23.9546 27.6728 23.9992 27.6876 24.0352 27.7219C24.076 27.7504 24.0993 27.7912 24.1052 27.8442L24.2539 29.1719L25.242 29.0844C25.2951 29.0797 25.3397 29.0945 25.3757 29.1288C25.4165 29.1573 25.4398 29.1981 25.4458 29.2511L25.476 29.5214C25.482 29.5744 25.4684 29.6211 25.4354 29.6615C25.4071 29.6961 25.3663 29.7158 25.3132 29.7205L24.3251 29.8079L24.5538 31.8512C24.5817 32.1003 24.6461 32.2926 24.7472 32.4282C24.8482 32.5638 25.0076 32.6219 25.2254 32.6027L25.7115 32.5596C25.7646 32.5549 25.8092 32.5697 25.8452 32.604C25.886 32.6325 25.9093 32.6733 25.9153 32.7263L25.9473 33.0125C25.9532 33.0655 25.9397 33.1122 25.9067 33.1526C25.8783 33.1872 25.8376 33.2069 25.7845 33.2116L25.2346 33.2602Z" fill="black"/>
<circle cx="24.5" cy="12.5" r="11.5" stroke="url(#paint1_linear_859_1433)" stroke-width="2"/>
<defs>
<linearGradient id="paint0_linear_859_1433" x1="25" y1="5" x2="25" y2="22" gradientUnits="userSpaceOnUse">
<stop stop-color="#FF7937"/>
<stop offset="1" stop-color="#FF9225"/>
</linearGradient>
<linearGradient id="paint1_linear_859_1433" x1="24.5" y1="0" x2="24.5" y2="25" gradientUnits="userSpaceOnUse">
<stop stop-color="#FF485A"/>
<stop offset="1" stop-color="#FF8A2B"/>
</linearGradient>
</defs>
</svg>
