<svg id="_ëîé_1" data-name="—ëîé_1" xmlns="http://www.w3.org/2000/svg" xmlns:xlink="http://www.w3.org/1999/xlink" viewBox="0 0 3250.45 2982.34"><defs><style>.cls-1{fill:#f2e9e1;}.cls-2{clip-path:url(#clip-path);}.cls-3{fill:#f0b976;}.cls-4{fill:#dba465;}.cls-5{fill:#242424;}.cls-6{fill:#5e361c;}.cls-7{fill:#fff;}</style><clipPath id="clip-path"><circle class="cls-1" cx="1625.22" cy="1491.17" r="1280.41"/></clipPath></defs><circle class="cls-1" cx="1625.22" cy="1491.17" r="1280.41"/><g class="cls-2"><path class="cls-3" d="M1079.74,1328c-19.7-11.25-45.06.86-42.54,20.31l23.94,184.83c4.65,35.87,41.11,64.28,84.07,65.49h0l-44.71-258.77Z"/><path class="cls-3" d="M2143.3,1319.73l-20.76,11.86-44.71,258.77c43-1.21,79.42-29.62,84.07-65.49L2185.85,1340C2188.36,1320.59,2163,1308.48,2143.3,1319.73Z"/><path class="cls-4" d="M1424.61,2134.89c247.69,470.8,354.35,63.64,407.88,0V1964.18H1424.61Z"/><path class="cls-3" d="M2124.59,1189.32c-38.21-354.46-205.17-586.93-512.71-586.93s-474.5,232.47-512.71,586.93c-3.28,30.42-2,125.52-2,157-.23,80,29.46,218,44.94,278.77,9.35,36.7,191.55,419.87,469.81,419.87s460.46-383.17,469.81-419.87c15.49-60.72,45.18-198.81,44.95-278.77C2126.55,1314.84,2127.87,1219.74,2124.59,1189.32Z"/><path class="cls-5" d="M1922.15,2065.35h-89.66s-174.54,170.72-407.88,0H1294.26c-244.54,0-453.34,152.46-536.92,367.45,228.32,210.3,533.16,338.79,868.05,338.79,338,0,645.37-130.89,874.37-344.67C2413.81,2215.87,2163.77,2066.73,1922.15,2065.35Z"/><path class="cls-6" d="M2029.19,607.05q-6.75-3.88-13.53-7.3c-123.27-58.56-255.62-50.25-263.85-49.66-5.2-.88-10.18-1.55-15.31-2.37,5.06,1.32,10.21,2.39,15.25,3.79-69.19-3.8-137.62-7.19-205-3.5-16.89.54-33.47,3.18-50.18,4.25-16.43,2.56-33,4.45-49.07,8.22a369.78,369.78,0,0,0-92,30.25,236.36,236.36,0,0,0-123.08,131.7c-11.11,28.62-17.63,59.26-20.24,90.5l-6.81-4.44c-3-2.6-10.7-3.3-19.88-3-39.77,1.18-78.3,16.24-107.1,43.69-67.36,64.18-42,152.63-36.21,181.07,4.25,21.08,21.1,150.22,35.46,262.65,22.89,131.38,58,305.76,58,305.76,107.11-9,49.37-103.64,25.67-336.39-9-88.08,64.1-256.47,114.13-261s242.65,124.82,490.31-11.35c0,0,140-57,215.31,1.28a103.7,103.7,0,0,1,22.33,23.68,172.9,172.9,0,0,1,15.54,29.43c36.88,86.53,26,302,15.32,388.93-11.62,94.46-26.68,157.15,55.86,157.15,15.63-74.08,41.85-226.81,49.27-304,6-38.53,12.36-83.28,18.67-135,5-40.87,10.68-78.28,16.18-114.46,6.12-40.25,11.73-77.29,15.19-111.69C2202.3,796.89,2141,671.29,2029.19,607.05Z"/><path class="cls-6" d="M1800.27,1682.85c-42.71-34.16-152.21-27.56-171.72-26.09-19.51-1.47-129-8.07-171.72,26.09-47,37.58-98.63,44.62-129.16,35.23,0,0,97.6,76.85,212.61,32.52a245.5,245.5,0,0,1,176.54,0c115,44.33,212.61-32.52,212.61-32.52C1898.9,1727.47,1847.24,1720.43,1800.27,1682.85Z"/><path class="cls-6" d="M1489.49,1861l59.37,98.36a56.92,56.92,0,0,0,48.72,27.5H1656a56.9,56.9,0,0,0,50.24-30.2l50.85-95.66C1630,1931.26,1489.49,1861,1489.49,1861Z"/><path class="cls-7" d="M1294.26,2065.35c-35.8,24,295.86,228.39,295.86,228.39l38.43-152.58-203.94-110.95S1330.05,2041.34,1294.26,2065.35Z"/><path class="cls-7" d="M1962.84,2065c-35.79-24-130.35-35.14-130.35-35.14l-203.94,111L1667,2293.36S1998.64,2089,1962.84,2065Z"/></g></svg>