<svg id="_ëîé_1" data-name="—ëîé_1" xmlns="http://www.w3.org/2000/svg" xmlns:xlink="http://www.w3.org/1999/xlink" viewBox="0 0 3250.45 2982.34"><defs><style>.cls-1{fill:#f2e9e1;}.cls-2{clip-path:url(#clip-path);}.cls-3{fill:#f0b976;}.cls-4{fill:#dba465;}.cls-5{fill:#5e361c;}.cls-6{fill:#1287e8;}.cls-7{fill:#083d69;}</style><clipPath id="clip-path"><circle class="cls-1" cx="1697.38" cy="1491.17" r="1351.66" transform="translate(-557.27 1636.98) rotate(-45)"/></clipPath></defs><circle class="cls-1" cx="1697.38" cy="1491.17" r="1351.66" transform="translate(-557.27 1636.98) rotate(-45)"/><g class="cls-2"><path class="cls-3" d="M1132.8,1318c-20.8-11.87-47.57.91-44.91,21.45l25.27,195.11c4.91,37.87,43.4,67.85,88.75,69.14h0l-47.2-273.18Z"/><path class="cls-3" d="M2255.54,1309.24l-21.92,12.52-47.19,273.17c45.35-1.28,83.84-31.26,88.75-69.13l25.27-195.11C2303.11,1310.15,2276.34,1297.37,2255.54,1309.24Z"/><path class="cls-4" d="M1496.86,2169.76c261.47,497,374.07,67.19,430.57,0V1989.55H1496.86Z"/><path class="cls-3" d="M2235.79,1171.58C2195.45,797.39,2019.2,552,1694.55,552s-500.9,245.4-541.24,619.59c-3.46,32.11-2.07,132.5-2.16,165.74-.24,84.4,31.1,230.18,47.44,294.28,9.88,38.73,202.21,443.23,496,443.23s486.08-404.5,496-443.23c16.35-64.1,47.69-209.88,47.45-294.28C2237.85,1304.08,2239.25,1203.69,2235.79,1171.58Z"/><path class="cls-5" d="M1252.8,1743.09s109.77,188.93,230.27,266.2c111.54,71.52,302.73,110.78,460.59-23.47,96.58-82.14,148.43-162.35,196.8-251.51C2140.46,1734.31,1758.82,2234.16,1252.8,1743.09Z"/><path class="cls-5" d="M1933.81,497.59A429.68,429.68,0,0,0,1756.26,464s44.08-182.37-79.35-180.85c-121.73,1.5-77.53,181.71-77.53,181.71q-5.78.87-11.42,1.81c-207.59,34.46-370.2,198-406.31,405.27-19.7,113.14-39.26,266-35.43,412.85.64,24.37,2.53,48.69,5.44,72.89l14.42,119.57,56.54-190.37q1.61-6.84,3.3-13.6c32.36-130,92.88-251.32,175.44-356.83l35.53-45.4c48.17,15.33,145.16,40.47,257.66,39.82,112.5.65,209.48-24.49,257.66-39.82l35.53,45.4c82.56,105.51,143.08,226.83,175.44,356.83q1.68,6.77,3.3,13.6l38.67,199.5,25.58-113.09A504.3,504.3,0,0,0,2243.19,1270c2.51-161.47-22.21-328.44-43.44-440.29C2171.67,681.7,2072.78,555.68,1933.81,497.59Z"/><path class="cls-6" d="M1927.43,2096.36s-184.24,180.21-430.57,0H1359.25l352.89,507.88,341.18-506.84c-10.42-.57-20.84-1-31.24-1Z"/><path class="cls-7" d="M2053.32,2097.4l-341.18,506.84-352.89-507.88c-258.14,0-478.56,160.94-566.79,387.89,241,222,562.83,357.64,916.35,357.64,356.8,0,681.28-138.18,923-363.84C2544.8,2264.33,2298.39,2110.85,2053.32,2097.4Z"/></g></svg>