<svg id="_ëîé_1" data-name="—ëîé_1" xmlns="http://www.w3.org/2000/svg" xmlns:xlink="http://www.w3.org/1999/xlink" viewBox="0 0 3250.45 2982.34"><defs><style>.cls-1{fill:#f2e9e1;}.cls-2{clip-path:url(#clip-path);}.cls-3{fill:#dba465;}.cls-4{fill:#ba293a;}.cls-5{fill:#eb3449;}.cls-6{fill:#47372c;}.cls-7{fill:#f0b976;}</style><clipPath id="clip-path"><circle class="cls-1" cx="1625.22" cy="1491.17" r="1333.63"/></clipPath></defs><circle class="cls-1" cx="1625.22" cy="1491.17" r="1333.63"/><g class="cls-2"><path class="cls-3" d="M1415.43,2165.06c257.52,489.48,368.42,66.17,424.06,0V1987.58H1415.43Z"/><path class="cls-4" d="M721.69,2474.79a1336.2,1336.2,0,0,0,285,200.68l407.4-582.7H1279.91C1025.67,2092.77,808.58,2251.27,721.69,2474.79Z"/><path class="cls-4" d="M1932.71,2092.77H1847.3l403.88,577.66a1337.25,1337.25,0,0,0,282.06-201.75C2443.88,2249.25,2183.92,2094.2,1932.71,2092.77Z"/><path class="cls-5" d="M1839.49,2092.77s-181.46,177.49-424.06,0h-1.34l-407.4,582.7c184.6,96.74,394.62,151.55,617.49,151.55,226.71,0,440.12-56.71,627-156.59L1847.3,2092.77Z"/><path class="cls-6" d="M2337.06,1089.9c-34.73-198.62-64.72-303.71-191.55-420.17-338.19-310.53-696-142.43-696-142.43s-196.27-9.92-349.89,151.56c-31.75,33.38-60.8,76.14-91.64,134.22-79.11,149-116.69,302-102.84,478,14.94,190,23.94,267,100.21,428,33.5,70.72,136.47,183,242.61,239,65,34.26,505.13,17.76,579.37,29.57l46.58,756.93s209-239.56,323.18-443.47c90.3-161.26,114-324.21,80.8-554.69C2250.89,1559.4,2369.56,1275.72,2337.06,1089.9Z"/><path class="cls-7" d="M2162.64,1317.56l-21.59,12.33-46.48,269c44.66-1.26,82.57-30.79,87.41-68.09l24.89-192.16C2209.49,1318.45,2183.12,1305.87,2162.64,1317.56Z"/><path class="cls-7" d="M2143.18,1182c-39.72-368.53-213.31-610.21-533-610.21S1116.81,813.45,1077.08,1182c-3.41,31.63-2,130.5-2.12,163.23-.24,83.12,30.62,226.7,46.72,289.83,9.73,38.15,199.15,436.53,488.46,436.53s478.72-398.38,488.45-436.53c16.09-63.13,47-206.71,46.72-289.83C2145.22,1312.48,2146.6,1213.61,2143.18,1182Z"/><path class="cls-6" d="M1552.48,571.77l-246.82,17.62L1115.19,932,936.07,1216.16l90.19,178.43,54.57-58.23s33.5-56.33,62.72-201.94c26.09-130,89-229.64,331.93-319.66,212-78.54,167.54-225.37,167.54-225.37Z"/><path class="cls-7" d="M1056.88,1326.16c-20.48-11.7-46.85.89-44.23,21.12l24.89,192.16c4.83,37.29,42.74,66.82,87.4,68.09h0l-46.49-269Z"/><path class="cls-6" d="M1589.8,525.59,1480.56,704.73s-15.28,128.56,153.74,198.86c37.14,15.45,72.64,34.62,104.94,58.59,100.46,74.52,262.87,242.93,306.41,571.82l110.61-203.53a825.7,825.7,0,0,0,69.06-169.62L2267,1013.53,1927.73,583Z"/></g></svg>