<svg width="40" height="42" viewBox="0 0 40 42" fill="none" xmlns="http://www.w3.org/2000/svg">
<path d="M6.20491 41.2053C5.76376 41.0132 5.59727 40.6742 5.60578 40.1978C5.62644 38.7054 5.62401 37.2131 5.63008 35.7207C5.90231 35.7207 6.17453 35.728 6.44675 35.7292L10.5301 35.7499C10.5301 37.2422 10.5301 38.735 10.5301 40.2282C10.5301 40.6778 10.3636 41.0193 9.93581 41.2004L6.20491 41.2053Z" fill="#77B9F4"/>
<path d="M9.94141 41.2058C10.3692 41.0199 10.5369 40.6784 10.5357 40.2336C10.5357 38.7412 10.5357 37.2485 10.5357 35.7553C10.5427 35.7412 10.5472 35.726 10.549 35.7103C11.1101 35.7601 11.6742 35.7638 12.2359 35.7213L12.265 38.3037C12.265 38.8944 12.2359 39.4862 12.2541 40.0768C12.2687 40.5508 12.1605 40.9457 11.7388 41.2107L9.94141 41.2058Z" fill="#1B86D9"/>
<path d="M7.60942 24.4608C7.60942 21.4737 7.61671 18.4853 7.60942 15.4981C7.60213 12.511 8.49293 9.80577 10.3961 7.49188C12.4122 5.04188 15.0141 3.5641 18.1641 3.09865C18.6049 3.01483 19.0523 2.9705 19.5009 2.96619C19.6224 3.24084 19.8752 3.07799 20.0599 3.11688C21.4235 3.40855 22.7396 3.8108 23.961 4.50594C25.3646 5.30681 26.6224 6.27053 27.6068 7.56966C27.715 7.71306 27.907 7.81271 27.8705 8.03632C27.6943 8.16393 27.3844 8.1773 27.4318 8.50178C27.4731 8.78737 27.7405 8.78372 27.9422 8.85907C28.2764 8.9806 28.6264 9.07539 28.9145 9.30264C28.7771 9.45212 28.9351 9.55542 28.9874 9.65994C29.8901 11.4346 30.3532 13.4002 30.3375 15.3912C30.323 18.0648 30.3375 20.7384 30.3375 23.412L29.8757 23.6405C29.2438 23.8009 28.7091 24.0914 28.5487 24.7816C28.3919 25.45 28.703 25.9459 29.1964 26.3712C29.5889 26.7103 29.9523 27.0809 30.329 27.4382C30.2117 28.5952 29.9175 29.7272 29.4565 30.7948C29.2426 31.27 28.9327 31.6905 28.7467 32.1766C27.9929 31.5647 27.1002 31.1473 26.1473 30.9613C25.3622 30.7912 24.5881 30.5676 23.8042 30.3877C23.4943 30.316 23.3691 30.1568 23.3728 29.8433C23.3837 29.0473 23.3874 28.2513 23.3728 27.4552C23.3728 27.2122 23.4554 27.0907 23.662 26.9618C26.2336 25.4039 27.8304 23.1216 28.6131 20.2426C28.6775 19.9995 28.8209 19.7334 28.7601 19.5268C28.6872 19.2837 28.325 19.3056 28.1002 19.1853C27.7036 18.98 27.3229 18.7452 26.9615 18.4829C26.7926 18.3613 26.6662 18.1754 26.4584 18.1037C26.0573 17.6297 25.6356 17.1728 25.3148 16.6344C24.4714 15.2223 24.0327 13.6801 23.8261 12.0625C23.7763 11.6773 23.7398 11.2921 23.6985 10.9056C22.9949 12.2611 22.1191 13.52 21.0929 14.6511C19.5013 16.4566 17.5859 17.9483 15.4455 19.0492C14.24 19.6706 12.9466 20.1042 11.6101 20.3349C11.4327 20.3653 11.316 20.3811 11.3914 20.6327C11.9583 22.551 13.0263 24.2835 14.4855 25.6518C15.104 26.2363 15.8223 26.6823 16.5186 27.1526C16.5186 27.7522 16.5186 28.3513 16.5186 28.95C16.5186 29.2599 16.5028 29.5698 16.5113 29.8785C16.5198 30.1592 16.408 30.3184 16.1261 30.3756C15.8235 30.4375 15.5245 30.5153 15.2268 30.598C13.9568 30.9492 12.6151 31.0841 11.4947 31.8752C11.4947 30.5214 11.4947 29.1688 11.4862 27.815C11.4862 27.6315 11.5336 27.4431 11.4485 27.2657C11.3969 26.9446 11.247 26.6474 11.0195 26.415C10.1205 25.4163 8.92556 24.7315 7.60942 24.4608V24.4608Z" fill="#606572"/>
<path d="M11.4911 31.8762C12.6164 31.0912 13.9532 30.9502 15.2232 30.5941C15.5209 30.5115 15.8199 30.4337 16.1225 30.3717C16.4044 30.3146 16.5162 30.1554 16.5077 29.8747C16.4992 29.566 16.5077 29.2561 16.515 28.9462C16.6888 28.9316 16.8225 29.0361 16.9671 29.1042C18.3501 29.7519 19.7841 30.012 21.2947 29.6498C21.5487 29.5891 21.6824 29.6316 21.6593 29.9221C21.6338 30.1882 21.748 30.3195 22.0239 30.3839C22.9961 30.6123 23.9768 30.8445 24.9405 31.113C26.8352 31.6502 28.0431 32.8691 28.4648 34.8111C28.7079 35.9535 28.6532 37.1275 28.7589 38.2844H12.253L12.2239 35.7019C12.2285 35.6972 12.2317 35.6913 12.2332 35.6849C12.2347 35.6785 12.2344 35.6718 12.2324 35.6655C12.2637 35.3422 12.2637 35.0166 12.2324 34.6933L12.2214 34.5717C12.2214 34.3615 12.2324 34.1512 12.2324 33.941C12.2324 33.2288 12.1109 33.0502 11.457 32.8254C11.468 32.513 11.4789 32.1946 11.4911 31.8762Z" fill="#F8C194"/>
<path d="M28.7635 38.2945C28.6577 37.1376 28.7173 35.9636 28.4694 34.8212C28.0489 32.8768 26.8409 31.6615 24.9451 31.1231C23.9813 30.8497 23.0006 30.6176 22.0284 30.394C21.7537 30.3296 21.6395 30.1983 21.6638 29.9322C21.6905 29.6417 21.5569 29.5992 21.2992 29.66C19.7886 30.0245 18.3546 29.762 16.9716 29.1143C16.827 29.0462 16.6933 28.9417 16.5195 28.9563C16.5195 28.3576 16.5195 27.7584 16.5195 27.1589C16.8039 27.2804 17.0907 27.402 17.3702 27.5235C18.6621 28.108 19.9223 28.1567 21.2166 27.4676C22.9095 26.5646 24.1332 25.2181 25.0216 23.5544C25.9173 21.8735 26.4083 20.0067 26.4556 18.1027C26.6635 18.1744 26.7898 18.3567 26.9588 18.4818C27.3202 18.7442 27.7008 18.979 28.0975 19.1843C28.3223 19.3058 28.6845 19.2778 28.7574 19.5258C28.8181 19.7323 28.6747 20.0021 28.6103 20.2415C27.8277 23.1205 26.2308 25.4028 23.6593 26.9608C23.4527 27.0823 23.364 27.2039 23.3701 27.4542C23.3871 28.2502 23.3834 29.0462 23.3701 29.8422C23.3701 30.1558 23.4916 30.315 23.8015 30.3867C24.5853 30.5666 25.3595 30.7902 26.1445 30.9603C27.0975 31.1463 27.9902 31.5636 28.744 32.1756C29.0996 32.5436 29.4248 32.9399 29.7162 33.3605C30.4891 34.837 30.3628 36.4594 30.4819 38.0429C30.4964 38.2313 30.4393 38.3164 30.2388 38.3115C29.7551 38.2994 29.2593 38.2994 28.7635 38.2945Z" fill="#E7A26A"/>
<path d="M30.3333 23.4143C30.3333 20.7407 30.3175 18.0671 30.3333 15.3935C30.349 13.4025 29.8859 11.4369 28.9831 9.66222C28.9309 9.55771 28.7729 9.45441 28.9102 9.30493C28.9819 9.3499 29.0585 9.39122 29.1265 9.44226C29.7184 9.89556 29.9651 10.553 30.168 11.2324C30.2191 11.4025 30.3017 11.5313 30.4889 11.541C30.6967 11.552 30.789 11.4122 30.8534 11.2336C30.958 10.9225 31.0139 10.5895 31.2277 10.3221C31.891 11.7528 32.2447 13.3074 32.2656 14.8843C32.2935 17.5056 32.279 20.127 32.2814 22.7483L30.9592 23.2344L30.3333 23.4143Z" fill="#3C4354"/>
<path d="M30.9513 23.2355L32.2735 22.7494C32.4606 22.6838 32.6381 22.5877 32.8471 22.6011C33.0573 22.7895 33.1509 23.0435 33.2554 23.295C33.5459 23.989 33.5702 24.7424 33.7476 25.4607C33.8692 25.9565 34.0988 26.0938 34.5789 25.9553C34.7004 26.0622 34.653 26.2068 34.6567 26.3369C34.6846 27.2094 34.5351 28.0772 34.5801 28.9509L34.2228 29.1223C33.7488 29.335 33.1898 29.3593 32.8082 29.7713C32.6089 29.4468 32.299 29.2402 32.0001 29.0239C31.5018 28.4332 30.9063 27.9471 30.329 27.444C29.9523 27.0867 29.5889 26.7148 29.1964 26.377C28.703 25.9516 28.3919 25.4558 28.5487 24.7874C28.7091 24.0971 29.2438 23.8067 29.8758 23.6463C30.0422 24.7825 30.6572 25.7195 31.2369 26.6711C31.3086 26.7965 31.4265 26.889 31.5654 26.9289C31.7042 26.9688 31.8532 26.9531 31.9806 26.885C32.2686 26.7136 32.3452 26.445 32.1884 26.1133C32.1204 25.9686 32.0353 25.8301 31.9539 25.6916C31.5006 24.9174 31.0315 24.153 30.9513 23.2355Z" fill="#FCE7A0"/>
<path d="M6.38672 32.8362V25.3756C6.65286 25.5336 6.72214 25.8471 6.92995 26.0598C7.72672 26.8675 8.7113 27.465 9.79557 27.7989C9.79557 29.4784 9.79233 31.1575 9.78585 32.8362H6.38672Z" fill="#FE776F"/>
<path d="M31.2269 10.3195C31.013 10.5868 30.9571 10.9198 30.8526 11.2309C30.7918 11.4096 30.6995 11.5493 30.488 11.5384C30.3009 11.5287 30.2182 11.3999 30.1672 11.2297C29.9642 10.5504 29.7175 9.89291 29.1257 9.43961C29.0576 9.38857 28.9811 9.34725 28.9094 9.30228C28.6201 9.07503 28.2701 8.98388 27.9372 8.85871C27.7354 8.78336 27.4681 8.78701 27.4267 8.50142C27.3793 8.17694 27.6892 8.16357 27.8642 8.03596C28.4221 7.91444 28.958 7.75159 29.2934 7.22781C29.754 7.01635 29.8148 6.53267 30.0226 6.14985C30.0893 6.00326 30.1407 5.85012 30.1757 5.69291C30.2219 5.52642 30.2972 5.37451 30.4856 5.37329C30.6958 5.37329 30.8125 5.49482 30.8672 5.70992C30.9298 5.92376 31.0032 6.13428 31.0872 6.34065C31.4214 7.23753 32.1031 7.74551 32.9854 8.02624C33.0316 8.04204 33.0827 8.04326 33.13 8.05905C33.3439 8.12711 33.6004 8.18666 33.5967 8.4601C33.5931 8.73353 33.3306 8.78336 33.1179 8.85142C32.3122 9.11148 31.5623 9.44812 31.2269 10.3195Z" fill="#FCE7A0"/>
<path d="M9.77818 27.8002C8.69415 27.467 7.70959 26.8703 6.91255 26.0635C6.70474 25.8509 6.63547 25.5373 6.36932 25.3793C6.21984 24.7292 6.5747 24.3634 7.38651 24.4387C7.46064 24.4448 7.53356 24.4557 7.60647 24.4642C8.9228 24.7365 10.1174 25.423 11.0153 26.4233C11.2425 26.6559 11.3923 26.953 11.4443 27.274C11.3957 27.7029 11.2146 27.8731 10.7747 27.912C10.4344 27.9351 10.1075 27.8573 9.77818 27.8002Z" fill="#FD9794"/>
<path d="M36.8328 37.4702C35.9372 37.5091 35.349 37.2028 35.0512 36.4336C34.5651 35.1758 34.1288 33.8997 33.6719 32.631L35.4741 32.0002C35.5957 32.0865 35.6139 32.2275 35.6589 32.3539C36.0161 33.3443 36.3613 34.3397 36.738 35.3216C37.0115 36.0337 37.1755 36.7374 36.8328 37.4702Z" fill="#FC7BA2"/>
<path d="M29.2898 7.2289C28.958 7.75269 28.4184 7.90946 27.8606 8.03706C27.8983 7.81102 27.7063 7.7138 27.5981 7.57039C26.6174 6.27126 25.3595 5.30755 23.9523 4.50668C22.737 3.81154 21.4148 3.41293 20.0512 3.11762C19.8665 3.07873 19.6137 3.23914 19.4922 2.96692C23.2243 2.87091 26.3719 4.19071 28.9568 6.87525C29.0722 6.99071 29.1804 7.11102 29.2898 7.2289Z" fill="#3C4354"/>
<path d="M34.5921 28.9472C34.5447 28.0734 34.6966 27.2057 34.6687 26.3331C34.6687 26.2031 34.7148 26.0585 34.5909 25.9515C34.8339 25.7243 34.9555 25.4788 34.8339 25.1312C34.7645 24.8852 34.7149 24.6341 34.6857 24.3802C34.8057 24.0339 34.7909 23.6551 34.6444 23.3192C34.5933 23.1977 34.6055 22.9717 34.3685 22.9777C34.2166 22.7171 34.0943 22.4403 34.0039 22.1526C34.5508 21.8572 35.1086 21.7673 35.653 22.1343C35.8672 22.2658 36.0408 22.4538 36.1549 22.6777C36.269 22.9016 36.319 23.1526 36.2996 23.4031C36.2704 23.8357 36.1878 24.2647 36.1343 24.6949C35.9682 26.0366 35.8029 27.3787 35.6385 28.7211C35.2532 28.6567 34.9409 28.8925 34.5921 28.9472Z" fill="#FCCA68"/>
<path d="M30.3323 27.4347C30.9083 27.9402 31.505 28.4264 32.0033 29.0146C31.6352 30.636 30.8487 32.1326 29.7222 33.3555C29.4307 32.9349 29.1056 32.5386 28.75 32.1706C28.9359 31.6845 29.2458 31.264 29.4597 30.7889C29.9205 29.722 30.2148 28.5908 30.3323 27.4347V27.4347Z" fill="#3C4354"/>
<path d="M6.37596 32.8372H9.77874C9.79435 32.8433 9.80785 32.8539 9.81763 32.8675C10.339 33.0194 10.5237 33.2662 10.531 33.824C10.531 34.067 10.531 34.3101 10.531 34.5531V34.5726H5.62006C5.62006 34.3635 5.60548 34.1545 5.60548 33.9443C5.60426 33.226 5.71364 33.0693 6.37596 32.8372Z" fill="#77B9F4"/>
<path d="M36.8262 37.4689C37.1701 36.7397 37.0049 36.0324 36.7326 35.3203C36.3559 34.3383 36.0108 33.343 35.6535 32.3526C35.6085 32.231 35.5903 32.0852 35.4688 31.9989C35.4755 31.979 35.4812 31.9587 35.4858 31.9382C35.9597 31.8579 36.3851 31.6343 36.8347 31.4824C37.3476 32.7852 37.8556 34.0928 38.2602 35.4333C38.5458 36.3848 37.8215 37.3656 36.8262 37.4689Z" fill="#E8498E"/>
<path d="M5.62846 34.5731H10.5406C10.5406 34.9499 10.5406 35.3266 10.5406 35.7033C10.5387 35.719 10.5342 35.7342 10.5272 35.7483L6.44391 35.7276C6.17169 35.7276 5.89946 35.7276 5.62724 35.7191C5.59781 35.3377 5.59822 34.9545 5.62846 34.5731V34.5731Z" fill="#606572"/>
<path d="M33.9768 22.1504C34.0672 22.4382 34.1895 22.715 34.3414 22.9756C34.5003 23.4294 34.6067 23.9 34.6586 24.378C34.6878 24.6319 34.7374 24.8831 34.8069 25.129C34.9284 25.4766 34.8069 25.7221 34.5638 25.9493C34.0838 26.0879 33.8553 25.9493 33.7325 25.4547C33.5551 24.7365 33.5308 23.983 33.2404 23.2891C33.1358 23.0375 33.0423 22.7836 32.832 22.5952C33.1813 22.3744 33.5701 22.2233 33.9768 22.1504Z" fill="#DCA84C"/>
<path d="M32.8156 29.7679C33.1972 29.3559 33.7563 29.3316 34.2302 29.1189C34.4525 29.2547 34.6202 29.4641 34.7042 29.7107C34.8427 30.1045 34.9788 30.4995 35.1161 30.8944C35.1041 30.9153 35.0939 30.9373 35.0858 30.96C34.4599 31.0998 33.8839 31.3854 33.275 31.5774C33.1316 31.1873 32.9931 30.7948 32.8424 30.4083C32.7503 30.2065 32.7407 29.9767 32.8156 29.7679V29.7679Z" fill="#FC7BA2"/>
<path d="M35.1125 30.8929C34.9752 30.498 34.8391 30.103 34.7005 29.7093C34.6166 29.4626 34.4489 29.2532 34.2266 29.1174L34.5839 28.9461C34.9326 28.8853 35.245 28.6556 35.6217 28.72C35.7206 28.7699 35.8082 28.8397 35.8789 28.9251C35.9495 29.0104 36.0018 29.1094 36.0325 29.2159C36.1686 29.623 36.3156 30.0264 36.4578 30.4311L35.1125 30.8929Z" fill="#E8498E"/>
<path d="M33.2734 31.5757C33.8811 31.3837 34.4583 31.0981 35.0854 30.9584C35.3127 31.2464 35.3759 31.6025 35.4889 31.9379C35.4843 31.9584 35.4787 31.9787 35.4719 31.9987L33.6684 32.6294C33.5048 32.291 33.3726 31.9383 33.2734 31.5757V31.5757Z" fill="#606572"/>
<path d="M35.4816 31.9411C35.3686 31.6057 35.3054 31.2497 35.0781 30.9616C35.0853 30.9387 35.0951 30.9167 35.1073 30.896L36.4526 30.4342C36.6176 30.7693 36.7444 31.122 36.8306 31.4854C36.3809 31.6373 35.9556 31.8609 35.4816 31.9411Z" fill="#3C4354"/>
<path d="M10.5352 35.7041C10.5352 35.3274 10.5352 34.9506 10.5352 34.5739V34.5544L12.2293 34.5775L12.2402 34.6991C12.1486 35.0167 12.1486 35.3537 12.2402 35.6713C12.2422 35.6776 12.2425 35.6843 12.241 35.6907C12.2395 35.6971 12.2363 35.703 12.2317 35.7077C11.667 35.7532 11.0996 35.752 10.5352 35.7041V35.7041Z" fill="#3C4354"/>
<path d="M26.4641 18.0995C26.4168 20.0036 25.9258 21.8703 25.0301 23.5512C24.1405 25.2149 22.9179 26.5615 21.225 27.4644C19.9356 28.1535 18.6729 28.1049 17.3787 27.5203C17.0967 27.3988 16.8099 27.2773 16.528 27.1557C15.828 26.6854 15.1134 26.2394 14.4948 25.6549C13.0337 24.2849 11.9647 22.5497 11.3983 20.6285C11.3229 20.3769 11.4396 20.3611 11.617 20.3307C12.9533 20.1011 14.2467 19.6687 15.4524 19.0486C17.5928 17.9462 19.5078 16.4528 21.0986 14.6457C22.1244 13.5165 23.0002 12.2596 23.7042 10.9062C23.7455 11.2927 23.782 11.678 23.8318 12.0632C24.0384 13.6807 24.4771 15.2229 25.3205 16.6351C25.6413 17.1686 26.063 17.6255 26.4641 18.0995Z" fill="#F8C194"/>
<path d="M9.78316 27.798C10.1125 27.8576 10.4394 27.9354 10.7797 27.905C11.2196 27.8661 11.4007 27.696 11.4493 27.267C11.5344 27.4456 11.4858 27.6316 11.487 27.8175C11.4943 29.1713 11.4943 30.5239 11.4955 31.8777C11.4833 32.1961 11.4724 32.5145 11.4602 32.8329L9.81233 32.8658C9.80255 32.8521 9.78905 32.8416 9.77344 32.8354C9.77749 31.1542 9.78073 29.4751 9.78316 27.798Z" fill="#D53630"/>
<path d="M30.9583 23.2338C31.0385 24.1537 31.5076 24.9157 31.9609 25.6838C32.0424 25.8223 32.1274 25.9608 32.1955 26.1055C32.3523 26.4372 32.2757 26.7058 31.9877 26.8772C31.8602 26.9453 31.7113 26.961 31.5724 26.9211C31.4335 26.8812 31.3157 26.7887 31.2439 26.6633C30.6642 25.7117 30.0493 24.7747 29.8828 23.6385L30.3373 23.4136L30.9583 23.2338Z" fill="#DCA84C"/>
<path d="M9.80859 32.8637L11.4565 32.8309C12.1079 33.0558 12.2319 33.2344 12.2319 33.9466C12.2319 34.1568 12.2246 34.367 12.2209 34.5773L10.5268 34.5542C10.5268 34.3111 10.5268 34.0681 10.5268 33.825C10.5147 33.2672 10.3299 33.0157 9.80859 32.8637Z" fill="#1B86D9"/>
<path d="M12.2367 35.6779C12.1451 35.3603 12.1451 35.0233 12.2367 34.7057C12.2681 35.029 12.2681 35.3546 12.2367 35.6779Z" fill="#606572"/>
<path d="M34.6766 24.3794C34.6247 23.9013 34.5182 23.4308 34.3594 22.9769C34.6024 22.9709 34.5842 23.1908 34.6352 23.3184C34.7818 23.6543 34.7966 24.0331 34.6766 24.3794V24.3794Z" fill="#FCE7A0"/>
</svg>
