<svg width="52" height="52" viewBox="0 0 52 52" fill="none" xmlns="http://www.w3.org/2000/svg">
<path d="M39.6561 37.5795C39.3913 38.5714 38.7557 39.3201 38.0528 40.0255L23.2159 40.0315C23.181 39.8124 22.9571 39.7739 22.838 39.6355C21.9932 38.6923 21.4386 37.5253 21.2406 36.2747C21.2142 36.1002 21.2009 35.9232 21.1805 35.7463C21.1046 34.8098 21.0119 33.8745 20.9554 32.9357C20.8615 31.354 20.5834 29.7916 20.4546 28.2123C20.4269 27.8801 20.498 27.7862 20.8482 27.7886C22.9222 27.8019 24.9974 27.7886 27.0726 27.7886C28.3714 27.7886 29.669 27.7995 30.9678 27.8007C34.111 27.8007 37.2547 27.7987 40.3988 27.7946C40.7069 27.7946 40.8418 27.8657 40.808 28.1943C40.7804 28.4699 40.8249 28.7528 40.7262 29.0224C40.7358 29.8421 40.5468 30.6486 40.5745 31.4695C40.5523 31.4702 40.5304 31.4755 40.5103 31.4852C40.4902 31.4949 40.4725 31.5087 40.4581 31.5257C40.4438 31.5428 40.4333 31.5627 40.4272 31.5841C40.4211 31.6056 40.4196 31.6281 40.4229 31.6501C40.4227 31.9897 40.3978 32.3288 40.3482 32.6648C40.2616 33.4894 40.2447 34.3199 40.1147 35.1396C40.1593 35.5838 40.0654 36.0232 40.0148 36.4637C39.9703 36.8332 39.9631 37.2666 39.6561 37.5795Z" fill="#E9E8E3"/>
<path d="M27.0742 27.7851C24.999 27.7851 22.9238 27.8019 20.8499 27.7851C20.4996 27.7851 20.4286 27.8765 20.4563 28.2088C20.585 29.788 20.8631 31.3504 20.957 32.9321C21.0136 33.871 21.1063 34.8063 21.1833 35.7439C19.2453 35.7439 17.3078 35.7439 15.3706 35.7439C13.293 35.7439 11.2158 35.7476 9.13903 35.7548C8.42523 35.7211 8.43968 35.7199 8.36986 34.9808C8.19533 33.1319 8.08097 31.2746 7.80412 29.4438C7.51884 27.56 7.42496 25.6605 7.16736 23.7755C7.13968 23.5769 7.18662 23.4987 7.39847 23.5107C7.63921 23.5239 7.87995 23.5107 8.1207 23.5023C8.2856 23.5023 8.45171 23.5143 8.61662 23.5143H25.9175C26.1209 23.5143 26.3255 23.5071 26.5289 23.5035C26.795 23.5035 27.061 23.5276 27.3258 23.5035C27.5906 23.4794 27.6002 23.6239 27.5497 23.8044C27.2981 24.6988 27.3222 25.6268 27.197 26.5356C27.1404 26.9545 27.1139 27.371 27.0742 27.7851Z" fill="#B1750A"/>
<path d="M23.2156 40.0316L38.0525 40.0255C39.858 40.0255 41.672 40.0352 43.4824 40.0255C43.7797 40.0255 43.9025 40.1002 43.8675 40.4095C43.8363 40.6864 43.8675 40.9656 43.8338 41.2461C43.6834 42.4281 42.4375 43.4609 41.3518 43.627C41.0508 43.6756 40.7466 43.7013 40.4418 43.7041C33.9538 43.7041 27.4659 43.7041 20.9779 43.7041C20.825 43.7041 20.6722 43.6968 20.5193 43.6932C20.3604 43.5319 20.1365 43.5235 19.9415 43.4525C18.9388 43.0709 18.0012 42.0309 18.0156 40.8754C18.0276 40.7103 18.0276 40.5445 18.0156 40.3794C17.9747 40.0845 18.095 40.0183 18.3767 40.0255C19.9812 40.0376 21.599 40.0304 23.2156 40.0316Z" fill="#CCCBC7"/>
<path d="M23.2156 40.0315C21.599 40.0315 19.9812 40.0375 18.3646 40.0231C18.0854 40.0231 17.965 40.0821 18.0035 40.377C18.0156 40.5421 18.0156 40.7078 18.0035 40.8729C17.9951 42.0285 18.9328 43.0685 19.9294 43.45C20.1244 43.5235 20.3483 43.5319 20.5072 43.6908C17.0301 43.6908 13.5526 43.694 10.0747 43.7004C9.89537 43.7004 9.80991 43.6739 9.79426 43.4597C9.65463 41.5434 9.515 39.6271 9.34528 37.712C9.2863 37.0608 9.15148 36.4144 9.125 35.7572C11.2026 35.7572 13.2798 35.7536 15.3566 35.7463C17.2945 35.7463 19.2321 35.7463 21.1693 35.7463C21.1885 35.9221 21.2018 36.099 21.2282 36.2736C21.4262 37.5242 21.9808 38.6911 22.8256 39.6343C22.9568 39.7739 23.1806 39.8124 23.2156 40.0315Z" fill="#037E2A"/>
<path d="M26.5288 23.5048C26.3254 23.5048 26.1208 23.5156 25.9174 23.5156H8.61893C8.45403 23.5156 8.28792 23.5072 8.12301 23.5036C8.02992 22.2854 7.93684 21.0673 7.84375 19.8491H26.8779C26.8442 21.0733 26.5638 22.2782 26.5288 23.5048Z" fill="#037E2A"/>
<path d="M26.8766 19.8467H7.84243C7.14308 19.8371 7.14308 19.8371 7.14308 19.1414C7.14308 18.6972 7.16715 18.2518 7.13585 17.8101C7.11178 17.4682 7.22854 17.343 7.56196 17.3948C7.65049 17.402 7.73946 17.402 7.82798 17.3948H26.8826C27.5687 17.4092 27.5687 17.4092 27.5687 18.117C27.5687 18.5467 27.5495 18.9789 27.5759 19.4086C27.5964 19.7468 27.5049 19.9117 27.1426 19.8515C27.0542 19.8427 26.9652 19.8411 26.8766 19.8467Z" fill="#CCCBC7"/>
<path d="M26.8825 17.3947H7.82422C7.99876 16.7086 8.19737 16.0273 8.3394 15.3352C8.40681 15.0054 8.55968 14.9452 8.8582 14.9464C12.2286 14.9544 15.5989 14.9544 18.9693 14.9464C19.1089 14.9464 19.2486 14.9464 19.3894 14.9391L21.8149 14.9488C21.8707 14.9584 21.9279 14.956 21.9827 14.9416C22.0376 14.9273 22.0887 14.9014 22.1326 14.8657C22.2434 14.9945 22.3938 14.944 22.5275 14.9452C23.6325 14.9452 24.7375 14.9536 25.8437 14.9452C26.1073 14.9452 26.2192 15.0282 26.2782 15.293C26.4252 16.0081 26.6272 16.7108 26.8825 17.3947Z" fill="#E9E8E3"/>
<path d="M39.6562 37.5795C39.968 37.2666 39.9704 36.8368 40.0174 36.4541C40.0679 36.0195 40.1618 35.5802 40.1173 35.13C40.7023 35.13 41.2873 35.13 41.8735 35.13C43.0338 35.1228 42.893 35.2949 43.1025 34.0274C43.2096 33.3786 43.2842 32.7214 43.4359 32.0834C43.5562 31.5947 43.4973 31.4635 42.9821 31.4611C42.1804 31.4611 41.3787 31.4611 40.5747 31.4611C40.547 30.6402 40.736 29.8337 40.7263 29.014C41.7459 29.014 42.7642 29.0248 43.7837 29.014C44.506 29.0043 45.162 29.1572 45.747 29.6062C45.9235 29.7302 46.0702 29.8917 46.1767 30.0793C46.4283 30.5607 46.7629 31.0506 46.5956 31.608C46.4331 32.146 46.3886 32.6913 46.3055 33.2366C46.1851 34.0491 46.0937 34.8712 45.9227 35.6741C45.7386 36.5431 45.15 37.1077 44.335 37.4206C43.9613 37.5484 43.5667 37.6039 43.1723 37.5843C42.0011 37.5735 40.8287 37.5807 39.6562 37.5795Z" fill="#CCCBC7"/>
<path d="M22.1339 14.8717C22.0899 14.9074 22.0388 14.9333 21.984 14.9476C21.9292 14.9619 21.8719 14.9644 21.8161 14.9548L19.3906 14.9451C19.5266 14.0821 19.9275 13.2985 20.1429 12.4607C20.4884 11.1125 21.0096 9.81254 21.3141 8.45717C21.3478 8.30671 21.4092 8.21643 21.5934 8.21643C22.4191 8.22726 23.2461 8.21643 24.1332 8.21643C23.9647 8.67625 23.8925 9.118 23.7107 9.55013C23.4784 10.1087 23.405 10.7298 23.2016 11.3027C22.8404 12.3271 22.5696 13.3755 22.3072 14.4324C22.2687 14.5961 22.0713 14.6851 22.1339 14.8717Z" fill="#B1750A"/>
<path d="M35.3744 23.938C35.3839 24.0892 35.3618 24.2406 35.3096 24.3828C35.2574 24.5249 35.1761 24.6547 35.0711 24.7638C34.8548 24.9613 34.7083 25.2235 34.6534 25.5113C34.5992 25.8724 34.273 25.9638 33.9492 25.9542C33.5628 25.9434 33.3257 25.7255 33.3149 25.3764C33.304 25.0274 33.3739 24.6783 33.676 24.4135C34.1033 24.0355 34.1093 23.7948 33.676 23.4096C33.2776 23.0485 33.2655 22.6127 33.3522 22.1553C33.4136 21.84 33.7927 21.6329 34.1226 21.6847C34.5102 21.7449 34.7088 21.9338 34.6847 22.3166C34.6642 22.6476 34.858 22.8535 35.0458 23.0388C35.307 23.3025 35.3732 23.601 35.3744 23.938Z" fill="#FEC867"/>
<path d="M31.9305 23.9536C31.9407 24.2505 31.8517 24.5423 31.6777 24.783C31.4923 25.0586 31.2504 25.2849 31.1541 25.6352C31.0686 25.9409 30.7496 26.0035 30.4523 25.9482C30.3109 25.9304 30.181 25.8609 30.0877 25.7531C29.9944 25.6454 29.9442 25.5069 29.9468 25.3644C29.9215 24.8829 30.1309 24.4977 30.4571 24.1739C30.6497 23.9837 30.6726 23.8622 30.4571 23.6575C30.2657 23.4868 30.1199 23.271 30.0328 23.0298C29.9458 22.7885 29.9204 22.5293 29.9588 22.2757C29.9643 22.1895 29.9872 22.1054 30.0261 22.0283C30.065 21.9512 30.119 21.8828 30.185 21.8271C30.251 21.7714 30.3276 21.7297 30.4102 21.7044C30.4927 21.6791 30.5795 21.6707 30.6654 21.6798C31.0265 21.7003 31.254 21.9206 31.2468 22.331C31.2497 22.4119 31.2691 22.4914 31.3039 22.5644C31.3386 22.6375 31.388 22.7027 31.449 22.756C31.7475 23.1026 31.9654 23.4794 31.9305 23.9536Z" fill="#FEC867"/>
</svg>
