<svg width="36" height="37" viewBox="0 0 36 37" fill="none" xmlns="http://www.w3.org/2000/svg">
<path d="M6.81382 17.5882C6.81382 15.3644 6.81382 13.1418 6.81382 10.9206C6.94593 10.9206 7.07012 10.9047 7.19827 10.9047L13.0297 10.8942C13.1028 10.9516 13.1725 11.0134 13.2384 11.0791C14.1489 12.115 15.3766 12.8206 16.7301 13.0859C18.0631 13.3752 19.3433 13.1942 20.5838 12.6539C21.5006 12.2576 22.2325 11.6115 22.9089 10.8955L26.5684 10.9219V36.5132H24.2446C24.5643 36.3533 24.6673 36.0957 24.666 35.7416C24.6541 33.826 24.666 31.9104 24.666 29.9948C24.888 29.9948 25.1112 29.9948 25.3266 29.979C25.6608 29.9605 25.855 29.7848 25.8643 29.4505C25.8775 28.6895 25.8735 27.9286 25.8643 27.1663C25.8687 27.1014 25.8602 27.0363 25.8391 26.9748C25.818 26.9132 25.7848 26.8565 25.7415 26.808C25.6981 26.7595 25.6455 26.7202 25.5867 26.6923C25.528 26.6644 25.4642 26.6486 25.3992 26.6458C25.2599 26.6286 25.1195 26.6207 24.9791 26.622C20.305 26.622 15.6314 26.622 10.9582 26.622C10.8293 26.6198 10.7005 26.6256 10.5724 26.6392C10.2765 26.6749 10.0941 26.8466 10.0902 27.1452C10.0783 27.918 10.073 28.6909 10.0902 29.4637C10.0968 29.794 10.3082 29.9671 10.6411 29.9763L11.3082 29.9908C11.3082 31.8642 11.3149 33.7388 11.3082 35.6122C11.3082 35.9715 11.3611 36.2807 11.6623 36.5079H7.09258C6.78079 36.1261 6.81911 35.673 6.82043 35.2238C6.82043 33.6217 6.82043 32.0188 6.82043 30.4149L6.8125 21.4644L6.81382 17.5882ZM23.3845 24.351C23.8403 24.351 24.2974 24.351 24.7532 24.351C25.209 24.351 25.4006 24.1621 25.4072 23.7116C25.4186 22.8 25.4186 21.8876 25.4072 20.9743C25.4072 20.529 25.1958 20.3454 24.7466 20.3441C23.8456 20.3441 22.9446 20.3441 22.0436 20.3441C21.6103 20.3441 21.4002 20.5238 21.3936 20.9478C21.3778 21.8849 21.3778 22.8212 21.3936 23.7565C21.4015 24.1661 21.609 24.3444 22.0185 24.351C22.4716 24.3563 22.9274 24.351 23.3845 24.351ZM23.3687 19.2291C23.8258 19.2291 24.2816 19.2291 24.7374 19.2291C25.2143 19.2291 25.3979 19.052 25.4085 18.5751C25.4199 17.675 25.4199 16.7744 25.4085 15.8734C25.4085 15.4269 25.1997 15.2248 24.7611 15.2221C23.8496 15.2142 22.9376 15.2142 22.0251 15.2221C21.6142 15.2221 21.4002 15.4124 21.3936 15.814C21.3769 16.7608 21.3769 17.7085 21.3936 18.657C21.4015 19.0534 21.6024 19.2211 21.9987 19.2277C22.4558 19.2357 22.9116 19.2291 23.3687 19.2291ZM17.9521 19.2291C18.4317 19.2291 18.9112 19.2357 19.3908 19.2291C19.7687 19.2291 19.9721 19.056 19.98 18.6808C19.9985 17.7217 19.9985 16.7625 19.98 15.8034C19.9721 15.4071 19.7647 15.2287 19.375 15.2248C18.4379 15.2151 17.5021 15.2151 16.5676 15.2248C16.1977 15.2248 15.985 15.4163 15.9771 15.7836C15.9586 16.7427 15.9586 17.7014 15.9771 18.6597C15.985 19.056 16.1871 19.2225 16.5848 19.2291C17.0432 19.2343 17.499 19.2291 17.9521 19.2291ZM14.5621 17.2144C14.5621 16.7586 14.5621 16.3015 14.5621 15.8457C14.5529 15.4177 14.3653 15.2261 13.9346 15.2221C13.0217 15.2129 12.1102 15.2142 11.1973 15.2221C10.7719 15.2221 10.5631 15.4177 10.5565 15.8444C10.5433 16.7683 10.5433 17.693 10.5565 18.6187C10.5565 19.0507 10.7587 19.2291 11.1933 19.2317C12.1058 19.237 13.0182 19.237 13.9307 19.2317C14.3851 19.2317 14.5555 19.052 14.5621 18.587C14.5688 18.122 14.5648 17.6702 14.5648 17.2144H14.5621ZM17.9865 20.3414C17.5307 20.3414 17.0736 20.3414 16.6178 20.3414C16.1858 20.3414 15.9797 20.5224 15.9718 20.9505C15.9568 21.8858 15.9568 22.8216 15.9718 23.7578C15.9797 24.1661 16.1898 24.3457 16.5993 24.3484C17.5118 24.3537 18.4242 24.3537 19.3366 24.3484C19.7911 24.3484 19.9708 24.1647 19.9747 23.7037C19.9809 22.8036 19.9809 21.903 19.9747 21.002C19.9747 20.5211 19.7924 20.3414 19.3142 20.3414C18.8769 20.3375 18.433 20.3414 17.9891 20.3414H17.9865ZM14.5621 22.3707C14.5621 21.9017 14.5621 21.434 14.5621 20.9663C14.5542 20.5317 14.3693 20.3454 13.9386 20.3428C13.027 20.3375 12.1146 20.3375 11.2012 20.3428C10.7706 20.3428 10.5645 20.5251 10.5579 20.9531C10.5433 21.8898 10.542 22.8251 10.5579 23.7605C10.5658 24.17 10.7745 24.3471 11.1867 24.3497C12.1 24.355 13.0125 24.355 13.924 24.3497C14.3745 24.3497 14.5542 24.1621 14.5608 23.7037C14.5674 23.2452 14.5648 22.8146 14.5648 22.3707H14.5621Z" fill="#F6EFEE"/>
<path d="M26.5664 36.5128V10.9215H29.165V21.4732C29.165 26.1051 29.165 30.7378 29.165 35.3713C29.165 35.7835 29.165 36.1785 28.885 36.5167L26.5664 36.5128Z" fill="#DCDADA"/>
<path d="M33.8815 36.514H30.7188V21.4995C31.917 21.4493 33.1166 21.4797 34.3161 21.4837C34.3069 21.6356 34.2897 21.7862 34.2897 21.9381C34.2897 26.5101 34.2897 31.0824 34.2897 35.6552C34.2937 36.0225 34.2078 36.3171 33.8815 36.514Z" fill="#A0A0A0"/>
<path d="M2.09733 36.447C1.88067 36.4166 1.78819 36.2673 1.72742 36.0771C1.69165 35.9293 1.67873 35.7769 1.68911 35.6252C1.68911 31.0648 1.68911 26.5043 1.68911 21.9438C1.68911 21.7932 1.6759 21.6413 1.66797 21.4893C2.86754 21.4801 4.06711 21.451 5.26668 21.5039V36.447L5.19666 36.5183H2.16999L2.09733 36.447Z" fill="#A0A0A0"/>
<path d="M11.6666 36.5131C11.3654 36.2859 11.3112 35.9768 11.3125 35.6174C11.3244 33.7441 11.3125 31.8694 11.3125 29.9961H16.087V36.4484C14.7553 36.4484 13.4241 36.4484 12.0933 36.4484C11.9704 36.4484 11.8291 36.4008 11.73 36.5171L11.6666 36.5131Z" fill="#01C0EB"/>
<path d="M5.26953 36.4473V21.4646H6.8192L6.82712 30.4151C6.82712 32.019 6.82712 33.6219 6.82712 35.224C6.82712 35.6732 6.78749 36.1263 7.09927 36.5081H5.26953V36.4473Z" fill="#878787"/>
<path d="M30.7112 21.4993V36.5124H28.8828C29.1589 36.1742 29.1642 35.7792 29.1629 35.367C29.1576 30.7343 29.1576 26.1016 29.1629 21.4689H30.7112V21.4993Z" fill="#878787"/>
<path d="M24.6669 29.9961C24.6669 31.9117 24.659 33.8273 24.6669 35.7429C24.6669 36.097 24.5652 36.3546 24.2455 36.5145H22.2109C22.2109 36.4907 22.2109 36.4669 22.2109 36.4431C22.2109 34.295 22.2109 32.1464 22.2109 29.9974L24.6669 29.9961Z" fill="#02AADC"/>
<path d="M16.0938 36.4482C16.0938 34.3 16.0938 32.1515 16.0938 30.0024H18.4889V36.5168H16.0951L16.0938 36.4482Z" fill="#02AADC"/>
<path d="M16.0901 36.4494V36.5207H11.7305C11.8335 36.4045 11.9709 36.452 12.0938 36.452C13.4263 36.4432 14.7585 36.4423 16.0901 36.4494Z" fill="#03C1EB"/>
<path d="M18.4766 36.5137C18.4766 36.4899 18.4766 36.4662 18.4766 36.4424H22.1995V36.5137H18.4766Z" fill="#03C1EB"/>
<path d="M35.9879 21.1866H35.9219C35.9219 20.0953 35.9219 19.0045 35.9219 17.9142L35.9985 17.8838L35.9879 21.1866Z" fill="#575757"/>
<path d="M2.09766 36.4487L2.17296 36.5187H2.09766V36.4487Z" fill="#A0A0A0"/>
<path d="M5.26533 36.4487V36.5201H5.19531L5.26533 36.4487Z" fill="#A0A0A0"/>
<path d="M16.7246 13.0854C15.3716 12.8212 14.144 12.1171 13.2329 11.0826C13.167 11.0169 13.0973 10.9551 13.0241 10.8977C12.8259 10.5846 12.6185 10.2767 12.4336 9.95439C11.9255 9.0461 11.6466 8.0276 11.6211 6.98717C11.6317 5.53395 12.0293 4.20359 12.9264 3.04365C13.8505 1.80458 15.205 0.956266 16.7232 0.665649C16.7626 0.688825 16.8042 0.707863 16.8474 0.722457C18.369 1.10542 19.6946 2.03889 20.5679 3.34242C21.4412 4.64595 21.8003 6.22696 21.5757 7.77984C21.3115 9.59241 20.3933 10.9901 18.9335 12.0642C18.2689 12.5583 17.4948 12.8159 16.7246 13.0854ZM17.9638 9.51842C18.9797 9.53031 18.977 9.56995 18.9652 8.52627C18.9586 7.88157 18.9652 7.88157 19.6376 7.88157C20.602 7.88157 20.602 7.88157 20.602 6.91715C20.602 5.86026 20.7103 5.85234 19.5451 5.86026C18.9572 5.86026 18.9533 5.86026 18.9586 5.27369C18.9678 4.15207 18.9995 4.2168 17.9017 4.22605C16.9412 4.22605 16.9412 4.22605 16.9412 5.19178C16.9412 5.86159 16.9412 5.86159 16.2807 5.86159C15.2938 5.86159 15.2951 5.86158 15.2938 6.83921C15.2938 7.84457 15.1894 7.8961 16.3282 7.8776C16.9346 7.86836 16.9425 7.8776 16.9333 8.4906C16.9346 9.64921 17.0046 9.51842 17.9638 9.51974V9.51842Z" fill="#EE3A47"/>
<path d="M16.7227 13.0857C17.4929 12.8215 18.267 12.5573 18.9355 12.0658C20.3887 10.9918 21.3135 9.59402 21.5777 7.78146C21.8013 6.2292 21.4418 4.64916 20.5685 3.34649C19.6953 2.04383 18.3703 1.11095 16.8495 0.728039C16.8062 0.713445 16.7646 0.694407 16.7253 0.671232C18.2215 0.319771 19.7959 0.573313 21.1061 1.3767C23.2265 2.62912 24.2768 4.53416 24.3204 6.99275C24.2908 7.81912 24.1117 8.6333 23.7919 9.39585C23.5673 9.94015 23.2146 10.4039 22.9068 10.8953C22.2304 11.6114 21.4985 12.2547 20.5816 12.6537C19.3358 13.1967 18.0557 13.375 16.7227 13.0857Z" fill="#CE3144"/>
<path d="M22.9062 10.895C23.2141 10.4035 23.5668 9.93983 23.7914 9.39554C24.1112 8.63298 24.2902 7.8188 24.3198 6.99243H30.2913C30.9043 6.99243 31.0681 7.15361 31.0681 7.75471C31.0681 8.57512 31.0681 9.39421 31.0681 10.2146C31.0681 10.7061 30.8844 10.8884 30.3917 10.9003C29.9821 10.9109 29.5726 10.9122 29.163 10.9161H26.5644L22.9062 10.895Z" fill="#575757"/>
<path d="M11.6242 6.98608C11.6504 8.02516 11.9292 9.04223 12.4367 9.94934C12.6217 10.2717 12.833 10.5795 13.0272 10.8926L7.19585 10.9032C7.06374 10.9032 6.93956 10.9138 6.81141 10.919L5.62241 10.9019C5.07679 10.8939 4.90108 10.7262 4.89844 10.1924C4.89844 9.361 4.89844 8.53002 4.89844 7.69948C4.89844 7.17104 5.07943 6.99401 5.62373 6.99269L11.6242 6.98608Z" fill="#575757"/>
<path d="M5.26992 21.5011C4.07035 21.4482 2.87078 21.4773 1.67121 21.4865C1.30922 21.4865 0.947238 21.4865 0.585253 21.4786C0.203452 21.468 0.01189 21.2989 0.00792667 20.9264C-0.00264222 20.0043 -0.00264222 19.0817 0.00792667 18.1587C0.00792667 17.7808 0.198168 17.5985 0.577327 17.5985C2.14284 17.5985 3.70704 17.5985 5.27124 17.6051V21.5011H5.26992Z" fill="#565656"/>
<path d="M35.9174 17.9127C35.9174 19.004 35.9174 20.0948 35.9174 21.1851C35.8659 21.2842 35.7855 21.3654 35.687 21.418C35.5884 21.4706 35.4762 21.4921 35.3652 21.4798C35.0138 21.4798 34.6637 21.4798 34.3083 21.4798C33.1088 21.4798 31.9092 21.4454 30.7109 21.4956V17.6049L35.3797 17.5944C35.6268 17.5944 35.8316 17.6578 35.9174 17.9127Z" fill="#565656"/>
<path d="M5.26953 21.4655V17.6039L6.8192 17.588V21.4694L5.26953 21.4655Z" fill="#494949"/>
<path d="M30.7085 17.6039V21.4642H29.1602V17.588L30.7085 17.6039Z" fill="#494949"/>
<path d="M18.482 29.9986H16.0868H11.315L10.6478 29.984C10.3149 29.9748 10.1035 29.8017 10.0969 29.4714C10.0798 28.6986 10.085 27.9257 10.0969 27.1529C10.0969 26.8543 10.2832 26.6826 10.5791 26.6469C10.7072 26.6333 10.8361 26.6275 10.9649 26.6297C15.639 26.6297 20.3126 26.6297 24.9859 26.6297C25.1263 26.6284 25.2666 26.6363 25.406 26.6535C25.471 26.6563 25.5347 26.6722 25.5935 26.7C25.6523 26.7279 25.7049 26.7672 25.7482 26.8157C25.7915 26.8643 25.8247 26.9209 25.8458 26.9825C25.8669 27.044 25.8755 27.1091 25.871 27.174C25.8776 27.9363 25.8816 28.6973 25.871 29.4582C25.871 29.7872 25.6676 29.9629 25.3333 29.9867C25.1114 29.9999 24.8881 29.9986 24.6728 30.0025H22.2049L18.482 29.9986Z" fill="#575757"/>
<path d="M23.3844 24.3514C22.9272 24.3514 22.4715 24.3514 22.0157 24.3514C21.6061 24.3448 21.3987 24.1665 21.3908 23.7569C21.3749 22.8207 21.3749 21.8845 21.3908 20.9482C21.3974 20.5242 21.6075 20.3458 22.0408 20.3445C22.9418 20.3445 23.8428 20.3445 24.7438 20.3445C25.1943 20.3445 25.4043 20.5294 25.4043 20.9747C25.4175 21.888 25.4175 22.8004 25.4043 23.712C25.3977 24.1625 25.1969 24.3461 24.7504 24.3514C24.3038 24.3567 23.8401 24.3514 23.3844 24.3514Z" fill="#02C1EB"/>
<path d="M23.3665 19.2292C22.9107 19.2292 22.455 19.2358 21.9978 19.2292C21.6015 19.2226 21.4007 19.0548 21.3928 18.6585C21.3743 17.7108 21.3743 16.7631 21.3928 15.8155C21.3994 15.4191 21.6134 15.2262 22.0243 15.2236C22.9358 15.2157 23.8478 15.2157 24.7603 15.2236C25.1989 15.2236 25.4024 15.4284 25.4076 15.8749C25.4182 16.7759 25.4182 17.6765 25.4076 18.5766C25.4076 19.0535 25.2134 19.2252 24.7365 19.2305C24.2781 19.2332 23.8223 19.2292 23.3665 19.2292Z" fill="#03C1EB"/>
<path d="M17.9512 19.2277C17.4954 19.2277 17.0396 19.2277 16.5825 19.2277C16.1862 19.2211 15.9827 19.0559 15.9748 18.6583C15.9563 17.7009 15.9563 16.7422 15.9748 15.7822C15.9827 15.4149 16.1954 15.2273 16.5653 15.2234C17.5007 15.2128 18.4365 15.2128 19.3727 15.2234C19.769 15.2234 19.9699 15.4123 19.9778 15.802C19.9963 16.7612 19.9963 17.7203 19.9778 18.6794C19.9699 19.0546 19.7664 19.2211 19.3886 19.2277C18.913 19.2343 18.4334 19.2277 17.9512 19.2277Z" fill="#03C1EB"/>
<path d="M14.5702 17.2131C14.5702 17.6689 14.5702 18.126 14.5702 18.5818C14.5702 19.0376 14.3932 19.2238 13.9387 19.2265C13.0254 19.2318 12.1129 19.2318 11.2014 19.2265C10.7667 19.2265 10.5699 19.0455 10.5646 18.6135C10.5514 17.6887 10.5514 16.7639 10.5646 15.8391C10.5712 15.4124 10.7799 15.2209 11.2053 15.2169C12.1182 15.2169 13.0298 15.209 13.9427 15.2169C14.3734 15.2169 14.561 15.4124 14.5702 15.8405C14.5768 16.3002 14.5702 16.7626 14.5702 17.2131Z" fill="#03C1EB"/>
<path d="M17.9901 20.342C18.4339 20.342 18.8792 20.342 19.3231 20.342C19.7973 20.342 19.977 20.5216 19.9836 21.0025C19.9889 21.9035 19.9889 22.8041 19.9836 23.7042C19.9836 24.1653 19.8 24.3463 19.3455 24.3489C18.4322 24.3542 17.5197 24.3542 16.6082 24.3489C16.1986 24.3489 15.9886 24.1666 15.9806 23.7584C15.9648 22.8221 15.9648 21.8864 15.9806 20.951C15.9886 20.523 16.1947 20.3459 16.6267 20.342C17.0772 20.338 17.5343 20.342 17.9901 20.342Z" fill="#02C1EB"/>
<path d="M14.57 22.37C14.57 22.8139 14.57 23.2578 14.57 23.703C14.57 24.1482 14.3838 24.3464 13.9333 24.349C13.0208 24.3543 12.1084 24.3543 11.1959 24.349C10.7837 24.349 10.575 24.1694 10.5671 23.7598C10.5499 22.8245 10.5512 21.8891 10.5671 20.9525C10.5737 20.5244 10.7798 20.3447 11.2105 20.3421C12.1229 20.3368 13.0354 20.3368 13.9478 20.3421C14.3785 20.3421 14.5634 20.531 14.5714 20.9657C14.5767 21.4333 14.57 21.901 14.57 22.37Z" fill="#02C1EB"/>
<path d="M18.4766 29.9982H22.1968C22.1968 32.1472 22.1968 34.2957 22.1968 36.4439H18.4766C18.4766 34.294 18.4766 32.1454 18.4766 29.9982Z" fill="#01C0EB"/>
<path d="M17.9674 9.52198C17.0082 9.52198 16.9382 9.65409 16.9554 8.49944C16.9646 7.88512 16.9554 7.8772 16.3503 7.88645C15.2115 7.90362 15.3132 7.85342 15.3159 6.84805C15.3159 5.87043 15.3159 5.87043 16.3028 5.87043C16.9633 5.87043 16.9633 5.87043 16.9633 5.20062C16.9633 4.23489 16.9633 4.23753 17.9238 4.23489C19.0163 4.23489 18.9807 4.16091 18.9807 5.28253C18.9807 5.87043 18.9807 5.87571 19.5672 5.86911C20.7258 5.8559 20.6241 5.86911 20.6241 6.926C20.6241 7.89041 20.6241 7.89041 19.6597 7.89041C18.9859 7.89041 18.9807 7.89041 18.9873 8.53511C18.9807 9.57351 18.9833 9.53387 17.9674 9.52198Z" fill="#F8EDEB"/>
</svg>
