<svg width="60" height="60" viewBox="0 0 60 60" fill="none" xmlns="http://www.w3.org/2000/svg">
<path d="M31.7352 23.2251C31.7352 22.3182 31.7227 21.4098 31.7227 20.5015C31.7227 17.9015 31.7227 15.3006 31.7227 12.6987H46.9796C46.9796 12.8376 46.9602 12.9668 46.9602 13.1001C46.9602 16.3409 46.9602 19.5816 46.9602 22.8223C46.9602 22.9612 46.9518 23.0904 46.9463 23.2251H36.8296C36.3838 23.2251 36.3838 23.2251 36.3838 22.7973V19.1237C36.3838 18.2473 36.3838 17.371 36.3838 16.4946C36.3838 16.2765 36.3185 16.1918 36.0949 16.2043C35.8046 16.221 35.5115 16.2043 35.2199 16.2126C34.9282 16.221 34.6143 16.2126 34.3129 16.2126C34.1504 16.2126 34.0685 16.246 34.0685 16.4335C34.0796 18.314 34.0824 20.1932 34.0879 22.0737C34.0879 22.3515 34.0713 22.6293 34.0879 22.9071C34.1046 23.1529 34.0254 23.239 33.7713 23.2335C33.0949 23.214 32.4143 23.2251 31.7352 23.2251Z" fill="#E2584B"/>
<path d="M24.0904 22.6385C23.9515 22.6385 23.8209 22.6524 23.6862 22.6524C20.2945 22.6524 16.9019 22.6524 13.5084 22.6524C12.8751 22.6524 12.9654 22.7218 12.9654 22.1246C12.9654 19.1144 12.9654 16.1051 12.9654 13.0968C12.9654 12.9579 12.9654 12.8273 12.957 12.6926H24.0931L24.0904 22.6385ZM15.3251 16.1996C15.3251 17.4926 15.3251 18.7843 15.3112 20.076C15.3112 20.2454 15.3543 20.3121 15.5376 20.3121C17.7283 20.3065 19.9195 20.3065 22.1112 20.3121C22.2918 20.3121 22.3404 20.2468 22.3404 20.076C22.3306 18.7843 22.3293 17.4926 22.3251 16.1996C22.3251 15.8857 22.3251 15.5718 22.3459 15.2593C22.3543 15.0815 22.282 15.026 22.1112 15.026C19.9214 15.026 17.7311 15.026 15.5404 15.026C15.3668 15.026 15.3015 15.0829 15.3098 15.2579C15.3237 15.5773 15.3209 15.8912 15.3251 16.2051V16.1996Z" fill="#FDA21A"/>
<path d="M29.3466 12.7654C29.3466 12.9043 29.3619 13.0557 29.3619 13.2015C29.3619 16.1839 29.3619 19.1663 29.3619 22.1487C29.3619 22.2876 29.3522 22.4182 29.3466 22.5515L29.2883 22.6279C28.9133 22.7015 28.5327 22.6557 28.1549 22.6585C27.1827 22.6585 26.2105 22.6585 25.2383 22.6585V12.6987H29.2869L29.3466 12.7654ZM27.8688 20.3293C27.8761 20.212 27.8584 20.0945 27.817 19.9845C27.7756 19.8746 27.7114 19.7746 27.6287 19.6912C27.5459 19.6077 27.4464 19.5428 27.3368 19.5005C27.2271 19.4583 27.1098 19.4397 26.9924 19.446C26.5272 19.446 26.1813 19.8196 26.1813 20.3223C26.1813 20.796 26.5647 21.214 27.0022 21.1973C27.4716 21.1807 27.9494 20.7946 27.8688 20.3293ZM27.0355 14.4529C26.3563 14.464 26.4494 14.3612 26.4494 15.0376C26.4494 15.6862 26.3605 15.5932 27.023 15.5932C27.6855 15.5932 27.5924 15.6807 27.5924 15.0279C27.5924 14.3751 27.6841 14.4626 27.0397 14.4529H27.0355ZM27.0272 17.9626C27.673 17.9529 27.5897 18.0446 27.5938 17.4251C27.598 16.8057 27.5938 16.8112 26.998 16.8154C26.3674 16.8154 26.4424 16.7376 26.4494 17.371C26.4549 18.0571 26.3577 17.9515 27.0313 17.9626H27.0272Z" fill="#FEA218"/>
<path d="M25.241 12.6987V22.6557C24.8593 22.6934 24.4747 22.6902 24.0938 22.646V12.6987H25.241Z" fill="#EA8B23"/>
<path d="M29.3502 12.7654L29.2891 12.6987H29.3571L29.3502 12.7654Z" fill="#FDA21A"/>
<path d="M45.2004 45.5001C44.0435 45.5001 42.8879 45.4904 41.7282 45.4904C38.9782 45.4904 36.2282 45.4936 33.4782 45.5001H32.3129C31.7227 45.4696 31.7227 45.4696 31.7227 44.8543V24.8737C31.7227 24.7279 31.731 24.5821 31.7352 24.4376H46.9407C46.9407 24.5835 46.9602 24.7293 46.9602 24.8737C46.9602 31.5404 46.9602 38.2112 46.9602 44.8862C46.9602 45.4723 46.9602 45.4723 46.3685 45.5015L45.2004 45.5001ZM34.0893 33.7585C34.0893 34.0723 34.1004 34.3862 34.0893 34.7001C34.0796 34.9126 34.1671 34.971 34.3671 34.9668C34.9504 34.9585 35.5342 34.9585 36.1185 34.9668C36.3213 34.9668 36.3963 34.9043 36.3963 34.689C36.3852 34.2848 36.3963 33.8807 36.3963 33.4765C36.3963 30.9626 36.3963 28.4487 36.3963 25.9335C36.3963 25.6557 36.3296 25.546 36.0421 25.5723C35.7546 25.5987 35.5032 25.5723 35.2338 25.5807C34.9421 25.5807 34.649 25.5807 34.3574 25.571C34.1657 25.5626 34.0796 25.6071 34.0796 25.8265C34.087 28.4737 34.0902 31.1177 34.0893 33.7585Z" fill="#E2584B"/>
<path d="M13.5643 45.4952C12.9727 45.4841 12.9727 45.4841 12.9727 44.8841V30.5785C12.9727 30.466 12.9727 30.3535 12.981 30.2424H29.3699C29.3699 33.6684 29.3722 37.0943 29.3768 40.5202V44.9327C29.3768 45.4883 29.3768 45.4883 28.8074 45.498H13.5643V45.4952ZM15.4477 38.5508C15.4127 38.602 15.3903 38.6608 15.3824 38.7224C15.3744 38.7839 15.3811 38.8465 15.4018 38.9049C15.6032 40.0772 16.0518 41.1549 16.8449 42.0397C18.4727 43.8549 20.5046 44.6285 22.9352 44.2077C24.3918 43.9726 25.7132 43.2159 26.6532 42.0785C27.8518 40.6438 28.3935 38.9827 28.1546 37.091C27.9865 35.6994 27.3686 34.4007 26.3949 33.3924C25.5641 32.5153 24.4946 31.9007 23.3185 31.6244C22.9421 31.5313 22.5518 31.366 22.1421 31.5091C21.774 31.4584 21.4024 31.4384 21.031 31.4494C19.8692 31.4736 18.7411 31.8443 17.7914 32.5139C16.8416 33.1835 16.1135 34.1216 15.7004 35.2077C15.307 36.2754 15.2194 37.4318 15.4477 38.5466V38.5508Z" fill="#4498D0"/>
<path d="M12.9852 29.0986C12.9852 27.8069 12.9852 26.5152 12.9727 25.2236C12.9727 25.0541 13.0199 24.9666 13.2018 24.9875C13.2578 24.9909 13.3139 24.9909 13.3699 24.9875C18.5717 24.9875 23.7736 24.9847 28.9754 24.9791C29.3032 24.9791 29.3921 25.0652 29.381 25.3958C29.3588 26.6305 29.3671 27.8652 29.3629 29.1013L12.9852 29.0986ZM25.8407 27.9472H26.7157C27.6393 27.9472 27.631 27.9472 27.624 27.0347C27.624 26.7986 27.5477 26.7263 27.3143 26.7291C26.5518 26.7416 25.7865 26.7291 25.0268 26.7291C24.0546 26.7291 24.0546 26.7291 24.1046 27.6916C24.1129 27.8805 24.1727 27.9472 24.3615 27.9444C24.8477 27.9416 25.3407 27.9472 25.8407 27.9472ZM15.9338 27.3625C15.9338 26.7388 15.9338 26.7388 15.3199 26.7388H15.2852C14.6324 26.7486 14.7296 26.6513 14.7199 27.3111C14.7102 27.9708 14.7199 27.9555 15.3504 27.95C16.0268 27.9402 15.9227 28.0375 15.9338 27.3625ZM18.231 27.3333C18.2247 27.2445 18.2247 27.1554 18.231 27.0666C18.274 26.7888 18.1393 26.7319 17.8865 26.7333C17.0796 26.7333 17.0796 26.7333 17.081 27.5402C17.0839 27.5865 17.0839 27.6329 17.081 27.6791C17.0518 27.9069 17.1629 27.9805 17.374 27.9569C17.4522 27.9527 17.5306 27.9527 17.6088 27.9569C18.231 27.9472 18.231 27.9472 18.231 27.3291V27.3333ZM20.5921 27.3333C20.5865 27.2552 20.5865 27.1767 20.5921 27.0986C20.6296 26.8208 20.531 26.7319 20.2449 26.7361C19.4407 26.7486 19.4407 26.7361 19.4421 27.5486C19.4442 27.5823 19.4442 27.6162 19.4421 27.65C19.4115 27.8777 19.4963 27.9888 19.7393 27.9569C19.817 27.952 19.895 27.952 19.9727 27.9569C20.5921 27.9472 20.5921 27.9472 20.5921 27.325V27.3333Z" fill="#4397D0"/>
<path d="M46.9332 24.4376H31.7305V23.2238C32.4096 23.2238 33.0902 23.2126 33.7707 23.2238C34.0249 23.2238 34.1041 23.1432 34.0874 22.8974C34.0707 22.6196 34.0874 22.3418 34.0874 22.064C34.3791 22.064 34.6721 22.0529 34.9624 22.064C35.1694 22.0751 35.2319 22.0043 35.2305 21.7974C35.2221 19.9335 35.2221 18.0696 35.2194 16.2057C35.511 16.2057 35.8041 16.214 36.0944 16.1974C36.318 16.1849 36.3846 16.2696 36.3832 16.4876C36.3735 17.364 36.3832 18.2404 36.3832 19.1168V22.7904C36.3832 23.2182 36.3832 23.2182 36.8291 23.2182H46.9457C46.9887 23.6238 46.9845 24.033 46.9332 24.4376Z" fill="#CD4F43"/>
<path d="M12.9728 29.0968H29.3506C29.3867 29.4784 29.3867 29.8625 29.3506 30.244H12.9617C12.9366 29.8619 12.9403 29.4784 12.9728 29.0968Z" fill="#2D81B9"/>
<path d="M27.6094 45.493H28.7983C28.7983 45.9958 28.7885 46.4986 28.7983 47.0014C28.7983 47.1875 28.7483 47.2444 28.5552 47.25C27.6122 47.2736 27.6122 47.2792 27.6122 46.3305C27.6122 46.0518 27.6112 45.7727 27.6094 45.493Z" fill="#0C4B7A"/>
<path d="M13.5515 45.495H14.7238C14.7238 45.9783 14.7099 46.4672 14.7238 46.9436C14.7238 47.1658 14.6877 47.2783 14.4363 47.2478C14.1502 47.2131 13.7668 47.3714 13.6029 47.1825C13.464 47.0214 13.5599 46.6492 13.5557 46.37C13.5515 46.0908 13.5515 45.7867 13.5515 45.495Z" fill="#0C4B7A"/>
<path d="M32.312 45.499H33.4773C33.4773 45.9921 33.4703 46.4851 33.4773 46.9768C33.4773 47.1685 33.4509 47.2685 33.2273 47.2476C33.0036 47.2282 32.7787 47.2282 32.555 47.2476C32.3314 47.2685 32.3009 47.1685 32.305 46.9782C32.3203 46.4851 32.312 45.9921 32.312 45.499Z" fill="#0C4B7A"/>
<path d="M45.195 45.499H46.3644C46.3644 45.9921 46.3561 46.4851 46.3644 46.9782C46.3644 47.1712 46.3353 47.2685 46.1116 47.2476C45.8885 47.2282 45.664 47.2282 45.4408 47.2476C45.2172 47.2685 45.1825 47.1712 45.188 46.9782C45.2033 46.4851 45.195 45.9921 45.195 45.499Z" fill="#0C4B7A"/>
<path d="M29.2891 22.6249L29.3474 22.5485C29.3543 22.5943 29.3377 22.6221 29.2891 22.6249Z" fill="#FDA21A"/>
<path d="M35.2178 16.2113C35.2178 18.0752 35.2178 19.9391 35.2289 21.803C35.2289 22.0099 35.1678 22.0808 34.9609 22.0697C34.6706 22.0558 34.3775 22.0697 34.0859 22.0697C34.0859 20.1891 34.0775 18.3099 34.0664 16.4294C34.0664 16.2419 34.1483 16.2044 34.3108 16.2086C34.6122 16.2155 34.915 16.2099 35.2178 16.2113Z" fill="#D4D8DA"/>
<path d="M22.3303 16.2062C22.3303 17.4992 22.3303 18.7909 22.3456 20.0826C22.3456 20.2534 22.297 20.3187 22.1164 20.3187C19.9248 20.3131 17.7336 20.3131 15.5428 20.3187C15.3595 20.3187 15.315 20.252 15.3164 20.0826C15.3248 18.7909 15.3262 17.4992 15.3303 16.2062H22.3303Z" fill="#87CDD7"/>
<path d="M22.3324 16.2039H15.3324C15.3324 15.89 15.3324 15.5761 15.3171 15.2622C15.3088 15.0872 15.3741 15.0303 15.5477 15.0303C17.7375 15.0303 19.9278 15.0303 22.1185 15.0303C22.2893 15.0303 22.3616 15.0858 22.3532 15.2636C22.3393 15.5761 22.3393 15.89 22.3324 16.2039Z" fill="#72C4D0"/>
<path d="M27.8711 20.3275C27.9517 20.7928 27.4739 21.1789 27.0044 21.1956C26.5669 21.2122 26.1836 20.7942 26.1836 20.3206C26.1836 19.8178 26.5294 19.4442 26.9947 19.4442C27.112 19.4379 27.2294 19.4565 27.339 19.4987C27.4487 19.541 27.5481 19.606 27.6309 19.6894C27.7137 19.7728 27.7779 19.8728 27.8193 19.9828C27.8606 20.0927 27.8783 20.2102 27.8711 20.3275Z" fill="#EA8B23"/>
<path d="M27.0525 14.4524C27.697 14.4621 27.6081 14.3677 27.6081 15.0329C27.6081 15.6982 27.697 15.5982 27.0386 15.5982C26.3803 15.5982 26.4636 15.6857 26.465 15.0427C26.4664 14.3607 26.3734 14.4635 27.0525 14.4524Z" fill="#EA8B23"/>
<path d="M27.0429 17.9618C26.3692 17.9507 26.4665 18.0521 26.4651 17.3688C26.4651 16.7368 26.3831 16.8132 27.0137 16.8132C27.6109 16.8132 27.6137 16.8132 27.6095 17.4229C27.6054 18.0326 27.6887 17.9521 27.0429 17.9618Z" fill="#EA8B23"/>
<path d="M35.2192 25.5885C35.4886 25.5885 35.7595 25.6038 36.0275 25.5802C36.2956 25.5566 36.3831 25.6691 36.3817 25.9413C36.372 28.4566 36.3817 30.9705 36.3817 33.4844C36.3817 33.8885 36.3734 34.2927 36.3817 34.6969C36.3886 34.9052 36.3109 34.9747 36.1039 34.9747C35.5206 34.9645 34.9368 34.9645 34.3525 34.9747C34.1539 34.9747 34.0664 34.9205 34.0748 34.708C34.0873 34.3941 34.0748 34.0802 34.0748 33.7663C34.3525 33.7663 34.6373 33.751 34.9164 33.7663C35.1428 33.7802 35.2261 33.7191 35.2261 33.4733C35.2192 30.8399 35.2206 28.2135 35.2192 25.5885Z" fill="#CE4E42"/>
<path d="M35.222 25.5904C35.222 28.2154 35.222 30.8418 35.2331 33.4682C35.2331 33.7141 35.1497 33.7752 34.9234 33.7613C34.6456 33.7446 34.3678 33.7613 34.0817 33.7613C34.0817 31.1196 34.0766 28.4784 34.0664 25.8377C34.0664 25.6182 34.1539 25.5738 34.3442 25.5821C34.6372 25.5946 34.9303 25.5877 35.222 25.5904Z" fill="#D4D8DA"/>
<path d="M15.4457 38.5453C15.2203 37.4317 15.3098 36.2774 15.704 35.2119C16.1175 34.1249 16.8464 33.1863 17.7973 32.5166C18.7481 31.8469 19.8774 31.4768 21.0402 31.4536C21.4115 31.4426 21.7832 31.4626 22.1513 31.5133C22.2499 31.5369 22.3471 31.5619 22.4457 31.5842C23.721 31.8539 24.8685 32.5447 25.7037 33.5456C26.5388 34.5465 27.0129 35.7992 27.0499 37.1022C27.111 38.8814 26.454 40.4022 25.1235 41.6244C22.8749 43.6897 19.2902 43.6439 17.1124 41.505C16.2872 40.6966 15.7091 39.67 15.4457 38.5453ZM23.2874 35.1661C23.4902 34.973 23.6888 34.773 23.8971 34.5869C24.054 34.448 24.036 34.3605 23.879 34.2189C22.8527 33.3161 21.6568 33.0453 20.3388 33.2786C18.5735 33.5911 17.1027 35.323 17.0804 37.1119C17.0596 38.7703 17.7749 40.0286 19.1915 40.873C20.5096 41.6605 22.479 41.5161 23.6652 40.5522C24.0985 40.1994 24.0999 40.198 23.7054 39.8078C23.5665 39.6689 23.4277 39.5467 23.2888 39.4161C22.9693 39.1592 22.9304 38.8175 22.9415 38.4328C22.9638 37.673 22.9638 36.905 22.9415 36.1508C22.9304 35.7661 22.9693 35.423 23.2874 35.1661Z" fill="#D4D8DA"/>
<path d="M15.439 38.5444C15.7034 39.6672 16.2814 40.6917 17.1057 41.4986C19.2862 43.6375 22.8682 43.6833 25.1168 41.6181C26.4473 40.3958 27.1043 38.875 27.0432 37.0958C27.0062 35.7928 26.5321 34.5401 25.697 33.5392C24.8618 32.5384 23.7143 31.8475 22.439 31.5778C22.3404 31.5556 22.2432 31.5306 22.1446 31.5069C22.5612 31.3681 22.9446 31.5292 23.3209 31.6222C24.4931 31.9005 25.5584 32.515 26.3862 33.3903C27.3586 34.3967 27.9764 35.6928 28.1459 37.0819C28.3848 38.9736 27.8432 40.6347 26.6446 42.0694C25.7046 43.2068 24.3831 43.9635 22.9265 44.1986C20.4959 44.6153 18.464 43.8458 16.8362 42.0306C16.0432 41.1458 15.5946 40.0681 15.3932 38.8958C15.3729 38.8377 15.3664 38.7757 15.3744 38.7147C15.3824 38.6537 15.4045 38.5954 15.439 38.5444Z" fill="#3F8DC2"/>
<path d="M25.8368 27.9461C25.3437 27.9461 24.8507 27.9461 24.3576 27.9461C24.1687 27.9461 24.109 27.8822 24.1007 27.6933C24.0562 26.7308 24.0507 26.7308 25.0229 26.7308C25.7854 26.7308 26.5507 26.7378 27.3104 26.7308C27.5437 26.7308 27.6173 26.8003 27.6201 27.0364C27.6271 27.9489 27.6354 27.9489 26.7118 27.9489L25.8368 27.9461Z" fill="#2D81B9"/>
<path d="M15.9257 27.3612C15.9146 28.0403 16.0188 27.9431 15.3438 27.9487C14.7132 27.9487 14.7091 27.9487 14.7132 27.3098C14.7174 26.6709 14.6257 26.7542 15.2785 26.7375H15.3118C15.9257 26.7334 15.9257 26.7334 15.9257 27.3612Z" fill="#2D81B9"/>
<path d="M18.2249 27.3264C18.2249 27.9444 18.2249 27.9444 17.6027 27.9444C17.5245 27.9403 17.4461 27.9403 17.368 27.9444C17.1569 27.968 17.0457 27.8944 17.0749 27.6667C17.0779 27.6204 17.0779 27.574 17.0749 27.5278C17.0749 26.718 17.0749 26.7264 17.8805 26.7208C18.1332 26.7208 18.268 26.775 18.2249 27.0542C18.2184 27.1448 18.2184 27.2358 18.2249 27.3264Z" fill="#2D81B9"/>
<path d="M20.5843 27.3235C20.5843 27.9457 20.5843 27.9457 19.9662 27.9457C19.8885 27.9408 19.8106 27.9408 19.7329 27.9457C19.4898 27.9776 19.4051 27.8665 19.4357 27.6387C19.4377 27.605 19.4377 27.5711 19.4357 27.5374C19.4357 26.7249 19.4357 26.7374 20.2384 26.7249C20.5246 26.7249 20.6232 26.8151 20.5857 27.0874C20.5796 27.1659 20.5791 27.2448 20.5843 27.3235Z" fill="#2D81B9"/>
<path d="M23.2811 35.1669C22.963 35.4239 22.9241 35.7669 22.9352 36.1516C22.9575 36.9114 22.9575 37.6794 22.9352 38.4336C22.9241 38.8183 22.963 39.16 23.2825 39.4169C23.2045 39.4266 23.132 39.4623 23.0769 39.5183C22.3686 40.0433 21.6075 40.3197 20.6977 40.1697C20.0123 40.0543 19.3898 39.7001 18.9404 39.1699C18.491 38.6397 18.2437 37.9675 18.2422 37.2725C18.2427 36.8904 18.3193 36.5123 18.4673 36.1601C18.6154 35.8079 18.8321 35.4887 19.1047 35.2211C19.5095 34.8319 20.0149 34.5633 20.564 34.4456C21.1131 34.3278 21.6842 34.3655 22.213 34.5544C22.6047 34.7086 22.9047 35.0002 23.2811 35.1669Z" fill="#87CDD8"/>
<path d="M23.2833 35.1674C22.9069 35.0007 22.6069 34.7091 22.2152 34.5549C21.6864 34.366 21.1153 34.3283 20.5662 34.4461C20.0171 34.5638 19.5117 34.8324 19.1069 35.2216C18.8343 35.4892 18.6176 35.8084 18.4695 36.1606C18.3215 36.5128 18.2449 36.8909 18.2444 37.273C18.2456 37.9672 18.4922 38.6387 18.9405 39.1688C19.3888 39.6989 20.01 40.0536 20.6944 40.1702C21.6041 40.3202 22.361 40.0438 23.0735 39.5188C23.1287 39.4628 23.2011 39.4271 23.2791 39.4174C23.418 39.548 23.5569 39.6744 23.6958 39.8091C24.0902 40.1994 24.0888 40.2007 23.6555 40.5535C22.4694 41.5174 20.4999 41.6646 19.1819 40.8744C17.7596 40.0257 17.0499 38.7716 17.0708 37.1132C17.093 35.3244 18.5638 33.5924 20.3291 33.2799C21.6513 33.0466 22.843 33.3174 23.8694 34.2202C24.0319 34.3591 24.0444 34.4494 23.8874 34.5882C23.6846 34.7744 23.486 34.9744 23.2833 35.1674Z" fill="#72C4D0"/>
</svg>
