<svg width="58" height="57" viewBox="0 0 58 57" fill="none" xmlns="http://www.w3.org/2000/svg">
<path d="M47.2038 39.3695L45.1778 39.8828C45.0771 39.9079 44.9724 39.9237 44.8703 39.9435C44.7965 39.2099 44.7253 38.4749 44.6488 37.7413C44.557 36.8006 44.4131 35.8655 44.2178 34.9401C44.2013 34.8296 44.1435 34.729 44.0556 34.658C43.9677 34.587 43.8561 34.5507 43.7425 34.5562C43.2955 34.5351 43.0713 34.799 43.1679 35.2911C43.4995 36.9101 43.6419 38.5515 43.8003 40.1929L42.3019 40.4673C42.3369 39.1241 42.1972 37.7941 42.0334 36.4628C41.9314 35.6157 41.773 34.7779 41.6602 33.9334C41.6526 33.8524 41.6271 33.7739 41.5855 33.7036C41.5439 33.6332 41.4872 33.5726 41.4194 33.526C41.3515 33.4794 41.2741 33.4479 41.1925 33.4337C41.111 33.4195 41.0273 33.423 40.9473 33.4439C40.6613 33.494 40.5096 33.7724 40.5767 34.1142C40.5969 34.2158 40.5928 34.3213 40.613 34.4229C40.9968 36.4649 41.2065 38.5348 41.24 40.6111C38.6769 40.9766 36.0965 41.0254 33.5133 40.97C33.5133 40.7734 33.5066 40.5742 33.5066 40.3789C33.5066 39.5582 33.5388 38.7349 33.4556 37.9155C33.4126 37.3877 33.3764 36.8599 33.3213 36.3322C33.299 35.9976 33.2492 35.6653 33.1723 35.3386C32.9293 34.4467 32.3023 33.9083 31.4269 33.6167C31.3974 33.3294 31.3107 33.0506 31.1719 32.796C30.7436 31.8724 30.0051 31.2127 29.2305 30.5926C29.3406 29.7178 29.6628 28.8944 29.8722 28.0434C30.0226 27.4285 30.3126 26.8559 30.3717 26.2107C31.7873 26.3894 33.2115 26.4951 34.6384 26.5274C36.6221 26.5654 38.6056 26.4472 40.57 26.1738C41.1151 26.0999 41.679 26.088 42.1919 25.8518C43.4511 27.3919 44.5046 29.0839 45.3268 30.8868C46.1494 32.7004 46.7102 34.6181 46.993 36.5842C47.0547 37.0262 47.0292 37.4814 47.1903 37.9036L47.2038 39.3695Z" fill="#80B3FA"/>
<path d="M28.8865 21.9461C27.9198 21.2133 26.9733 20.4511 26.0469 19.6595C26.0563 19.3586 26.2134 19.1053 26.3154 18.8361C26.9009 17.3537 27.6673 15.9466 28.5978 14.6456C29.0954 13.9434 29.6442 13.2775 30.2398 12.6532C30.5983 12.6453 30.9594 12.6044 31.3072 12.7337C31.7744 14.6258 32.3114 16.4928 33.2808 18.2107C33.7184 18.9879 34.2206 19.7004 35.0261 20.1727C35.3148 20.3429 35.5363 20.2941 35.8022 20.1318C36.3748 19.76 36.8475 19.2575 37.1797 18.6672C38.294 16.8279 38.9613 14.8211 39.3949 12.7297C40.5308 12.4659 41.5605 12.6968 42.4346 13.4528C43.8886 14.7089 45.3184 15.9914 46.7604 17.2607C46.8947 17.3834 47.0558 17.489 47.2034 17.6025V17.6803L43.1663 20.9024C42.985 20.4894 42.7138 20.1279 42.4802 19.7452C42.44 19.6676 42.3718 19.6074 42.2889 19.5764C42.206 19.5455 42.1144 19.5459 42.0318 19.5777C41.8398 19.6252 41.8062 19.7822 41.8076 19.959C41.8076 20.5356 41.8076 21.1122 41.8076 21.6888C41.8076 21.7798 41.7941 21.8761 41.8854 21.9408C41.8133 22.0475 41.7854 22.1773 41.8076 22.3036C41.8076 23.1604 41.8076 24.0167 41.8076 24.8726C40.1831 25.177 38.5371 25.357 36.8843 25.4109C34.7823 25.5032 32.6761 25.4083 30.5916 25.1272C30.5916 23.28 30.5916 21.4372 30.5916 19.5988C30.599 19.4747 30.5799 19.3505 30.5355 19.2342C30.4911 19.1178 30.4225 19.0119 30.334 18.9231C30.2455 18.8344 30.139 18.7649 30.0215 18.719C29.904 18.6731 29.7781 18.6519 29.6517 18.6567C29.5104 18.664 29.3688 18.664 29.2275 18.6567C28.959 18.6237 28.8891 18.7411 28.8918 18.9931C28.8999 19.9761 28.8891 20.9618 28.8865 21.9461Z" fill="#80B3FA"/>
<path d="M33.4186 42.1577C33.4046 42.8544 33.3309 43.5487 33.1984 44.2332C32.9877 45.2518 32.0317 46.0105 30.9724 46.0712C26.6251 46.3206 22.2738 46.3245 17.9224 46.2546C16.7289 46.2361 15.5366 46.1688 14.3431 46.1226C14.327 45.9709 14.182 45.9234 14.0853 45.8588C13.5979 45.521 13.3321 45.0394 13.167 44.4984C13.1014 44.2171 13.0627 43.9304 13.0515 43.6421C13.0032 43.2054 12.9844 43.1948 13.4288 43.2093C14.6532 43.2489 15.8763 43.3004 17.1008 43.3413C17.713 43.365 18.3239 43.3413 18.9374 43.3927C19.551 43.4442 20.1834 43.4772 20.8023 43.3571H24.2111C24.7119 43.4653 25.2087 43.3716 25.7095 43.3571C26.754 43.3175 27.8012 43.3571 28.8471 43.2819C29.6433 43.2278 30.4448 43.2463 31.2423 43.1988C31.677 43.1842 32.1033 43.0761 32.4909 42.8821C32.8507 42.6908 33.1165 42.4071 33.4186 42.1577Z" fill="#DA5C6E"/>
<path d="M29.2452 30.5888C30.0199 31.2142 30.7584 31.8713 31.1866 32.7923C31.3255 33.0468 31.4121 33.3256 31.4417 33.6129L30.2683 33.5074C30.0293 32.7606 29.5205 32.2157 28.9002 31.7578C28.4008 31.2723 27.8033 30.92 27.2126 30.5624C26.7923 30.3091 26.3896 30.0201 25.9143 29.8657C25.8821 29.8327 25.8565 29.7866 25.8163 29.7668C24.0718 28.8924 22.3264 28.0176 20.5802 27.1424C20.4378 27.0711 20.3667 27.1239 20.2767 27.2123C19.2362 28.2309 18.0507 29.0807 16.8921 29.9607C16.1348 30.5347 15.3736 31.1073 14.7439 31.8277C14.3237 32.3107 13.9853 32.8358 13.9746 33.5034C13.5997 33.5124 13.2266 33.5566 12.8602 33.6354C12.8361 32.6036 13.3154 31.7816 13.984 31.0427C14.9238 30.0109 16.0704 29.2284 17.17 28.3866C17.8614 27.8589 18.5394 27.3179 19.1919 26.7426C19.3839 26.5737 19.3946 26.4972 19.1516 26.36C18.0641 25.7438 17.0209 25.0656 16.1456 24.1657C14.803 22.7895 14.5237 21.3039 15.234 19.6572C15.9052 18.1002 17.6694 17.3521 19.4806 17.7836C21.9818 18.3786 23.3231 20.6626 22.6934 23.2527C22.4437 24.2596 21.9812 25.2037 21.336 26.0235C21.2434 26.1436 21.1548 26.2293 21.3683 26.3336C23.0331 27.1595 24.6961 27.9895 26.3573 28.8234C26.3913 28.8333 26.4266 28.8378 26.4621 28.8366C26.4929 28.8695 26.5184 28.9157 26.5574 28.9355C27.489 29.4285 28.3869 29.9808 29.2452 30.5888ZM21.7428 22.3436C21.7563 20.4027 20.7708 19.1769 19.1825 18.8273C17.6654 18.4908 16.355 19.2561 16.0529 20.6336C15.9417 21.0868 15.9472 21.5601 16.0688 22.0107C16.1905 22.4613 16.4245 22.875 16.7497 23.2144C17.6788 24.2515 18.8616 24.9508 20.0579 25.6343C20.0753 25.6492 20.0959 25.66 20.1182 25.6659C20.1405 25.6718 20.1639 25.6726 20.1865 25.6682C20.2092 25.6639 20.2305 25.6546 20.249 25.6409C20.2674 25.6272 20.2824 25.6096 20.2928 25.5894C21.14 24.5418 21.7173 23.382 21.7428 22.3436Z" fill="#427294"/>
<path d="M12.8645 33.638C13.2308 33.5592 13.604 33.5151 13.9789 33.5061L14.4152 33.5246C14.3776 33.6037 14.2997 33.6354 14.2299 33.679C13.7211 33.9856 13.3537 34.475 13.2055 35.0433C12.9478 35.9853 12.937 36.963 12.8712 37.9249C12.8028 38.9554 12.8605 39.9925 12.8511 41.0256C12.8511 41.2776 12.9491 41.3568 13.1921 41.403C13.8929 41.5349 14.6032 41.4795 15.3053 41.5112C16.3284 41.556 17.3528 41.6431 18.3799 41.6062C18.4631 42.7132 19.0149 43.2937 20.0286 43.3412C20.2864 43.3531 20.5441 43.3558 20.8019 43.3637C20.183 43.4837 19.552 43.4481 18.9371 43.3993C18.3222 43.3505 17.7126 43.3716 17.1004 43.3478C15.8759 43.3017 14.6528 43.2502 13.4284 43.2159C12.984 43.2014 13.0028 43.2159 13.0511 43.6487C13.0624 43.937 13.101 44.2237 13.1666 44.505C13.3317 45.046 13.5976 45.5276 14.0849 45.8653C14.1816 45.9326 14.3266 45.9801 14.3427 46.1292C13.4673 46.1635 12.6228 46.0857 11.926 45.4761C11.4414 45.0414 11.1445 44.4409 11.0963 43.7978C10.8532 41.794 10.797 39.7725 10.9285 37.7587C10.9768 37.0765 11.0319 36.3957 11.1232 35.7175C11.2655 34.6685 11.8643 33.989 12.8645 33.638Z" fill="#D54653"/>
<path d="M39.3925 12.7379C38.9588 14.8266 38.2915 16.8282 37.1772 18.6754C36.845 19.2657 36.3724 19.7682 35.7997 20.14C35.5312 20.3023 35.3123 20.3511 35.0237 20.1809C34.2248 19.7085 33.7187 18.9934 33.2783 18.2189C32.3089 16.5036 31.7719 14.634 31.3047 12.7419C32.0109 12.8527 32.5573 13.2406 33.0501 13.7156C33.4689 14.1115 33.9321 14.4572 34.5068 14.6023C35.6117 14.8781 36.6079 14.6617 37.4605 13.899C37.976 13.4359 38.4889 12.9754 39.183 12.7775C39.2521 12.7607 39.322 12.7475 39.3925 12.7379Z" fill="#61A2F8"/>
<path d="M41.8085 24.873C42.3844 25.0709 42.4798 25.2952 42.2019 25.848C41.689 26.0842 41.1278 26.0961 40.58 26.17C38.6155 26.4425 36.632 26.5599 34.6484 26.521C33.2215 26.4887 31.7973 26.383 30.3817 26.2043C29.7694 26.0724 29.1263 26.0961 28.5396 25.8415C28.2456 25.3691 28.349 25.0894 28.8994 24.869L30.5925 25.125C32.677 25.406 34.7832 25.501 36.8852 25.4087C38.5379 25.3556 40.184 25.1765 41.8085 24.873Z" fill="#FCCF66"/>
<path d="M33.4184 42.1571C33.1164 42.4065 32.8505 42.6849 32.4907 42.8788C32.1033 43.0737 31.677 43.1827 31.2421 43.1981C30.4446 43.2456 29.6431 43.2271 28.8469 43.2812C27.801 43.3525 26.7538 43.3169 25.7093 43.3565C25.2085 43.3749 24.7117 43.4686 24.2109 43.3565C24.3868 43.3499 24.5627 43.3419 24.7372 43.3393C25.9738 43.3195 26.5403 42.7996 26.6303 41.599C27.3123 41.5752 27.9944 41.5343 28.6777 41.5317C29.3611 41.529 30.0633 41.4406 30.7601 41.4419C31.0903 41.4485 31.4181 41.3856 31.7214 41.2572C32.7257 40.8099 33.1982 40.0275 33.3043 38.9719C33.3419 38.6196 33.2707 38.2436 33.4601 37.9164C33.5433 38.7358 33.5084 39.5591 33.5111 40.3798C33.5111 40.5777 33.5111 40.7756 33.5178 40.9709C33.5121 41.368 33.479 41.7644 33.4184 42.1571Z" fill="#D54653"/>
<path d="M30.2414 12.6586C29.6451 13.2811 29.0954 13.9452 28.5967 14.6457C27.6666 15.945 26.9002 17.3503 26.3143 18.8309C26.2109 19.0948 26.0538 19.3587 26.0458 19.6543C25.2053 19.0737 24.4561 18.3836 23.6492 17.7622C23.4653 17.621 23.6492 17.5418 23.7338 17.4693C24.2816 16.9758 24.833 16.4858 25.3879 15.9994C26.4083 15.1035 27.4192 14.1957 28.4584 13.3222C28.9522 12.8975 29.5852 12.6619 30.2414 12.6586Z" fill="#62A2F8"/>
<path d="M30.5958 25.127L28.9028 24.871L28.8867 21.9458C28.8867 20.9615 28.9001 19.9758 28.8867 18.9902C28.8867 18.7382 28.9498 18.6208 29.2224 18.6538C29.3637 18.661 29.5053 18.661 29.6466 18.6538C29.773 18.6489 29.8989 18.6702 30.0164 18.7161C30.1339 18.7619 30.2404 18.8315 30.3289 18.9202C30.4174 19.0089 30.486 19.1149 30.5304 19.2313C30.5747 19.3476 30.5938 19.4718 30.5864 19.5958C30.5954 21.4395 30.5985 23.2833 30.5958 25.127Z" fill="#62A2F8"/>
<path d="M28.5445 25.8436C29.1312 26.0983 29.7743 26.0745 30.3866 26.2065C30.3275 26.8451 30.0375 27.4243 29.8871 28.0392C29.6777 28.8902 29.3501 29.7136 29.2454 30.5884C28.3878 29.9809 27.4908 29.4291 26.5602 28.9364C26.5212 28.9166 26.4957 28.8704 26.4648 28.8374C27.0523 27.7724 27.7492 26.7692 28.5445 25.8436Z" fill="#61A1F7"/>
<path d="M41.2454 40.6109C41.212 38.5346 41.0023 36.4647 40.6184 34.4227C40.5983 34.3211 40.6023 34.2155 40.5822 34.1139C40.515 33.7722 40.6668 33.4938 40.9527 33.4437C41.0328 33.4228 41.1165 33.4193 41.198 33.4335C41.2795 33.4477 41.3569 33.4792 41.4248 33.5258C41.4927 33.5724 41.5494 33.633 41.591 33.7033C41.6326 33.7737 41.6581 33.8521 41.6656 33.9332C41.7784 34.7776 41.9342 35.6155 42.0389 36.4625C42.1973 37.7939 42.3369 39.1239 42.3074 40.4671L41.2454 40.6109Z" fill="#61A2F8"/>
<path d="M43.7996 40.1924C43.6411 38.551 43.4988 36.9096 43.1672 35.2907C43.0679 34.7985 43.3015 34.5346 43.7418 34.5557C43.8554 34.5503 43.967 34.5866 44.0549 34.6576C44.1427 34.7285 44.2006 34.8291 44.2171 34.9397C44.4122 35.8633 44.5561 36.7967 44.6481 37.7356C44.7246 38.4692 44.7958 39.2041 44.8696 39.9378C44.5219 40.0555 44.1636 40.1408 43.7996 40.1924Z" fill="#61A2F8"/>
<path d="M33.4599 37.916C33.2706 38.2485 33.3418 38.6245 33.3042 38.9715C33.1941 40.0271 32.7255 40.8095 31.7213 41.2568C31.4179 41.3851 31.0902 41.4481 30.76 41.4415C30.0632 41.4415 29.3731 41.5299 28.6776 41.5312C27.9822 41.5326 27.3122 41.5748 26.6302 41.5985C26.6302 40.7303 26.6302 39.8622 26.6154 38.9953C26.6006 38.1284 26.0367 37.4937 25.2607 37.4119C24.8741 37.3709 24.4856 37.3488 24.0967 37.346C22.7622 37.346 21.429 37.346 20.0958 37.3803C18.9908 37.4053 18.388 38.2049 18.3786 39.0956C18.3692 39.9294 18.3356 40.762 18.3786 41.5946C17.3515 41.6249 16.3271 41.5444 15.3041 41.4996C14.6019 41.4679 13.8916 41.5247 13.1908 41.3914C12.9478 41.3452 12.8471 41.266 12.8498 41.014C12.8592 39.9809 12.8015 38.9438 12.8699 37.9133C12.933 36.9515 12.9465 35.9737 13.2042 35.0317C13.3552 34.4663 13.7234 33.9806 14.2313 33.6766C14.3011 33.6331 14.379 33.6014 14.4166 33.5222C15.6061 33.4734 16.7957 33.4008 17.9852 33.3837C19.8648 33.356 21.7351 33.3058 23.6107 33.3481C23.8926 33.3481 24.1746 33.3401 24.4579 33.3349L28.6105 33.4351C29.1607 33.4923 29.714 33.5165 30.2672 33.5077L31.4407 33.6133C32.3093 33.9049 32.9363 34.4432 33.186 35.3351C33.2629 35.6618 33.3127 35.9941 33.3351 36.3287C33.3807 36.8565 33.417 37.3869 33.4599 37.916Z" fill="#DA5C6E"/>
<path d="M43.1653 20.9025C42.7593 21.2718 42.3326 21.6184 41.8872 21.9409C41.7959 21.8762 41.8093 21.7799 41.8093 21.6888C41.8093 21.1123 41.8093 20.5357 41.8093 19.9591C41.8093 19.7823 41.8415 19.6252 42.0335 19.5777C42.1161 19.546 42.2077 19.5455 42.2906 19.5765C42.3735 19.6075 42.4417 19.6676 42.4819 19.7453C42.7129 20.1279 42.9841 20.4895 43.1653 20.9025Z" fill="#62A2F8"/>
<path d="M18.3817 41.6037C18.3374 40.7711 18.3709 39.9386 18.3817 39.1047C18.3911 38.2154 18.9939 37.4158 20.0989 37.3894C21.432 37.3577 22.7652 37.3564 24.0998 37.3551C24.4887 37.358 24.8772 37.38 25.2638 37.4211C26.0398 37.4976 26.5983 38.1415 26.6185 39.0044C26.6386 39.8673 26.6292 40.7395 26.6333 41.6077C26.5433 42.8084 25.9767 43.323 24.7402 43.348C24.5657 43.348 24.3898 43.3586 24.2139 43.3652H20.8037C20.5459 43.3573 20.2882 43.3546 20.0304 43.3427C19.0167 43.2913 18.4649 42.7107 18.3817 41.6037ZM22.537 42.0088C23.2419 42.0668 23.9695 41.9864 24.6986 41.9494C24.7636 41.9508 24.8282 41.9396 24.8888 41.9164C24.9494 41.8932 25.0047 41.8585 25.0516 41.8142C25.0985 41.77 25.136 41.7171 25.1621 41.6585C25.1881 41.6 25.2022 41.537 25.2034 41.4731C25.301 40.7728 25.3037 40.0629 25.2114 39.362C25.1457 38.9371 25.0235 38.7498 24.6046 38.7458C23.1882 38.7326 21.7704 38.7366 20.3526 38.7458C20.2258 38.7347 20.0996 38.7717 19.9997 38.8493C19.8998 38.9268 19.8339 39.039 19.8156 39.1627C19.6914 39.9409 19.6914 40.7332 19.8156 41.5114C19.8284 41.6337 19.8875 41.7468 19.9813 41.8282C20.0751 41.9096 20.1966 41.9534 20.3217 41.9507C21.0508 41.9903 21.7798 42.0576 22.537 42.0088Z" fill="#FECE64"/>
<path d="M24.457 33.3344C24.8343 32.1351 25.2626 30.9594 25.9124 29.8669C26.3877 30.02 26.7905 30.309 27.2107 30.5623C27.8014 30.9199 28.3989 31.2722 28.8983 31.7577C28.8017 32.3154 28.7054 32.8744 28.6097 33.4347L24.457 33.3344Z" fill="#61A1F7"/>
<path d="M28.6094 33.4347C28.7051 32.8753 28.8014 32.3163 28.898 31.7577C29.5183 32.2155 30.0272 32.7605 30.2661 33.5073C29.7129 33.5161 29.1596 33.4919 28.6094 33.4347Z" fill="#80B3FA"/>
<path d="M22.5372 42.0087C21.78 42.0575 21.051 41.9902 20.322 41.9519C20.1969 41.9546 20.0753 41.9108 19.9815 41.8294C19.8878 41.748 19.8286 41.6349 19.8158 41.5126C19.6916 40.7344 19.6916 39.9421 19.8158 39.1639C19.8342 39.0402 19.9001 38.928 19.9999 38.8505C20.0998 38.7729 20.2261 38.7359 20.3528 38.747C21.7706 38.7391 23.1884 38.7351 24.6048 38.747C25.0237 38.747 25.1419 38.9383 25.2117 39.3632C25.3039 40.0641 25.3012 40.774 25.2036 41.4743C25.2024 41.5382 25.1884 41.6012 25.1623 41.6597C25.1363 41.7183 25.0987 41.7712 25.0518 41.8154C25.0049 41.8597 24.9496 41.8944 24.889 41.9176C24.8285 41.9408 24.7638 41.952 24.6988 41.9506C23.9698 41.9862 23.2421 42.0667 22.5372 42.0087ZM22.4809 40.9069H23.3321C24.1806 40.9069 24.1739 40.9069 24.1497 40.0691C24.1497 39.8593 24.0799 39.7841 23.8637 39.7867C23.1428 39.796 22.4218 39.7867 21.7008 39.7867C20.8214 39.7867 20.8281 39.7867 20.8644 40.643C20.8738 40.8383 20.9355 40.9069 21.1329 40.9069C21.5827 40.903 22.0324 40.903 22.4809 40.903V40.9069Z" fill="#FEC050"/>
<path d="M22.4783 40.9027C22.0299 40.9027 21.5801 40.9027 21.1357 40.9027C20.937 40.9027 20.8753 40.8367 20.8672 40.6388C20.8309 39.7864 20.8242 39.7851 21.7036 39.7825C22.4246 39.7825 23.1456 39.7904 23.8665 39.7825C24.0827 39.7825 24.1471 39.855 24.1525 40.0648C24.1767 40.8974 24.1834 40.8987 23.3349 40.9027H22.4837H22.4783Z" fill="#DA5C6E"/>
<path d="M47.2038 39.3695L45.1778 39.8828C45.0771 39.9079 44.9724 39.9237 44.8703 39.9435C44.7965 39.2099 44.7253 38.4749 44.6488 37.7413C44.557 36.8006 44.4131 35.8655 44.2178 34.9401C44.2013 34.8296 44.1435 34.729 44.0556 34.658C43.9677 34.587 43.8561 34.5507 43.7425 34.5562C43.2955 34.5351 43.0713 34.799 43.1679 35.2911C43.4995 36.9101 43.6419 38.5515 43.8003 40.1929L42.3019 40.4673C42.3369 39.1241 42.1972 37.7941 42.0334 36.4628C41.9314 35.6157 41.773 34.7779 41.6602 33.9334C41.6526 33.8524 41.6271 33.7739 41.5855 33.7036C41.5439 33.6332 41.4872 33.5726 41.4194 33.526C41.3515 33.4794 41.2741 33.4479 41.1925 33.4337C41.111 33.4195 41.0273 33.423 40.9473 33.4439C40.6613 33.494 40.5096 33.7724 40.5767 34.1142C40.5969 34.2158 40.5928 34.3213 40.613 34.4229C40.9968 36.4649 41.2065 38.5348 41.24 40.6111C38.6769 40.9766 36.0965 41.0254 33.5133 40.97C33.5133 40.7734 33.5066 40.5742 33.5066 40.3789C33.5066 39.5582 33.5388 38.7349 33.4556 37.9155C33.4126 37.3877 33.3764 36.8599 33.3213 36.3322C33.299 35.9976 33.2492 35.6653 33.1723 35.3386C32.9293 34.4467 32.3023 33.9083 31.4269 33.6167C31.3974 33.3294 31.3107 33.0506 31.1719 32.796C30.7436 31.8724 30.0051 31.2127 29.2305 30.5926C29.3406 29.7178 29.6628 28.8944 29.8722 28.0434C30.0226 27.4285 30.3126 26.8559 30.3717 26.2107C31.7873 26.3894 33.2115 26.4951 34.6384 26.5274C36.6221 26.5654 38.6056 26.4472 40.57 26.1738C41.1151 26.0999 41.679 26.088 42.1919 25.8518C43.4511 27.3919 44.5046 29.0839 45.3268 30.8868C46.1494 32.7004 46.7102 34.6181 46.993 36.5842C47.0547 37.0262 47.0292 37.4814 47.1903 37.9036L47.2038 39.3695Z" fill="#80B3FA"/>
<path d="M28.8865 21.9461C27.9198 21.2133 26.9733 20.4511 26.0469 19.6595C26.0563 19.3586 26.2134 19.1053 26.3154 18.8361C26.9009 17.3537 27.6673 15.9466 28.5978 14.6456C29.0954 13.9434 29.6442 13.2775 30.2398 12.6532C30.5983 12.6453 30.9594 12.6044 31.3072 12.7337C31.7744 14.6258 32.3114 16.4928 33.2808 18.2107C33.7184 18.9879 34.2206 19.7004 35.0261 20.1727C35.3148 20.3429 35.5363 20.2941 35.8022 20.1318C36.3748 19.76 36.8475 19.2575 37.1797 18.6672C38.294 16.8279 38.9613 14.8211 39.3949 12.7297C40.5308 12.4659 41.5605 12.6968 42.4346 13.4528C43.8886 14.7089 45.3184 15.9914 46.7604 17.2607C46.8947 17.3834 47.0558 17.489 47.2034 17.6025V17.6803L43.1663 20.9024C42.985 20.4894 42.7138 20.1279 42.4802 19.7452C42.44 19.6676 42.3718 19.6074 42.2889 19.5764C42.206 19.5455 42.1144 19.5459 42.0318 19.5777C41.8398 19.6252 41.8062 19.7822 41.8076 19.959C41.8076 20.5356 41.8076 21.1122 41.8076 21.6888C41.8076 21.7798 41.7941 21.8761 41.8854 21.9408C41.8133 22.0475 41.7854 22.1773 41.8076 22.3036C41.8076 23.1604 41.8076 24.0167 41.8076 24.8726C40.1831 25.177 38.5371 25.357 36.8843 25.4109C34.7823 25.5032 32.6761 25.4083 30.5916 25.1272C30.5916 23.28 30.5916 21.4372 30.5916 19.5988C30.599 19.4747 30.5799 19.3505 30.5355 19.2342C30.4911 19.1178 30.4225 19.0119 30.334 18.9231C30.2455 18.8344 30.139 18.7649 30.0215 18.719C29.904 18.6731 29.7781 18.6519 29.6517 18.6567C29.5104 18.664 29.3688 18.664 29.2275 18.6567C28.959 18.6237 28.8891 18.7411 28.8918 18.9931C28.8999 19.9761 28.8891 20.9618 28.8865 21.9461Z" fill="#80B3FA"/>
<path d="M33.4186 42.1577C33.4046 42.8544 33.3309 43.5487 33.1984 44.2332C32.9877 45.2518 32.0317 46.0105 30.9724 46.0712C26.6251 46.3206 22.2738 46.3245 17.9224 46.2546C16.7289 46.2361 15.5366 46.1688 14.3431 46.1226C14.327 45.9709 14.182 45.9234 14.0853 45.8588C13.5979 45.521 13.3321 45.0394 13.167 44.4984C13.1014 44.2171 13.0627 43.9304 13.0515 43.6421C13.0032 43.2054 12.9844 43.1948 13.4288 43.2093C14.6532 43.2489 15.8763 43.3004 17.1008 43.3413C17.713 43.365 18.3239 43.3413 18.9374 43.3927C19.551 43.4442 20.1834 43.4772 20.8023 43.3571H24.2111C24.7119 43.4653 25.2087 43.3716 25.7095 43.3571C26.754 43.3175 27.8012 43.3571 28.8471 43.2819C29.6433 43.2278 30.4448 43.2463 31.2423 43.1988C31.677 43.1842 32.1033 43.0761 32.4909 42.8821C32.8507 42.6908 33.1165 42.4071 33.4186 42.1577Z" fill="#DA5C6E"/>
<path d="M29.2452 30.5888C30.0199 31.2142 30.7584 31.8713 31.1866 32.7923C31.3255 33.0468 31.4121 33.3256 31.4417 33.6129L30.2683 33.5074C30.0293 32.7606 29.5205 32.2157 28.9002 31.7578C28.4008 31.2723 27.8033 30.92 27.2126 30.5624C26.7923 30.3091 26.3896 30.0201 25.9143 29.8657C25.8821 29.8327 25.8565 29.7866 25.8163 29.7668C24.0718 28.8924 22.3264 28.0176 20.5802 27.1424C20.4378 27.0711 20.3667 27.1239 20.2767 27.2123C19.2362 28.2309 18.0507 29.0807 16.8921 29.9607C16.1348 30.5347 15.3736 31.1073 14.7439 31.8277C14.3237 32.3107 13.9853 32.8358 13.9746 33.5034C13.5997 33.5124 13.2266 33.5566 12.8602 33.6354C12.8361 32.6036 13.3154 31.7816 13.984 31.0427C14.9238 30.0109 16.0704 29.2284 17.17 28.3866C17.8614 27.8589 18.5394 27.3179 19.1919 26.7426C19.3839 26.5737 19.3946 26.4972 19.1516 26.36C18.0641 25.7438 17.0209 25.0656 16.1456 24.1657C14.803 22.7895 14.5237 21.3039 15.234 19.6572C15.9052 18.1002 17.6694 17.3521 19.4806 17.7836C21.9818 18.3786 23.3231 20.6626 22.6934 23.2527C22.4437 24.2596 21.9812 25.2037 21.336 26.0235C21.2434 26.1436 21.1548 26.2293 21.3683 26.3336C23.0331 27.1595 24.6961 27.9895 26.3573 28.8234C26.3913 28.8333 26.4266 28.8378 26.4621 28.8366C26.4929 28.8695 26.5184 28.9157 26.5574 28.9355C27.489 29.4285 28.3869 29.9808 29.2452 30.5888ZM21.7428 22.3436C21.7563 20.4027 20.7708 19.1769 19.1825 18.8273C17.6654 18.4908 16.355 19.2561 16.0529 20.6336C15.9417 21.0868 15.9472 21.5601 16.0688 22.0107C16.1905 22.4613 16.4245 22.875 16.7497 23.2144C17.6788 24.2515 18.8616 24.9508 20.0579 25.6343C20.0753 25.6492 20.0959 25.66 20.1182 25.6659C20.1405 25.6718 20.1639 25.6726 20.1865 25.6682C20.2092 25.6639 20.2305 25.6546 20.249 25.6409C20.2674 25.6272 20.2824 25.6096 20.2928 25.5894C21.14 24.5418 21.7173 23.382 21.7428 22.3436Z" fill="#427294"/>
<path d="M12.8645 33.638C13.2308 33.5592 13.604 33.5151 13.9789 33.5061L14.4152 33.5246C14.3776 33.6037 14.2997 33.6354 14.2299 33.679C13.7211 33.9856 13.3537 34.475 13.2055 35.0433C12.9478 35.9853 12.937 36.963 12.8712 37.9249C12.8028 38.9554 12.8605 39.9925 12.8511 41.0256C12.8511 41.2776 12.9491 41.3568 13.1921 41.403C13.8929 41.5349 14.6032 41.4795 15.3053 41.5112C16.3284 41.556 17.3528 41.6431 18.3799 41.6062C18.4631 42.7132 19.0149 43.2937 20.0286 43.3412C20.2864 43.3531 20.5441 43.3558 20.8019 43.3637C20.183 43.4837 19.552 43.4481 18.9371 43.3993C18.3222 43.3505 17.7126 43.3716 17.1004 43.3478C15.8759 43.3017 14.6528 43.2502 13.4284 43.2159C12.984 43.2014 13.0028 43.2159 13.0511 43.6487C13.0624 43.937 13.101 44.2237 13.1666 44.505C13.3317 45.046 13.5976 45.5276 14.0849 45.8653C14.1816 45.9326 14.3266 45.9801 14.3427 46.1292C13.4673 46.1635 12.6228 46.0857 11.926 45.4761C11.4414 45.0414 11.1445 44.4409 11.0963 43.7978C10.8532 41.794 10.797 39.7725 10.9285 37.7587C10.9768 37.0765 11.0319 36.3957 11.1232 35.7175C11.2655 34.6685 11.8643 33.989 12.8645 33.638Z" fill="#D54653"/>
<path d="M39.3925 12.7379C38.9588 14.8266 38.2915 16.8282 37.1772 18.6754C36.845 19.2657 36.3724 19.7682 35.7997 20.14C35.5312 20.3023 35.3123 20.3511 35.0237 20.1809C34.2248 19.7085 33.7187 18.9934 33.2783 18.2189C32.3089 16.5036 31.7719 14.634 31.3047 12.7419C32.0109 12.8527 32.5573 13.2406 33.0501 13.7156C33.4689 14.1115 33.9321 14.4572 34.5068 14.6023C35.6117 14.8781 36.6079 14.6617 37.4605 13.899C37.976 13.4359 38.4889 12.9754 39.183 12.7775C39.2521 12.7607 39.322 12.7475 39.3925 12.7379Z" fill="#61A2F8"/>
<path d="M41.8085 24.873C42.3844 25.0709 42.4798 25.2952 42.2019 25.848C41.689 26.0842 41.1278 26.0961 40.58 26.17C38.6155 26.4425 36.632 26.5599 34.6484 26.521C33.2215 26.4887 31.7973 26.383 30.3817 26.2043C29.7694 26.0724 29.1263 26.0961 28.5396 25.8415C28.2456 25.3691 28.349 25.0894 28.8994 24.869L30.5925 25.125C32.677 25.406 34.7832 25.501 36.8852 25.4087C38.5379 25.3556 40.184 25.1765 41.8085 24.873Z" fill="#FCCF66"/>
<path d="M33.4184 42.1571C33.1164 42.4065 32.8505 42.6849 32.4907 42.8788C32.1033 43.0737 31.677 43.1827 31.2421 43.1981C30.4446 43.2456 29.6431 43.2271 28.8469 43.2812C27.801 43.3525 26.7538 43.3169 25.7093 43.3565C25.2085 43.3749 24.7117 43.4686 24.2109 43.3565C24.3868 43.3499 24.5627 43.3419 24.7372 43.3393C25.9738 43.3195 26.5403 42.7996 26.6303 41.599C27.3123 41.5752 27.9944 41.5343 28.6777 41.5317C29.3611 41.529 30.0633 41.4406 30.7601 41.4419C31.0903 41.4485 31.4181 41.3856 31.7214 41.2572C32.7257 40.8099 33.1982 40.0275 33.3043 38.9719C33.3419 38.6196 33.2707 38.2436 33.4601 37.9164C33.5433 38.7358 33.5084 39.5591 33.5111 40.3798C33.5111 40.5777 33.5111 40.7756 33.5178 40.9709C33.5121 41.368 33.479 41.7644 33.4184 42.1571Z" fill="#D54653"/>
<path d="M30.2414 12.6586C29.6451 13.2811 29.0954 13.9452 28.5967 14.6457C27.6666 15.945 26.9002 17.3503 26.3143 18.8309C26.2109 19.0948 26.0538 19.3587 26.0458 19.6543C25.2053 19.0737 24.4561 18.3836 23.6492 17.7622C23.4653 17.621 23.6492 17.5418 23.7338 17.4693C24.2816 16.9758 24.833 16.4858 25.3879 15.9994C26.4083 15.1035 27.4192 14.1957 28.4584 13.3222C28.9522 12.8975 29.5852 12.6619 30.2414 12.6586Z" fill="#62A2F8"/>
<path d="M30.5958 25.127L28.9028 24.871L28.8867 21.9458C28.8867 20.9615 28.9001 19.9758 28.8867 18.9902C28.8867 18.7382 28.9498 18.6208 29.2224 18.6538C29.3637 18.661 29.5053 18.661 29.6466 18.6538C29.773 18.6489 29.8989 18.6702 30.0164 18.7161C30.1339 18.7619 30.2404 18.8315 30.3289 18.9202C30.4174 19.0089 30.486 19.1149 30.5304 19.2313C30.5747 19.3476 30.5938 19.4718 30.5864 19.5958C30.5954 21.4395 30.5985 23.2833 30.5958 25.127Z" fill="#62A2F8"/>
<path d="M28.5445 25.8436C29.1312 26.0983 29.7743 26.0745 30.3866 26.2065C30.3275 26.8451 30.0375 27.4243 29.8871 28.0392C29.6777 28.8902 29.3501 29.7136 29.2454 30.5884C28.3878 29.9809 27.4908 29.4291 26.5602 28.9364C26.5212 28.9166 26.4957 28.8704 26.4648 28.8374C27.0523 27.7724 27.7492 26.7692 28.5445 25.8436Z" fill="#61A1F7"/>
<path d="M41.2454 40.6109C41.212 38.5346 41.0023 36.4647 40.6184 34.4227C40.5983 34.3211 40.6023 34.2155 40.5822 34.1139C40.515 33.7722 40.6668 33.4938 40.9527 33.4437C41.0328 33.4228 41.1165 33.4193 41.198 33.4335C41.2795 33.4477 41.3569 33.4792 41.4248 33.5258C41.4927 33.5724 41.5494 33.633 41.591 33.7033C41.6326 33.7737 41.6581 33.8521 41.6656 33.9332C41.7784 34.7776 41.9342 35.6155 42.0389 36.4625C42.1973 37.7939 42.3369 39.1239 42.3074 40.4671L41.2454 40.6109Z" fill="#61A2F8"/>
<path d="M43.7996 40.1924C43.6411 38.551 43.4988 36.9096 43.1672 35.2907C43.0679 34.7985 43.3015 34.5346 43.7418 34.5557C43.8554 34.5503 43.967 34.5866 44.0549 34.6576C44.1427 34.7285 44.2006 34.8291 44.2171 34.9397C44.4122 35.8633 44.5561 36.7967 44.6481 37.7356C44.7246 38.4692 44.7958 39.2041 44.8696 39.9378C44.5219 40.0555 44.1636 40.1408 43.7996 40.1924Z" fill="#61A2F8"/>
<path d="M33.4599 37.916C33.2706 38.2485 33.3418 38.6245 33.3042 38.9715C33.1941 40.0271 32.7255 40.8095 31.7213 41.2568C31.4179 41.3851 31.0902 41.4481 30.76 41.4415C30.0632 41.4415 29.3731 41.5299 28.6776 41.5312C27.9822 41.5326 27.3122 41.5748 26.6302 41.5985C26.6302 40.7303 26.6302 39.8622 26.6154 38.9953C26.6006 38.1284 26.0367 37.4937 25.2607 37.4119C24.8741 37.3709 24.4856 37.3488 24.0967 37.346C22.7622 37.346 21.429 37.346 20.0958 37.3803C18.9908 37.4053 18.388 38.2049 18.3786 39.0956C18.3692 39.9294 18.3356 40.762 18.3786 41.5946C17.3515 41.6249 16.3271 41.5444 15.3041 41.4996C14.6019 41.4679 13.8916 41.5247 13.1908 41.3914C12.9478 41.3452 12.8471 41.266 12.8498 41.014C12.8592 39.9809 12.8015 38.9438 12.8699 37.9133C12.933 36.9515 12.9465 35.9737 13.2042 35.0317C13.3552 34.4663 13.7234 33.9806 14.2313 33.6766C14.3011 33.6331 14.379 33.6014 14.4166 33.5222C15.6061 33.4734 16.7957 33.4008 17.9852 33.3837C19.8648 33.356 21.7351 33.3058 23.6107 33.3481C23.8926 33.3481 24.1746 33.3401 24.4579 33.3349L28.6105 33.4351C29.1607 33.4923 29.714 33.5165 30.2672 33.5077L31.4407 33.6133C32.3093 33.9049 32.9363 34.4432 33.186 35.3351C33.2629 35.6618 33.3127 35.9941 33.3351 36.3287C33.3807 36.8565 33.417 37.3869 33.4599 37.916Z" fill="#DA5C6E"/>
<path d="M43.1653 20.9025C42.7593 21.2718 42.3326 21.6184 41.8872 21.9409C41.7959 21.8762 41.8093 21.7799 41.8093 21.6888C41.8093 21.1123 41.8093 20.5357 41.8093 19.9591C41.8093 19.7823 41.8415 19.6252 42.0335 19.5777C42.1161 19.546 42.2077 19.5455 42.2906 19.5765C42.3735 19.6075 42.4417 19.6676 42.4819 19.7453C42.7129 20.1279 42.9841 20.4895 43.1653 20.9025Z" fill="#62A2F8"/>
<path d="M18.3817 41.6037C18.3374 40.7711 18.3709 39.9386 18.3817 39.1047C18.3911 38.2154 18.9939 37.4158 20.0989 37.3894C21.432 37.3577 22.7652 37.3564 24.0998 37.3551C24.4887 37.358 24.8772 37.38 25.2638 37.4211C26.0398 37.4976 26.5983 38.1415 26.6185 39.0044C26.6386 39.8673 26.6292 40.7395 26.6333 41.6077C26.5433 42.8084 25.9767 43.323 24.7402 43.348C24.5657 43.348 24.3898 43.3586 24.2139 43.3652H20.8037C20.5459 43.3573 20.2882 43.3546 20.0304 43.3427C19.0167 43.2913 18.4649 42.7107 18.3817 41.6037ZM22.537 42.0088C23.2419 42.0668 23.9695 41.9864 24.6986 41.9494C24.7636 41.9508 24.8282 41.9396 24.8888 41.9164C24.9494 41.8932 25.0047 41.8585 25.0516 41.8142C25.0985 41.77 25.136 41.7171 25.1621 41.6585C25.1881 41.6 25.2022 41.537 25.2034 41.4731C25.301 40.7728 25.3037 40.0629 25.2114 39.362C25.1457 38.9371 25.0235 38.7498 24.6046 38.7458C23.1882 38.7326 21.7704 38.7366 20.3526 38.7458C20.2258 38.7347 20.0996 38.7717 19.9997 38.8493C19.8998 38.9268 19.8339 39.039 19.8156 39.1627C19.6914 39.9409 19.6914 40.7332 19.8156 41.5114C19.8284 41.6337 19.8875 41.7468 19.9813 41.8282C20.0751 41.9096 20.1966 41.9534 20.3217 41.9507C21.0508 41.9903 21.7798 42.0576 22.537 42.0088Z" fill="#FECE64"/>
<path d="M24.457 33.3344C24.8343 32.1351 25.2626 30.9594 25.9124 29.8669C26.3877 30.02 26.7905 30.309 27.2107 30.5623C27.8014 30.9199 28.3989 31.2722 28.8983 31.7577C28.8017 32.3154 28.7054 32.8744 28.6097 33.4347L24.457 33.3344Z" fill="#61A1F7"/>
<path d="M28.6094 33.4347C28.7051 32.8753 28.8014 32.3163 28.898 31.7577C29.5183 32.2155 30.0272 32.7605 30.2661 33.5073C29.7129 33.5161 29.1596 33.4919 28.6094 33.4347Z" fill="#80B3FA"/>
<path d="M22.5372 42.0087C21.78 42.0575 21.051 41.9902 20.322 41.9519C20.1969 41.9546 20.0753 41.9108 19.9815 41.8294C19.8878 41.748 19.8286 41.6349 19.8158 41.5126C19.6916 40.7344 19.6916 39.9421 19.8158 39.1639C19.8342 39.0402 19.9001 38.928 19.9999 38.8505C20.0998 38.7729 20.2261 38.7359 20.3528 38.747C21.7706 38.7391 23.1884 38.7351 24.6048 38.747C25.0237 38.747 25.1419 38.9383 25.2117 39.3632C25.3039 40.0641 25.3012 40.774 25.2036 41.4743C25.2024 41.5382 25.1884 41.6012 25.1623 41.6597C25.1363 41.7183 25.0987 41.7712 25.0518 41.8154C25.0049 41.8597 24.9496 41.8944 24.889 41.9176C24.8285 41.9408 24.7638 41.952 24.6988 41.9506C23.9698 41.9862 23.2421 42.0667 22.5372 42.0087ZM22.4809 40.9069H23.3321C24.1806 40.9069 24.1739 40.9069 24.1497 40.0691C24.1497 39.8593 24.0799 39.7841 23.8637 39.7867C23.1428 39.796 22.4218 39.7867 21.7008 39.7867C20.8214 39.7867 20.8281 39.7867 20.8644 40.643C20.8738 40.8383 20.9355 40.9069 21.1329 40.9069C21.5827 40.903 22.0324 40.903 22.4809 40.903V40.9069Z" fill="#FEC050"/>
<path d="M22.4783 40.9027C22.0299 40.9027 21.5801 40.9027 21.1357 40.9027C20.937 40.9027 20.8753 40.8367 20.8672 40.6388C20.8309 39.7864 20.8242 39.7851 21.7036 39.7825C22.4246 39.7825 23.1456 39.7904 23.8665 39.7825C24.0827 39.7825 24.1471 39.855 24.1525 40.0648C24.1767 40.8974 24.1834 40.8987 23.3349 40.9027H22.4837H22.4783Z" fill="#DA5C6E"/>
</svg>
