<svg width="40" height="42" viewBox="0 0 40 42" fill="none" xmlns="http://www.w3.org/2000/svg">
<path d="M18.987 20.7926C18.987 19.9157 18.963 19.0375 18.9771 18.162C18.987 17.576 19.3386 17.2343 19.9302 17.2131C21.1587 17.1665 22.0949 16.0708 22.0878 14.9298C22.0794 13.3978 22.0878 11.8671 22.0878 10.3351C22.0878 9.62905 22.3702 9.34664 23.0692 9.34664C23.5267 9.34664 23.9842 9.34664 24.4403 9.34664C24.95 9.34664 25.2734 9.67141 25.2748 10.1783C25.2748 11.0806 25.2748 11.9815 25.2748 12.8838C25.2748 14.8268 26.5597 16.3941 28.4843 16.6666C29.3674 16.7862 30.264 16.584 31.0104 16.0972C31.7568 15.6103 32.3031 14.8712 32.5496 14.0148C32.7529 13.3342 32.6739 12.6452 32.6908 11.9589C32.7035 11.428 32.6908 10.8971 32.6908 10.3647C32.6908 9.63611 32.9831 9.34523 33.7216 9.34241C34.1452 9.34241 34.5688 9.34241 34.9825 9.34241C35.6335 9.34241 35.9512 9.65164 35.9526 10.3153C35.9526 11.8685 35.9526 13.4218 35.9526 14.9849C35.951 15.5641 36.177 16.1207 36.5819 16.5349C36.9868 16.949 37.5382 17.1875 38.1173 17.199C38.5268 17.206 38.7767 17.4235 38.9913 17.7271V20.7672C38.8318 20.7573 38.7089 20.859 38.5818 20.9211C35.5168 22.3934 32.4522 23.8694 29.3881 25.3493C29.2677 25.4167 29.132 25.4521 28.9941 25.4521C28.8561 25.4521 28.7205 25.4167 28.6001 25.3493C25.5162 23.8553 22.4272 22.3703 19.3329 20.8943C19.2242 20.8307 19.1225 20.7517 18.987 20.7926ZM29.2779 20.7615V19.9835C29.2779 19.1702 28.8995 18.8144 28.0876 18.8539C27.712 18.8751 27.4592 19.0713 27.4423 19.389C27.4332 19.4601 27.4383 19.5323 27.4573 19.6014C27.4763 19.6705 27.5088 19.7351 27.5529 19.7916C27.597 19.848 27.6519 19.8952 27.7143 19.9303C27.7768 19.9654 27.8456 19.9878 27.9167 19.9962C28.0946 20.0315 28.1285 20.1148 28.1257 20.2786C28.1257 20.746 28.1172 21.2148 28.1257 21.6836C28.1333 21.725 28.1325 21.7675 28.1232 21.8085C28.1139 21.8496 28.0964 21.8883 28.0717 21.9224C28.047 21.9564 28.0157 21.9851 27.9796 22.0067C27.9435 22.0283 27.9033 22.0423 27.8616 22.0479C27.747 22.0947 27.651 22.1777 27.5882 22.2844C27.5254 22.3911 27.4994 22.5154 27.5141 22.6383C27.5289 22.7611 27.5836 22.8758 27.6699 22.9645C27.7561 23.0533 27.8691 23.1113 27.9915 23.1295C28.4713 23.1557 28.9521 23.1557 29.4318 23.1295C29.5576 23.1204 29.6757 23.0658 29.7641 22.9759C29.8525 22.8859 29.905 22.7669 29.9119 22.641C29.95 22.3981 29.8484 22.1397 29.6295 22.0973C29.2144 22.0154 29.2723 21.7443 29.2751 21.4662C29.2807 21.2303 29.2779 20.9959 29.2779 20.7615Z" fill="#86C7F3"/>
<path d="M18.9897 20.7939C19.1309 20.7529 19.2269 20.8362 19.3356 20.8885C22.4261 22.3711 25.5152 23.8561 28.6028 25.3435C28.7232 25.4109 28.8588 25.4463 28.9968 25.4463C29.1348 25.4463 29.2704 25.4109 29.3908 25.3435C32.453 23.8608 35.519 22.3857 38.5888 20.9181C38.7187 20.856 38.8387 20.7543 38.9983 20.7642V33.9654C38.8246 34.3283 38.6763 34.7039 38.3643 34.9834C37.9011 35.3958 37.3448 35.5031 36.7517 35.5045L36.1968 35.5129C36.1883 35.3717 36.1728 35.2178 36.1728 35.071C36.1728 33.3539 36.1728 31.6383 36.1728 29.9213C36.1728 29.1983 35.6305 28.5092 34.9288 28.4288C34.1239 28.3454 33.593 28.2876 33.2018 29.3226C32.5156 31.1427 30.4681 32.2187 28.5718 31.7767C27.1795 31.4519 26.1911 30.6273 25.6418 29.2986C25.3707 28.6434 25.0205 28.4033 24.3088 28.4019C23.9389 28.4019 23.5689 28.4019 23.199 28.4132C22.8508 28.372 22.4995 28.4588 22.2105 28.6575C21.4833 29.1009 20.7562 29.5443 20.0191 29.9693C19.6802 30.1656 19.3752 30.4268 18.9883 30.5341L18.9897 20.7939Z" fill="#EC5176"/>
<path d="M23.1703 28.4163C23.5417 28.4163 23.9116 28.4035 24.2816 28.405C24.9876 28.405 25.3434 28.6464 25.6145 29.3016C26.1638 30.6303 27.1522 31.455 28.5445 31.7797C30.4409 32.2217 32.4883 31.1457 33.1746 29.3256C33.5657 28.2892 34.0966 28.3485 34.9015 28.4318C35.6075 28.5066 36.1441 29.2013 36.1455 29.9243C36.1455 31.6413 36.1455 33.357 36.1455 35.074C36.1455 35.2152 36.161 35.3691 36.1695 35.516C36.1629 36.2587 36.1563 37.001 36.1497 37.7428L27.3146 37.7343C27.2073 37.5705 27.1042 37.401 26.9913 37.2401C25.4917 35.0834 23.9907 32.9272 22.4883 30.7715C22.8554 30.4298 23.1604 30.0542 23.1689 29.5191C23.1774 29.1519 23.1703 28.7834 23.1703 28.4163Z" fill="#8CB9F8"/>
<path d="M10.1356 13.9355L11.2454 13.9483C11.6892 13.9482 12.1154 14.1222 12.4322 14.433C12.7491 14.7438 12.9313 15.1665 12.9399 15.6102C12.9596 15.9059 12.9596 16.2027 12.9399 16.4984C12.9116 16.7921 13.0302 16.8373 13.2929 16.8373C13.7461 16.8373 14.2036 16.7695 14.6541 16.8938C15.1738 17.0259 15.6272 17.3438 15.9287 17.7873C16.2303 18.2308 16.359 18.7693 16.2908 19.3013C16.2225 19.8332 15.9619 20.3218 15.5581 20.6748C15.1544 21.0278 14.6354 21.2208 14.0991 21.2174C12.7803 21.2174 11.46 21.2174 10.1454 21.2174H7.18016C5.86131 21.2104 4.54106 21.2174 3.22645 21.1934C1.75794 21.1722 0.76951 19.8958 1.09851 18.4654C1.21365 18.0143 1.47067 17.6122 1.83168 17.3183C2.19269 17.0244 2.63858 16.8543 3.10361 16.833C3.42392 16.8161 3.7449 16.8161 4.0652 16.833C4.33631 16.8528 4.40268 16.7469 4.38574 16.497C4.36879 16.2471 4.37726 15.9548 4.38574 15.6836C4.40409 14.6712 5.10305 13.9737 6.11831 13.9525C6.47555 13.944 6.8328 13.9398 7.19145 13.9355C8.15587 13.9723 9.14571 13.9737 10.1356 13.9355Z" fill="#575B7A"/>
<path d="M27.3426 37.7321L36.1777 37.7406C36.1777 38.2842 36.1777 38.8279 36.1777 39.3715C36.1777 40.3896 35.483 41.0885 34.4607 41.0885C30.1116 41.0885 25.7621 41.0885 21.412 41.0885C18.9645 41.0885 16.517 41.0885 14.0694 41.0885C12.8593 41.0885 11.8638 40.6579 11.1282 39.6765C11.0694 39.6138 11.003 39.5588 10.9305 39.5127C10.987 39.3715 10.8797 39.2811 10.8288 39.1752C10.6311 38.8068 10.5142 38.4006 10.4857 37.9835C10.4857 37.9736 10.4984 37.9609 10.4956 37.9538C10.4928 37.9468 10.4772 37.9171 10.4688 37.9002C10.4688 37.8536 10.4688 37.807 10.4688 37.759C10.6537 37.759 10.8387 37.7448 11.0237 37.7448L19.0638 37.7307H21.8399H24.5891L27.3426 37.7321Z" fill="black"/>
<path d="M10.4686 37.76C10.4686 37.8066 10.4686 37.8532 10.4686 37.9012C10.4686 37.9111 10.453 37.9224 10.4559 37.9295C10.4643 37.9486 10.4743 37.967 10.4855 37.9845C10.514 38.4017 10.6309 38.8079 10.8286 39.1763C10.8795 39.2822 10.9868 39.374 10.9303 39.5138H10.1382C9.1513 39.4431 8.16106 39.4322 7.17288 39.4813L6.06443 39.4587C5.84054 39.4637 5.61796 39.4233 5.41011 39.34C5.20226 39.2566 5.01346 39.1319 4.85511 38.9736C4.69676 38.8152 4.57213 38.6264 4.48875 38.4186C4.40537 38.2107 4.36497 37.9882 4.36999 37.7643C4.35587 37.4929 4.35587 37.2209 4.36999 36.9495C4.39117 36.6812 4.31351 36.5739 4.02545 36.5909C3.66831 36.6154 3.30971 36.6088 2.95371 36.5711C2.4052 36.5087 1.90102 36.2398 1.54368 35.819C1.18635 35.3982 1.00267 34.8571 1.03001 34.3058C1.05734 33.7544 1.29363 33.2341 1.69084 32.8507C2.08804 32.4673 2.61635 32.2496 3.16834 32.2418C4.49989 32.2234 5.83286 32.2263 7.16582 32.2206H10.1424C11.3709 32.2743 12.6008 32.2065 13.8292 32.2051C14.394 32.2051 14.9264 32.2997 15.4036 32.6188C15.4375 32.7741 15.2977 32.7911 15.2158 32.8476C15.0069 32.9888 14.7922 33.13 14.5818 33.2712C13.7459 33.6948 12.9636 34.2031 12.1644 34.6832C11.0249 35.3906 10.4813 36.4257 10.4686 37.76Z" fill="#575B7A"/>
<path d="M10.1406 32.2334H7.16406C7.16406 28.5621 7.16406 24.8908 7.16406 21.2195H10.1293C10.135 24.8917 10.1388 28.563 10.1406 32.2334Z" fill="#86C7F3"/>
<path d="M14.5693 33.2775C14.7811 33.1363 14.9929 33.0036 15.2033 32.8539C15.2852 32.7974 15.425 32.7805 15.3911 32.6252C15.956 32.4458 16.4262 32.0731 16.9317 31.7779C17.6151 31.3727 18.3197 30.9985 18.9664 30.5297C19.3533 30.4252 19.6583 30.164 19.9972 29.9649C20.7343 29.5413 21.4615 29.0965 22.1887 28.6531C22.4776 28.4544 22.8289 28.3676 23.1771 28.4088C23.1771 28.776 23.1771 29.1445 23.1771 29.5116C23.1686 30.0468 22.8636 30.4224 22.4965 30.7641C21.7975 31.0833 21.1375 31.4817 20.5295 31.9516C20.1243 32.0533 19.8066 32.3202 19.4635 32.532C19.181 32.7085 18.8238 32.8017 18.6402 33.1236C18.5673 33.1207 18.4944 33.1318 18.4256 33.1561C17.8283 33.5176 17.2028 33.8353 16.6394 34.2533C16.4284 34.3522 16.2114 34.4381 15.9898 34.5102C15.5083 34.6387 15.0932 34.4792 14.7345 34.153C14.4535 33.9059 14.4437 33.6037 14.5693 33.2775Z" fill="black"/>
<path d="M7.16428 39.4865C8.15245 39.4374 9.14269 39.4482 10.1296 39.5189C10.1296 40.0117 10.1296 40.5074 10.1296 40.9973C10.1296 41.5621 9.93611 41.7542 9.37976 41.7556C8.85025 41.7556 8.32074 41.7556 7.79122 41.7556C7.40009 41.7556 7.17557 41.541 7.1671 41.1484C7.16145 40.5977 7.16569 40.04 7.16428 39.4865Z" fill="#E8E8E9"/>
<path d="M10.1293 13.9344C9.14092 13.9726 8.15249 13.9712 7.16406 13.9443C7.16406 13.4247 7.16406 12.9051 7.16406 12.3911C7.16406 11.9195 7.42953 11.6554 7.89832 11.6512C8.36712 11.6469 8.86133 11.6512 9.34284 11.6512C9.85823 11.6512 10.1152 11.9011 10.1265 12.4207C10.1378 12.9404 10.1279 13.4289 10.1293 13.9344Z" fill="#E8E8E9"/>
<path d="M29.2744 20.7621C29.2744 20.9965 29.2744 21.2309 29.2744 21.4681C29.2744 21.7505 29.2136 22.0174 29.6288 22.0993C29.8491 22.1416 29.9507 22.4001 29.9112 22.6429C29.9043 22.7688 29.8517 22.8879 29.7634 22.9778C29.675 23.0678 29.5569 23.1224 29.4311 23.1315C28.9514 23.1576 28.4706 23.1576 27.9908 23.1315C27.8684 23.1132 27.7554 23.0552 27.6691 22.9665C27.5829 22.8777 27.5282 22.7631 27.5134 22.6402C27.4987 22.5173 27.5247 22.393 27.5875 22.2863C27.6502 22.1797 27.7463 22.0966 27.8609 22.0499C27.9037 22.0449 27.945 22.031 27.9822 22.0092C28.0193 21.9874 28.0515 21.9581 28.0768 21.9232C28.102 21.8883 28.1197 21.8485 28.1287 21.8064C28.1377 21.7642 28.1379 21.7207 28.1292 21.6785C28.1179 21.2097 28.1207 20.7409 28.1292 20.2735C28.1292 20.1168 28.0981 20.0335 27.9202 19.9911C27.8491 19.9827 27.7803 19.9603 27.7178 19.9252C27.6554 19.8901 27.6005 19.8429 27.5564 19.7865C27.5123 19.73 27.4798 19.6654 27.4608 19.5963C27.4418 19.5272 27.4367 19.455 27.4458 19.3839C27.4627 19.0662 27.7155 18.87 28.0911 18.8488C28.903 18.8036 29.28 19.1594 29.2814 19.9784L29.2744 20.7621Z" fill="#575B7A"/>
<path d="M20.543 31.9589C21.1509 31.489 21.8109 31.0905 22.5099 30.7714C24.0114 32.9271 25.5124 35.0833 27.0129 37.2399C27.1259 37.4009 27.229 37.5703 27.3363 37.7341H24.587L24.2284 37.2201L20.543 31.9589Z" fill="#F7AA4D"/>
<path d="M14.5891 33.2773C14.4634 33.6035 14.4733 33.9057 14.75 34.1585C15.1087 34.4846 15.5238 34.6442 16.0053 34.5157C16.2267 34.4434 16.4436 34.3581 16.6549 34.2601C17.4579 35.4161 18.2608 36.573 19.0638 37.7309L11.0237 37.745C10.8387 37.745 10.6537 37.7535 10.4688 37.7591C10.4688 36.4248 11.0251 35.3898 12.1717 34.6936C12.9709 34.2093 13.7531 33.6981 14.5891 33.2773Z" fill="#8CB9F8"/>
<path d="M20.5495 31.9586L24.2349 37.2227L24.5935 37.7367H21.8443C21.7356 37.5743 21.6297 37.4077 21.5181 37.2467C20.5645 35.8723 19.6119 34.5003 18.6602 33.1306C18.8437 32.8087 19.1981 32.7155 19.4834 32.539C19.8265 32.3272 20.1442 32.0603 20.5495 31.9586Z" fill="#8CB9F8"/>
<path d="M18.6454 33.13C19.599 34.4996 20.5516 35.8703 21.5034 37.2418C21.6149 37.4028 21.7208 37.5694 21.8295 37.7318H19.0535C18.2514 36.5739 17.4485 35.417 16.6445 34.261C17.2093 33.8374 17.8335 33.5239 18.4308 33.1624C18.4996 33.1381 18.5724 33.1271 18.6454 33.13Z" fill="#F7AA4D"/>
<path d="M10.4789 37.9825C10.4676 37.9649 10.4577 37.9465 10.4492 37.9274C10.4492 37.9204 10.4492 37.9091 10.4619 37.8992C10.4704 37.9161 10.4817 37.9345 10.4888 37.9528C10.4958 37.9712 10.4831 37.9726 10.4789 37.9825Z" fill="#8CB9F8"/>
</svg>
