<svg width="40" height="42" viewBox="0 0 40 42" fill="none" xmlns="http://www.w3.org/2000/svg">
<path d="M34.6424 22.5321C34.5127 22.6721 34.5724 22.8446 34.5724 23.0014C34.5724 28.8659 34.5724 34.7294 34.5724 40.5922C34.5724 41.0757 34.5724 41.077 34.0759 41.077H5.84903C5.34995 41.077 5.34995 41.077 5.34995 40.5584C5.34995 34.7087 5.34995 28.8581 5.34995 23.0066C5.34995 22.8497 5.40958 22.6773 5.28125 22.536C5.30473 22.507 5.33029 22.4797 5.35773 22.4544C10.1488 18.6821 14.9395 14.9095 19.7298 11.1364C19.9514 10.9614 20.0733 11.0496 20.2483 11.1857C23.1572 13.4792 26.0682 15.7694 28.9814 18.056C30.868 19.545 32.7549 21.0371 34.6424 22.5321ZM27.4855 27.2273C27.4779 26.9376 27.4545 26.6486 27.4155 26.3614C27.1031 24.732 26.1892 23.5744 24.6051 23.0546C22.9705 22.5179 21.494 22.912 20.2314 24.0579C19.9981 24.2705 19.897 24.2627 19.6753 24.0501C17.7412 22.1847 14.6042 22.4946 13.1511 24.6983C12.2437 26.0684 12.2087 27.5773 12.7492 29.0512C14.0455 32.5694 16.397 35.1827 19.7311 36.9068C19.932 37.0105 20.0824 36.956 20.2587 36.8679C22.7566 35.6209 24.6427 33.7218 26.092 31.3625C26.8646 30.0947 27.4777 28.7634 27.4855 27.2273Z" fill="#DEEAF9"/>
<path d="M34.6472 22.5294C32.7615 21.0378 30.875 19.5454 28.9876 18.052C26.0787 15.7602 23.1676 13.4701 20.2544 11.1817C20.082 11.052 19.9602 10.9574 19.7359 11.1324C14.9482 14.9098 10.1576 18.6825 5.36386 22.4504C5.33641 22.4757 5.31085 22.503 5.28738 22.532C4.61201 23.0506 3.93923 23.5872 3.25738 24.1044C2.42256 24.737 1.36349 24.3896 1.15867 23.4109C1.04589 22.8756 1.26108 22.4517 1.67719 22.1146L7.68423 17.3974C11.6664 14.2647 15.6469 11.129 19.6257 7.99018C19.9031 7.76981 20.06 7.79574 20.3205 8.00444C22.5502 9.77691 24.7876 11.5399 27.0327 13.2933C27.0781 13.3309 27.1287 13.362 27.2337 13.4346V11.4319C27.2337 10.7837 27.2414 10.1446 27.2337 9.50167C27.2337 9.2787 27.2855 9.19315 27.5266 9.19444C28.749 9.20611 29.9727 9.21 31.1952 9.19444C31.4959 9.19444 31.4764 9.34611 31.4764 9.54574C31.4764 11.8156 31.4764 14.0828 31.4674 16.3552C31.457 16.4901 31.4821 16.6255 31.54 16.7478C31.598 16.8701 31.6869 16.9752 31.7979 17.0526C33.9455 18.7248 36.0874 20.4052 38.2237 22.0939C38.8718 22.6007 38.9911 23.363 38.5296 23.9554C38.0863 24.5244 37.315 24.5906 36.6785 24.1044C35.9902 23.5833 35.3174 23.0544 34.6472 22.5294Z" fill="#FE725C"/>
<path d="M27.5002 27.2256C27.4924 28.7617 26.8793 30.093 26.1028 31.3608C24.6574 33.7201 22.7713 35.6191 20.2694 36.8662C20.0931 36.9543 19.9428 37.0088 19.7418 36.9051C16.4078 35.181 14.0524 32.5677 12.76 29.0495C12.2194 27.5756 12.257 26.068 13.1618 24.6965C14.615 22.4928 17.752 22.183 19.6861 24.0484C19.9078 24.261 20.0089 24.2688 20.2422 24.0562C21.5061 22.9102 22.9813 22.5162 24.6159 23.0528C26.2 23.5714 27.1139 24.7302 27.4263 26.3597C27.4666 26.6468 27.4913 26.9359 27.5002 27.2256Z" fill="#FE725C"/>
</svg>
