<svg width="63" height="61" viewBox="0 0 63 61" fill="none" xmlns="http://www.w3.org/2000/svg">
<path d="M39.5833 26.8209C39.6285 28.2238 40.2104 29.3657 41.2181 30.3326C42.3658 31.4322 43.4712 32.577 44.5985 33.6984C44.6962 33.7947 44.7648 33.9376 44.9296 33.9492C44.9485 34.1709 45.1396 34.2701 45.2723 34.4028C46.4172 35.514 47.3515 36.8233 48.03 38.2674C48.0883 38.3928 48.1598 38.492 48.3129 38.4949C48.2717 38.6604 48.2962 38.8356 48.3815 38.9834C49.1825 40.8154 49.6028 42.7911 49.6167 44.7905C49.6327 46.2124 49.6167 47.6328 49.6167 49.0547C49.6167 49.2267 49.6487 49.3799 49.3746 49.3799C45.2796 49.3682 41.1851 49.3619 37.091 49.3609C37.091 48.957 37.091 48.553 37.091 48.1476C37.084 47.9774 37.1124 47.8077 37.1745 47.6491C37.2365 47.4905 37.3309 47.3466 37.4516 47.2264C37.5723 47.1063 37.7167 47.0126 37.8755 46.9512C38.0344 46.8899 38.2043 46.8622 38.3744 46.8701C38.9358 46.8701 39.4973 46.8701 40.0588 46.8701C40.6523 46.8701 40.836 46.6703 40.8521 46.0695C40.8885 44.6636 40.7617 43.2549 40.9265 41.8505C41.1042 40.2882 41.7743 38.8229 42.8398 37.6665C43.1096 37.3676 43.114 37.229 42.8281 36.9665C42.2535 36.4357 42.2652 36.4153 41.7665 36.9972C40.3475 38.6495 39.6504 40.5774 39.6067 42.7459C39.5892 43.5932 39.595 44.4419 39.6067 45.2907C39.6067 45.5503 39.5221 45.6276 39.2683 45.6247C38.5392 45.6145 37.81 45.5561 37.0969 45.9163V35.1247C37.0969 34.3342 37.0969 34.3605 36.3225 34.324C35.9054 34.3051 35.834 34.4509 35.8354 34.8315C35.8471 39.6751 35.8495 44.5178 35.8427 49.3594H31.459C31.459 48.9292 31.4502 48.499 31.459 48.0688C31.4685 47.7663 31.5879 47.4776 31.7949 47.2567C32.0018 47.0359 32.2821 46.8979 32.5833 46.8686C33.2046 46.8059 33.3358 46.6601 33.3358 46.0272V35.1451C33.3358 34.3357 33.3358 34.3576 32.541 34.3284C32.1502 34.3153 32.0744 34.4524 32.0744 34.817C32.089 38.3009 32.0744 41.7849 32.089 45.2703C32.089 45.562 32.0131 45.7238 31.7375 45.8303C30.9485 46.1322 30.4877 46.7301 30.2792 47.5322C30.1217 48.1359 30.2398 48.7528 30.2048 49.3624H27.0781C27.0781 48.9715 27.0781 48.5807 27.0781 48.1884C27.0781 47.2697 27.5623 46.5507 28.449 46.3392C28.9215 46.227 28.9652 46.0067 28.9652 45.5999C28.9555 39.3397 28.9555 33.0791 28.9652 26.818L39.5833 26.8209Z" fill="#F78400"/>
<path d="M28.961 26.8181C28.961 33.0783 28.961 39.3389 28.961 45.6C28.961 46.0069 28.9172 46.2271 28.4447 46.3394C27.558 46.5508 27.0753 47.2698 27.0739 48.1885C27.0739 48.5808 27.0739 48.9717 27.0739 49.3625H26.441C26.441 46.3097 26.441 43.2579 26.441 40.2071C26.441 39.3408 26.441 39.354 25.5791 39.3438C25.2728 39.3438 25.1795 39.4254 25.181 39.7375C25.1926 42.9458 25.1897 46.1542 25.1897 49.3625H23.9326C23.9866 48.6596 23.9326 47.9698 23.5082 47.3806C23.3655 47.182 23.2941 46.941 23.3055 46.6967C23.3055 44.5461 23.3055 42.3946 23.3055 40.2421C23.3055 39.3306 23.3055 39.3408 22.4014 39.3438C22.1257 39.3438 22.0426 39.4313 22.047 39.7025C22.0616 40.6023 22.047 41.5021 22.047 42.4019C22.047 43.6006 22.047 44.8008 22.047 46.001C22.047 46.125 22.1097 46.3452 21.8662 46.2927C21.4126 46.195 20.9576 46.2533 20.5041 46.249C20.2518 46.249 20.1672 46.1717 20.1643 45.9135C20.1754 45.368 20.1574 44.8223 20.1103 44.2788C19.9524 43.0346 19.4723 41.8533 18.7176 40.8517C18.1445 40.0583 18.1343 40.0744 17.4562 40.7671C17.2491 40.9771 17.2739 41.101 17.4562 41.311C18.2021 42.1531 18.6843 43.1957 18.843 44.3094C18.967 45.1144 18.8882 45.9208 18.9116 46.7258C18.9276 47.2902 19.123 47.4929 19.6962 47.4944C20.2693 47.4958 20.8176 47.4944 21.3791 47.4944C21.9099 47.4944 22.2774 47.7423 22.5326 48.2133C22.7368 48.5896 22.6405 48.9775 22.6785 49.361C19.6378 49.361 16.5987 49.361 13.558 49.38C13.2401 49.38 13.2664 49.2138 13.2737 49.014C13.2737 46.8605 13.2737 44.7075 13.2737 42.555C13.2737 39.8279 13.2737 37.1008 13.2664 34.3738C13.2501 33.5336 13.4986 32.7097 13.9766 32.0185C14.3528 31.4702 14.7189 30.9146 15.0835 30.359C16.2705 28.5492 15.906 26.3485 14.2085 25.0185C14.0947 24.9296 13.9795 24.845 13.8657 24.7575C13.2343 24.2748 13.087 23.5646 13.4968 22.9754C13.7084 22.6858 14.0234 22.4888 14.3764 22.4253C14.7294 22.3617 15.0933 22.4365 15.3926 22.6342C16.9457 23.706 17.9301 25.1629 18.2218 27.0471C18.4857 28.7519 18.076 30.3065 17.1193 31.7254C17.0464 31.8489 16.9665 31.9682 16.8801 32.0827C15.903 33.2144 15.5764 34.5225 15.8593 35.9983C15.8316 35.991 15.868 36.01 15.8768 35.9983C16.9064 34.9396 18.1737 34.1973 19.3957 33.404C20.3728 32.771 20.8307 31.931 20.8162 30.76C20.7841 28.3596 20.806 25.9577 20.806 23.5573V23.0906C21.802 23.3006 22.5851 23.7819 23.116 24.6233C23.1707 24.7306 23.2568 24.8187 23.3628 24.8757C23.4689 24.9328 23.5898 24.9562 23.7095 24.9427C24.5043 24.9238 25.3005 24.9281 26.0968 24.9427C26.1976 24.956 26.3001 24.9376 26.39 24.89C26.4799 24.8425 26.5527 24.7681 26.5985 24.6773C27.0138 23.9854 27.6687 23.4701 28.4389 23.2292C28.611 23.1694 28.783 23.1067 28.9537 23.0454L28.9668 24.3113L28.961 26.8181ZM23.9487 27.4744C23.9385 26.7452 24.0376 26.8138 23.4499 26.8152C22.588 26.8152 22.6901 26.7117 22.6843 27.3213C22.6755 28.0796 22.6843 28.084 23.2385 28.0781C24.0537 28.0694 23.9355 28.1875 23.9487 27.4744ZM26.4628 26.8138C25.7512 26.824 25.8139 26.7233 25.8168 27.3242C25.8168 28.1715 25.7133 28.0767 26.3345 28.0767C27.173 28.0767 27.0739 28.1831 27.0797 27.5488C27.0855 26.8138 27.0812 26.8138 26.4628 26.8138Z" fill="#FEB331"/>
<path d="M28.9596 24.3155L28.9465 23.0497V20.5603C29.5867 20.5457 29.5867 20.5457 29.5867 19.9085C29.5983 19.7142 29.5983 19.5194 29.5867 19.3251C29.4496 18.1307 29.7413 17.0545 30.3538 16.022C30.8481 15.1893 30.7913 15.1689 29.9163 14.7635C29.6931 14.6599 29.5983 14.7139 29.4992 14.9195C29.1667 15.6107 28.824 16.2971 28.471 16.9787C28.3693 17.1748 28.3191 17.3936 28.3252 17.6145C28.3252 18.5901 28.3252 19.5672 28.3252 20.5428C27.0842 20.6085 27.0842 20.6085 26.6088 19.4987C26.1713 18.4924 25.7571 17.4818 25.3123 16.4814C25.2044 16.2408 25.2408 16.127 25.4654 15.9885C26.7327 15.2112 27.9898 14.4178 29.2498 13.6303C29.8707 13.2373 30.5916 13.0313 31.3265 13.0368C33.2835 13.0368 35.2406 13.0368 37.1977 13.0368C37.9321 13.0277 38.6535 13.2302 39.2758 13.6201C40.549 14.4135 41.8177 15.2126 43.0952 15.9987C43.2833 16.1139 43.3431 16.2057 43.241 16.4362C42.6752 17.7234 42.1201 19.0164 41.5756 20.3153C41.5552 20.3958 41.5054 20.4657 41.4361 20.5113C41.3667 20.5569 41.2828 20.5749 41.2008 20.5618C40.8756 20.5443 40.549 20.5501 40.2223 20.5458C40.2036 20.1419 40.206 19.7374 40.2296 19.3339C40.3757 17.9658 40.0539 16.5887 39.3167 15.427C38.85 14.6628 38.9083 14.6439 38.0946 15.0362C37.8277 15.1645 37.7767 15.2826 37.9488 15.5276C38.8427 16.8693 39.1373 18.3451 38.99 19.9435C38.9215 20.6726 38.9185 20.5399 39.6098 20.5618L39.5835 24.317L28.9596 24.3155ZM33.3346 19.9405C33.3319 20.1063 33.2965 20.2699 33.2305 20.422C33.1644 20.5741 33.0689 20.7116 32.9495 20.8266C32.8301 20.9417 32.6892 21.032 32.5348 21.0924C32.3804 21.1528 32.2156 21.1821 32.0498 21.1787C31.7363 21.1787 31.4227 21.1903 31.1106 21.1787C30.7533 21.1626 30.7985 21.4295 30.8467 21.6045C30.921 21.8816 30.555 22.3658 31.1019 22.4197C32.06 22.516 33.0094 22.4664 33.791 21.7751C33.88 21.6964 33.969 21.6191 34.0929 21.7372C34.8644 22.4751 35.8298 22.4547 36.801 22.4416C37.1773 22.4416 37.1408 22.182 37.0927 21.9953C37.014 21.7226 37.4004 21.2662 36.8215 21.1889C36.5063 21.1691 36.1902 21.1686 35.875 21.1874C35.1283 21.1874 34.6398 20.7062 34.596 19.9493C34.9154 19.9172 35.1794 19.7612 35.1969 19.4389C35.2115 19.016 35.3806 18.542 34.984 18.1847C34.8609 18.0853 34.704 18.0376 34.5465 18.052C34.3 18.052 34.0521 18.052 33.8042 18.052C32.7833 18.052 32.7002 18.141 32.7075 19.1705V19.2099C32.7163 19.6737 32.8519 19.8341 33.3346 19.942V19.9405ZM30.8292 16.7818C30.8394 17.4832 30.7388 17.4264 31.3483 17.4235C32.1796 17.4235 32.0863 17.5285 32.0863 16.8868C32.0863 16.0774 32.1927 16.1722 31.5306 16.1678C30.8292 16.162 30.8292 16.1664 30.8292 16.7818ZM37.1 16.8095C37.0913 16.108 37.1904 16.1649 36.5823 16.1678C35.7481 16.1678 35.8429 16.0628 35.8444 16.7045C35.8444 17.5139 35.7365 17.4235 36.3985 17.422C37.205 17.4205 37.0869 17.5328 37.1 16.8124V16.8095Z" fill="#F78400"/>
<path d="M48.3149 38.4949C48.1618 38.4949 48.0903 38.3928 48.032 38.2674C47.3535 36.8234 46.4192 35.5141 45.2743 34.4028C45.1416 34.2701 44.9505 34.171 44.9316 33.9493C45.6214 30.9845 45.4551 28.1057 44.0653 25.3524C43.8655 24.9587 43.6278 24.5868 43.3828 24.1697C44.1645 23.9889 44.8805 23.547 45.7249 23.7322C46.193 23.834 46.6172 24.0805 46.9376 24.4367C47.2579 24.7928 47.4581 25.2408 47.5099 25.717C47.5178 25.8314 47.5502 25.9427 47.6051 26.0434C47.66 26.1441 47.7359 26.2317 47.8278 26.3003C48.384 26.7607 48.7833 27.3826 48.9704 28.08C49.1575 28.7774 49.1231 29.5157 48.872 30.1926C48.8224 30.3312 48.7261 30.4537 48.8239 30.6301C49.7834 32.2576 49.7134 33.993 49.3051 35.746C49.0872 36.6989 48.7547 37.6219 48.3149 38.4949Z" fill="#E97206"/>
<path d="M35.8471 49.3626C35.8471 44.52 35.8447 39.6773 35.8398 34.8347C35.8398 34.4541 35.9098 34.3082 36.3269 34.3272C37.0998 34.3636 37.1013 34.3374 37.1013 35.1278V45.9195C37.8173 45.552 38.5494 45.6103 39.2728 45.6278C39.5265 45.6278 39.6155 45.5534 39.6111 45.2938C39.598 44.4451 39.5921 43.5964 39.6111 42.7491C39.6548 40.5805 40.3519 38.6526 41.7709 37.0003C42.2696 36.417 42.258 36.4389 42.8326 36.9697C43.1242 37.2336 43.114 37.3707 42.8442 37.6697C41.7808 38.8278 41.1133 40.2941 40.9382 41.8566C40.7734 43.2609 40.9003 44.6697 40.8638 46.0755C40.8478 46.6763 40.664 46.8747 40.0705 46.8761C39.509 46.8761 38.9476 46.8761 38.3861 46.8761C38.216 46.8683 38.0461 46.8959 37.8872 46.9573C37.7284 47.0187 37.584 47.1124 37.4633 47.2325C37.3426 47.3527 37.2483 47.4966 37.1862 47.6552C37.1241 47.8137 37.0957 47.9835 37.1028 48.1536C37.1028 48.5591 37.1028 48.963 37.1028 49.367L35.8471 49.3626Z" fill="#E97206"/>
<path d="M28.9609 24.3156H39.5864V26.8239H28.9609V24.3156Z" fill="#D55246"/>
<path d="M22.693 49.3625C22.658 48.979 22.7543 48.5911 22.5472 48.2148C22.292 47.7438 21.9245 47.4988 21.3937 47.4958C20.8322 47.4958 20.2722 47.4958 19.7107 47.4958C19.1493 47.4958 18.9422 47.2917 18.9262 46.7273C18.9028 45.9223 18.9816 45.1158 18.8576 44.3108C18.6997 43.1975 18.2185 42.155 17.4737 41.3125C17.287 41.1025 17.2622 40.9786 17.4737 40.7686C18.1576 40.0758 18.162 40.0598 18.7351 40.8531C19.4898 41.8548 19.9699 43.0361 20.1278 44.2802C20.1749 44.8238 20.1929 45.3695 20.1818 45.915C20.1818 46.1731 20.2693 46.2475 20.5216 46.2504C20.9751 46.2504 21.4301 46.1965 21.8837 46.2942C22.1272 46.3467 22.0645 46.1265 22.0645 46.0025C22.0645 44.8023 22.0645 43.6021 22.0645 42.4034C22.0645 41.5036 22.0747 40.6038 22.0645 39.704C22.0645 39.4327 22.1432 39.3467 22.4189 39.3452C23.323 39.3452 23.323 39.3321 23.323 40.2436C23.323 42.3961 23.323 44.5476 23.323 46.6981C23.3116 46.9425 23.383 47.1835 23.5257 47.3821C23.9443 47.9654 24.0041 48.6611 23.9501 49.364L22.693 49.3625Z" fill="#F89E0C"/>
<path d="M30.2092 49.3625C30.2442 48.7529 30.1261 48.136 30.2836 47.5322C30.4936 46.7302 30.9544 46.1322 31.7419 45.8304C32.0176 45.7239 32.0948 45.5591 32.0934 45.2704C32.0832 41.785 32.0934 38.301 32.0788 34.817C32.0788 34.4524 32.1546 34.3154 32.5455 34.3285C33.3403 34.3577 33.3403 34.3285 33.3403 35.1452V46.0287C33.3403 46.6616 33.209 46.8074 32.5878 46.8702C32.2865 46.8994 32.0062 47.0374 31.7993 47.2583C31.5924 47.4792 31.473 47.7678 31.4634 48.0704C31.4517 48.5079 31.4634 48.9308 31.4634 49.361L30.2092 49.3625Z" fill="#E97206"/>
<path d="M25.1962 49.3624C25.1962 46.1541 25.1962 42.9457 25.1875 39.7374C25.1875 39.4253 25.2794 39.3393 25.5856 39.3437C26.446 39.3539 26.4475 39.3437 26.4475 40.207C26.4475 43.2578 26.4475 46.3096 26.4475 49.3624H25.1962Z" fill="#F89E0C"/>
<path d="M28.3286 20.5413C28.3286 19.5657 28.3286 18.5886 28.3286 17.613C28.3225 17.3921 28.3727 17.1733 28.4745 16.9772C28.8254 16.2966 29.1681 15.6102 29.5026 14.918C29.6018 14.7124 29.6965 14.6584 29.9197 14.762C30.7947 15.1674 30.8442 15.1878 30.3572 16.0205C29.7447 17.053 29.453 18.1292 29.5901 19.3236C29.6017 19.5179 29.6017 19.7127 29.5901 19.907C29.5901 20.5442 29.5901 20.5442 28.9499 20.5588L28.3286 20.5413Z" fill="#E97206"/>
<path d="M39.6113 20.5574C38.92 20.5355 38.923 20.6697 38.9915 19.9391C39.1373 18.3349 38.8457 16.8649 37.9502 15.5232C37.7855 15.2782 37.8365 15.1601 38.0961 15.0318C38.9098 14.6395 38.8515 14.6584 39.3182 15.4226C40.0553 16.5843 40.3771 17.9614 40.2311 19.3295C40.2075 19.733 40.2051 20.1375 40.2238 20.5414L39.6113 20.5574Z" fill="#E97206"/>
<path d="M23.9473 27.4743C23.9341 28.1874 24.0523 28.0693 23.2371 28.078C22.68 28.078 22.6741 28.078 22.6829 27.3212C22.6829 26.7116 22.5866 26.8195 23.4485 26.8151C24.0362 26.8137 23.9371 26.7437 23.9473 27.4743Z" fill="#D55246"/>
<path d="M26.4593 26.8136C27.0776 26.8136 27.082 26.8136 27.0761 27.5428C27.0761 28.1772 27.1695 28.0693 26.3309 28.0707C25.7097 28.0707 25.8176 28.1655 25.8132 27.3182C25.8103 26.7291 25.7476 26.8238 26.4593 26.8136Z" fill="#D55246"/>
<path d="M34.599 19.942C34.6427 20.6989 35.1313 21.1728 35.8779 21.1801C36.1904 21.1641 36.5035 21.167 36.8157 21.1889C37.399 21.2647 37.0082 21.7226 37.0869 21.9953C37.1409 22.182 37.1773 22.4328 36.7952 22.4416C35.824 22.4547 34.8586 22.4751 34.0871 21.7372C33.9632 21.6191 33.8742 21.6964 33.7852 21.7751C33.0036 22.4664 32.0542 22.516 31.0961 22.4197C30.5492 22.3658 30.9152 21.8816 30.8409 21.6045C30.7927 21.4295 30.7475 21.167 31.1048 21.1787C31.4169 21.1918 31.7304 21.1787 32.044 21.1787C32.2098 21.1822 32.3746 21.1528 32.529 21.0924C32.6834 21.032 32.8243 20.9417 32.9437 20.8266C33.0631 20.7116 33.1586 20.5741 33.2247 20.422C33.2907 20.27 33.3261 20.1063 33.3288 19.9406L34.599 19.942Z" fill="#E97206"/>
<path d="M34.597 19.9422H33.3327C32.8499 19.8342 32.7143 19.6738 32.707 19.2042V19.1649C32.707 18.1353 32.7872 18.0449 33.8037 18.0463C34.0516 18.0463 34.2995 18.0463 34.546 18.0463C34.7035 18.032 34.8605 18.0796 34.9835 18.179C35.3802 18.5363 35.211 19.0103 35.1964 19.4332C35.1862 19.754 34.9164 19.9101 34.597 19.9422Z" fill="#D55246"/>
<path d="M30.8288 16.7818C30.8288 16.1664 30.8288 16.162 31.5302 16.1678C32.1923 16.1678 32.0844 16.0774 32.0858 16.8868C32.0858 17.5284 32.1792 17.4191 31.3479 17.4234C30.7383 17.4264 30.839 17.4832 30.8288 16.7818Z" fill="#D55246"/>
<path d="M37.0981 16.8125C37.085 17.5416 37.2031 17.4235 36.3966 17.425C35.7345 17.425 35.8425 17.5169 35.8425 16.7075C35.8425 16.0658 35.7462 16.1752 36.5804 16.1708C37.1856 16.165 37.0893 16.1081 37.0981 16.8125Z" fill="#D55246"/>
</svg>
