<svg width="52" height="52" viewBox="0 0 52 52" fill="none" xmlns="http://www.w3.org/2000/svg">
<path d="M33.6241 20.4039C33.6241 21.1021 33.6434 21.8014 33.6169 22.4984C33.6037 22.8186 33.7192 22.8739 34.0033 22.8595C35.0228 22.8089 36.0267 22.886 36.9608 23.3494C38.9589 24.3412 40.0603 25.9542 40.1169 28.1847C40.1735 30.4151 40.1434 32.6384 40.1265 34.864C40.1061 37.765 37.7059 40.1603 34.8049 40.2012C34.492 40.2012 34.1778 40.2133 33.8661 40.2012C33.6747 40.1928 33.6253 40.2578 33.6253 40.442C33.6169 40.9235 33.6819 41.405 33.576 41.8864C33.2702 43.2619 32.4341 44.1229 31.0674 44.4696C31.0193 44.4816 30.976 44.4876 30.9603 44.543H23.8705V38.037C24.5987 37.9287 24.9538 37.5266 24.9538 36.7996C24.9538 34.994 24.9538 33.1885 24.9538 31.3829C24.9538 29.6616 24.9538 27.9403 24.9538 26.219C24.9538 25.5281 24.5362 25.0755 23.8705 25.0286C23.8705 23.5376 23.8705 22.0466 23.8705 20.5556L23.8633 20.5351C26.3509 20.5351 28.8386 20.5379 31.3262 20.5436C32.099 20.5412 32.8646 20.5989 33.6241 20.4039ZM33.6241 31.5358C33.6241 33.5953 33.6241 35.6561 33.6181 37.7156C33.6181 37.9563 33.6674 38.0647 33.9323 38.0406C34.1971 38.0165 34.4619 38.0406 34.7267 38.0406C35.5803 38.0353 36.3976 37.6943 37.0019 37.0913C37.6062 36.4884 37.949 35.6719 37.9562 34.8183C37.9731 32.6251 37.9779 30.4332 37.9562 28.24C37.9418 27.0303 37.37 26.1071 36.3373 25.4715C35.6006 25.0165 34.7833 25.0237 33.9599 25.0237C33.6903 25.0237 33.6193 25.0899 33.6205 25.362C33.6301 27.4155 33.6253 29.475 33.6253 31.537L33.6241 31.5358ZM27.1241 31.5358C27.1241 33.3052 27.1241 35.0751 27.1241 36.8453C27.1241 37.5567 27.5659 38.049 28.1906 38.0406C28.8153 38.0322 29.2872 37.535 29.292 36.8562C29.292 36.2904 29.292 35.7247 29.292 35.1589C29.292 32.1962 29.292 29.2343 29.292 26.2732C29.292 25.8399 29.1776 25.4523 28.7949 25.22C27.9872 24.7276 27.1253 25.2332 27.1241 26.1901C27.1209 27.9684 27.1205 29.7507 27.1229 31.537L27.1241 31.5358Z" fill="#FECA01"/>
<path d="M23.8705 20.5542C23.8705 22.0444 23.8705 23.5354 23.8705 25.0272C23.1892 25.0741 22.7872 25.4906 22.7872 26.1611C22.7872 29.7425 22.7872 33.3243 22.7872 36.9065C22.7872 37.5758 23.1916 37.9899 23.8705 38.0392V44.538H16.8505C16.4894 44.3827 16.0922 44.3274 15.7503 44.1167C14.6441 43.4354 14.0965 42.452 14.0977 41.1496C14.0977 34.2291 14.0977 27.3098 14.0977 20.3917C14.8897 20.5855 15.6974 20.5362 16.5051 20.5386L23.8705 20.5542ZM18.4442 31.5079C18.4442 33.3014 18.4442 35.0954 18.4442 36.8897C18.4442 37.5493 18.8824 38.032 19.4794 38.0404C19.6299 38.0392 19.7787 38.0081 19.9172 37.9491C20.0556 37.89 20.181 37.8041 20.2861 37.6964C20.3912 37.5886 20.4739 37.4611 20.5294 37.3212C20.585 37.1813 20.6122 37.0318 20.6097 36.8813C20.6097 33.3167 20.6097 29.7529 20.6097 26.19C20.6097 25.5291 20.1366 25.032 19.5264 25.0284C18.8824 25.0284 18.443 25.5002 18.443 26.1972C18.4422 27.9658 18.4426 29.7349 18.4442 31.5043V31.5079Z" fill="#FEE129"/>
<path d="M23.8648 20.5538L16.4981 20.543C15.6952 20.543 14.8875 20.5899 14.0907 20.3961C13.6971 20.1494 13.271 19.9616 12.9243 19.6318C11.2499 18.0393 11.7531 15.213 13.8969 14.3138C13.964 14.2899 14.0207 14.2435 14.0576 14.1825C14.0944 14.1215 14.1091 14.0497 14.0991 13.9792C14.1024 12.514 14.607 11.0939 15.5291 9.95522C16.4836 8.77439 17.6873 7.99078 19.1823 7.67902C19.3657 7.62168 19.5573 7.59524 19.7493 7.60078C19.8528 7.61402 19.9443 7.58754 19.9563 7.45874H21.2575C21.2684 7.56106 21.3298 7.59476 21.4273 7.60318C22.2857 7.69567 23.1153 7.96712 23.8623 8.40004C23.8623 12.4445 23.8623 16.4889 23.8623 20.5334L23.8648 20.5538ZM17.3563 11.8679C17.069 11.8679 16.7935 11.982 16.5903 12.1852C16.3871 12.3884 16.273 12.6639 16.273 12.9512C16.273 13.2386 16.3871 13.5141 16.5903 13.7173C16.7935 13.9204 17.069 14.0346 17.3563 14.0346C17.6385 14.0187 17.9049 13.8995 18.1048 13.6997C18.3046 13.4999 18.4238 13.2334 18.4397 12.9512C18.4278 12.6677 18.3099 12.399 18.1092 12.1983C17.9086 11.9977 17.6399 11.8797 17.3563 11.8679ZM19.523 15.1179C19.5207 15.403 19.6309 15.6774 19.8296 15.8818C20.0284 16.0862 20.2997 16.204 20.5847 16.2097C21.1432 16.2181 21.6848 15.6945 21.6921 15.142C21.6845 14.859 21.5714 14.5891 21.3749 14.3853C21.1785 14.1815 20.9129 14.0585 20.6304 14.0406C20.4866 14.0361 20.3433 14.0605 20.2092 14.1124C20.075 14.1644 19.9526 14.2427 19.8493 14.3429C19.746 14.4431 19.6639 14.563 19.6078 14.6955C19.5518 14.828 19.5229 14.9704 19.523 15.1143V15.1179Z" fill="#F2F4F8"/>
<path d="M23.8633 20.5325C23.8633 16.4881 23.8633 12.4436 23.8633 8.39917C24.5897 8.801 25.2204 9.35537 25.7122 10.0242C25.8446 10.2095 25.9529 10.1987 26.1287 10.1253C27.9739 9.37297 29.7398 9.5776 31.3515 10.7115C31.9008 11.0806 32.371 11.5554 32.7348 12.1083C33.0985 12.6611 33.3485 13.2809 33.47 13.9314C33.4832 14.0182 33.5204 14.0996 33.5774 14.1664C33.6344 14.2332 33.709 14.2827 33.7926 14.3094C35.0686 14.8944 35.7775 15.8898 35.7787 17.2982C35.7799 18.7065 35.0457 19.6887 33.7987 20.3074C33.7349 20.3387 33.6542 20.3351 33.6145 20.4073C32.8598 20.6023 32.0894 20.5445 31.3274 20.5445C28.839 20.5421 26.3509 20.5381 23.8633 20.5325Z" fill="#E0E5EF"/>
<path d="M27.1223 31.5383C27.1223 29.7568 27.1223 27.9749 27.1223 26.1926C27.1223 25.2357 27.9854 24.7301 28.793 25.2225C29.1758 25.4548 29.2914 25.8424 29.2902 26.2757C29.2902 29.2384 29.2902 32.2003 29.2902 35.1614C29.2902 35.7272 29.2902 36.2929 29.2902 36.8587C29.2902 37.5376 28.8183 38.0347 28.1888 38.0431C27.5592 38.0515 27.1235 37.5616 27.1223 36.8478C27.1207 35.0736 27.1207 33.3037 27.1223 31.5383Z" fill="#FE9F3F"/>
<path d="M23.8633 25.0274C24.5277 25.0744 24.9466 25.527 24.9466 26.2179C24.9466 27.9392 24.9466 29.6605 24.9466 31.3818C24.9466 33.1873 24.9466 34.9929 24.9466 36.7985C24.9466 37.5207 24.5915 37.9275 23.8633 38.0359V25.025V25.0274Z" fill="#FE9F3F"/>
<path d="M18.4463 31.5046C18.4463 29.7335 18.4463 27.9633 18.4463 26.1938C18.4463 25.4969 18.8916 25.0226 19.5296 25.025C20.1315 25.025 20.6129 25.5258 20.6129 26.1866C20.6129 29.7496 20.6129 33.3133 20.6129 36.8779C20.6155 37.0284 20.5882 37.1779 20.5327 37.3178C20.4771 37.4577 20.3944 37.5852 20.2893 37.693C20.1843 37.8008 20.0589 37.8867 19.9204 37.9457C19.782 38.0048 19.6332 38.0358 19.4827 38.0371C18.8808 38.0286 18.4475 37.546 18.4475 36.8863C18.4451 35.0928 18.4447 33.2989 18.4463 31.5046Z" fill="#FECA01"/>
<path d="M23.8646 25.025V38.0383C23.1833 37.9913 22.7813 37.5748 22.7813 36.9056C22.7813 33.3234 22.7813 29.7415 22.7813 26.1601C22.7789 25.4885 23.1833 25.072 23.8646 25.025Z" fill="#FECA01"/>
<path d="M17.3646 11.8666C17.6481 11.8784 17.9168 11.9963 18.1175 12.197C18.3182 12.3977 18.4361 12.6664 18.4479 12.9499C18.4321 13.2321 18.3129 13.4985 18.113 13.6984C17.9132 13.8982 17.6467 14.0174 17.3646 14.0332C17.0773 14.0332 16.8017 13.9191 16.5986 13.7159C16.3954 13.5128 16.2812 13.2372 16.2812 12.9499C16.2812 12.6626 16.3954 12.387 16.5986 12.1839C16.8017 11.9807 17.0773 11.8666 17.3646 11.8666Z" fill="#E0E5EF"/>
<path d="M19.5313 15.1136C19.5299 14.969 19.5578 14.8255 19.6133 14.6918C19.6688 14.5582 19.7507 14.4372 19.8541 14.336C19.9576 14.2348 20.0804 14.1555 20.2152 14.103C20.35 14.0505 20.4941 14.0258 20.6387 14.0303C20.9212 14.0482 21.1868 14.1712 21.3833 14.375C21.5797 14.5788 21.6928 14.8487 21.7004 15.1317C21.6932 15.6842 21.1515 16.2078 20.593 16.1994C20.309 16.1937 20.0386 16.0767 19.8401 15.8737C19.6415 15.6706 19.5306 15.3977 19.5313 15.1136Z" fill="#E0E5EF"/>
</svg>
