<svg width="40" height="42" viewBox="0 0 40 42" fill="none" xmlns="http://www.w3.org/2000/svg">
<path d="M7.94841 33.8898C7.6235 35.062 7.29579 36.2342 6.96809 37.4077C6.73281 38.2648 6.46812 39.1163 6.28606 39.9846C6.11941 40.7829 5.74128 41.3598 4.95982 41.6413H4.27219C4.23164 41.6134 4.18904 41.5886 4.14475 41.5671C3.24986 41.224 2.85353 40.4804 3.09861 39.5574C3.82685 36.8172 4.55882 34.0774 5.29453 31.3381C5.32394 31.2289 5.33935 31.1155 5.36176 31.0034C5.46819 30.6295 5.59003 30.2598 5.67966 29.8831C5.85192 29.1576 6.26225 28.666 7.0003 28.4826C7.4697 28.4304 7.94187 28.5531 8.32653 28.8271C8.86291 29.3537 8.98615 29.9797 8.77748 30.6883C8.71866 30.883 8.66545 31.079 8.61503 31.2765C8.39656 32.1434 8.17388 33.0159 7.94841 33.8898Z" fill="#F14D8F"/>
<path d="M34.2516 41.6407C33.4814 41.369 33.1313 40.7934 32.9366 40.0204C32.4605 38.1283 31.9255 36.2517 31.4143 34.3681C31.0894 33.1469 30.7757 31.9229 30.434 30.7059C30.2127 29.9034 30.3696 29.234 31.032 28.7046L31.13 28.636L31.812 28.4637C32.7616 28.503 33.2251 28.8601 33.4926 29.7704C33.6747 30.3908 33.8469 31.0154 34.0248 31.6372C34.3721 32.9634 34.7166 34.2897 35.0667 35.6159C35.3846 36.8189 35.7081 38.0205 36.0274 39.2235C36.3761 40.5301 36.1311 41.0721 34.9379 41.6365L34.2516 41.6407Z" fill="#F14D8F"/>
<path d="M34.045 31.6437C33.8671 31.0218 33.6949 30.3972 33.5128 29.7768C33.2453 28.8665 32.7818 28.5094 31.8323 28.4702C32.1558 28.4002 32.2398 28.2391 32.1124 27.91C31.9749 27.5147 31.8626 27.111 31.7762 26.7014C31.597 25.9242 31.3141 25.1721 31.1951 24.3795C31.2064 24.2918 31.2228 24.2048 31.2441 24.119C31.6246 22.901 31.8159 21.6319 31.8113 20.3559C32.5255 19.2355 32.6263 18.055 32.2636 16.7749C31.5242 14.1701 30.8435 11.5484 30.1391 8.93234C30.0103 8.45479 29.7274 8.23211 29.3759 8.32314C28.9781 8.42958 28.8297 8.74328 28.9557 9.23485C29.1518 9.98549 29.359 10.7333 29.5509 11.484C29.824 12.5553 30.1629 13.6099 30.3786 14.6952C30.2273 14.6084 30.1713 14.4502 30.0859 14.3129C29.4135 13.2266 28.5773 12.2507 27.6071 11.4196C27.5766 11.3511 27.5499 11.2809 27.5272 11.2095C27.3872 10.6871 27.2471 10.1606 27.0987 9.64098C26.9811 9.23484 26.6856 9.04578 26.3396 9.13261C26.0273 9.21104 25.8537 9.52614 25.9111 9.90847C25.9251 9.9967 25.9335 10.0849 25.9433 10.1718C25.9062 10.1779 25.8682 10.1764 25.8316 10.1675C25.795 10.1586 25.7606 10.1424 25.7304 10.1199C23.8254 9.06568 21.6667 8.55689 19.4914 8.64945C18.0462 8.70634 16.6231 9.02275 15.29 9.58356C15.2228 9.47572 15.1499 9.37069 15.0883 9.26145C14.3811 8.06406 13.2565 7.50387 11.9779 7.75736C11.1376 7.92401 10.4374 8.37216 9.8422 8.96316C8.3493 10.4406 7.54264 12.271 7.16871 14.3087C6.86761 15.9501 7.02867 17.4836 8.25407 18.7552C8.04973 19.8402 8.03693 20.9526 8.21626 22.0421C8.26107 22.3586 8.24987 22.6961 8.42353 22.9874C8.37871 23.1849 8.3423 23.3851 8.28348 23.5812C7.85494 25.2141 7.425 26.848 6.99366 28.4828C6.25561 28.6719 5.84527 29.1634 5.67302 29.8833C5.58339 30.2614 5.46155 30.6311 5.35511 31.0036C3.59333 28.5444 2.46596 25.8219 2.11584 22.8165C1.40021 16.6727 3.29643 11.4406 7.79192 7.21118C10.5236 4.60921 14.0445 2.99189 17.7982 2.61486C23.8734 1.94964 29.0355 3.87527 33.2159 8.30494C35.867 11.1129 37.4019 14.5034 37.8375 18.3393C38.3864 23.2031 37.1582 27.6075 34.1808 31.5036C34.139 31.5535 34.0936 31.6003 34.045 31.6437Z" fill="#F6B239"/>
<path d="M31.039 28.7072C30.3766 29.2366 30.2197 29.906 30.441 30.7085C30.7785 31.9255 31.0922 33.1495 31.4213 34.3707C30.1287 35.3692 28.7717 36.2613 27.269 36.9209C25.2417 37.8242 23.0635 38.3405 20.8465 38.4432C16.2963 38.6449 12.242 37.3131 8.66243 34.4995C8.41314 34.3021 8.17226 34.0948 7.92578 33.8917C8.15126 33.0178 8.37393 32.1454 8.59941 31.2715C8.64982 31.074 8.70304 30.8779 8.76186 30.6833C8.97053 29.9746 8.84729 29.3486 8.31091 28.8221C8.34103 28.7529 8.36767 28.6824 8.39074 28.6106C8.67083 27.6219 8.94719 26.6331 9.21981 25.6444C9.27583 25.727 9.34025 25.8055 9.38786 25.8923C9.92308 26.917 10.6017 27.8601 11.4031 28.6932C13.4449 30.8037 16.1935 32.0868 19.1225 32.2966C21.0431 32.4314 22.9675 32.0946 24.7282 31.3155C26.4888 30.5363 28.0323 29.3385 29.224 27.8263C29.5629 27.388 29.8808 26.9328 30.2043 26.4847C30.3822 27.1191 30.5587 27.7535 30.7393 28.3865C30.7883 28.5406 30.8009 28.7338 31.039 28.7072Z" fill="#F6B239"/>
<path d="M9.22342 25.6415C8.94333 26.6302 8.66697 27.619 8.39435 28.6077C8.37128 28.6795 8.34464 28.75 8.31452 28.8192C7.92986 28.5451 7.45769 28.4225 6.98828 28.4746C7.41776 26.8426 7.8477 25.2088 8.27811 23.573C8.32992 23.377 8.36634 23.1767 8.41815 22.9792C8.46157 22.849 8.51338 22.7201 8.5498 22.5871C8.82989 21.5648 9.11325 20.5419 9.39988 19.5187L10.7289 19.8506C10.5329 20.6124 10.3396 21.3757 10.1421 22.1375C9.83496 23.3083 9.52872 24.4763 9.22342 25.6415Z" fill="#CCCBC9"/>
<path d="M31.0573 28.7033C30.8193 28.7257 30.8067 28.5366 30.7633 28.384C30.5826 27.751 30.4061 27.1236 30.2283 26.4822C30.1975 26.3337 30.1737 26.1824 30.1344 26.0354C29.775 24.6573 29.4151 23.2826 29.0547 21.911C29.5361 21.8626 30.0048 21.7279 30.4383 21.5133C30.6329 22.483 30.8897 23.4392 31.2072 24.3759C31.3262 25.1685 31.6091 25.9164 31.7884 26.6978C31.8747 27.1074 31.987 27.5111 32.1245 27.9064C32.2477 28.2355 32.1637 28.3966 31.8444 28.4666L31.1554 28.6389C31.1078 28.6389 31.0658 28.6501 31.0573 28.7075V28.7033Z" fill="#CCCBC9"/>
<path d="M31.0586 28.7073C31.067 28.6499 31.109 28.6415 31.1566 28.6387L31.0586 28.7073Z" fill="#F6B239"/>
<path d="M29.0436 21.9107C29.4049 23.286 29.7667 24.6608 30.129 26.0351C30.1682 26.1821 30.192 26.3334 30.2228 26.4818C29.8951 26.93 29.5772 27.3851 29.2425 27.8235C27.6466 29.8479 25.4322 31.2947 22.9373 31.943C20.4423 32.5913 17.8037 32.4057 15.4241 31.4143C13.9163 30.7922 12.5535 29.8648 11.4216 28.6904C10.6201 27.8572 9.94155 26.9141 9.40634 25.8894C9.35872 25.8026 9.2943 25.7242 9.23828 25.6416C9.54265 24.4754 9.84655 23.3084 10.15 22.1404C10.3474 21.3785 10.5407 20.6153 10.7354 19.8534C11.1293 19.8573 11.5231 19.8372 11.9146 19.7932C13.2352 19.5663 14.1553 18.7611 14.7449 17.6113C16.0585 15.0232 16.3876 12.3428 15.2925 9.57824C16.6256 9.01743 18.0487 8.70102 19.4939 8.64413C21.6692 8.55157 23.8279 9.06037 25.7329 10.1146C25.7631 10.1371 25.7975 10.1533 25.8341 10.1622C25.8707 10.1711 25.9087 10.1725 25.9458 10.1664L25.9374 10.1762L25.9892 10.2645C26.1293 10.791 26.2819 11.3176 26.4234 11.8456C26.8519 13.4547 27.2875 15.0667 27.702 16.6744C27.734 16.7884 27.7431 16.9077 27.7286 17.0252C27.7142 17.1428 27.6766 17.2563 27.618 17.3592C27.5594 17.4621 27.4809 17.5524 27.3871 17.6247C27.2934 17.6971 27.1862 17.7501 27.0718 17.7808C26.534 17.9544 26.0382 17.6617 25.8646 17.0385C25.5719 15.9854 25.2974 14.9266 25.0131 13.8707C24.7064 12.7279 24.3969 11.5879 24.0944 10.4451C24.009 10.123 23.8143 9.91856 23.4824 9.91575C23.3462 9.91365 23.2135 9.95843 23.1064 10.0426C22.9993 10.1267 22.9244 10.2451 22.8942 10.3779C22.8605 10.5275 22.8707 10.6836 22.9236 10.8275C23.5874 13.2951 24.2494 15.7632 24.9095 18.2317C25.0999 18.9445 25.2428 19.6756 25.6853 20.2904C26.5046 21.4388 27.6432 21.9471 29.0436 21.9107Z" fill="#DF9B2D"/>
<path d="M15.2987 9.58375C16.3939 12.3483 16.0648 15.0287 14.7512 17.6168C14.1672 18.7666 13.2415 19.5774 11.9208 19.7987C11.5293 19.8427 11.1355 19.8628 10.7416 19.8589L9.41399 19.527L8.26281 18.7554C7.0402 17.4838 6.87635 15.9545 7.17745 14.3089C7.55137 12.2712 8.35804 10.4408 9.85093 8.96334C10.4503 8.37235 11.1506 7.9242 11.9866 7.75754C13.2653 7.50406 14.3898 8.06424 15.0971 9.26164C15.1615 9.37088 15.2315 9.47591 15.2987 9.58375Z" fill="#E5E5E4"/>
<path d="M29.0506 21.9145C27.6502 21.9509 26.5172 21.4426 25.6895 20.2956C25.247 19.6808 25.1041 18.9497 24.9137 18.2369C24.2526 15.7693 23.5907 13.3012 22.9278 10.8327C22.8749 10.6888 22.8647 10.5327 22.8984 10.3831C22.9286 10.2503 23.0035 10.1319 23.1106 10.0478C23.2177 9.96363 23.3504 9.91886 23.4866 9.92096C23.8171 9.92096 24.0132 10.1282 24.0986 10.4503C24.4011 11.5931 24.7106 12.7331 25.0173 13.8759C25.2974 14.9318 25.5775 15.9906 25.8688 17.0437C26.0424 17.6669 26.5382 17.9596 27.076 17.786C27.1904 17.7553 27.2976 17.7023 27.3913 17.6299C27.4851 17.5576 27.5636 17.4673 27.6222 17.3644C27.6808 17.2615 27.7184 17.148 27.7328 17.0304C27.7473 16.9129 27.7382 16.7936 27.7062 16.6796C27.286 15.0677 26.8561 13.4585 26.4276 11.8508C26.2875 11.3228 26.1377 10.7962 25.9934 10.2697C25.9752 10.2403 25.9584 10.2109 25.9416 10.1814L25.95 10.1716C25.9402 10.0848 25.9318 9.99658 25.9178 9.90835C25.8604 9.52603 26.034 9.20812 26.3463 9.1325C26.6922 9.04567 26.9877 9.23473 27.1054 9.64086C27.2552 10.1604 27.3855 10.687 27.5339 11.2094C27.5566 11.2808 27.5833 11.351 27.6137 11.4195C28.0507 13.0804 28.4764 14.7428 28.933 16.3981C29.0057 16.6274 29.1664 16.8186 29.3798 16.9296C29.5933 17.0407 29.842 17.0625 30.0716 16.9905C30.3016 16.9257 30.4982 16.7755 30.6213 16.5707C30.7443 16.3659 30.7847 16.1219 30.734 15.8883C30.6612 15.541 30.5407 15.2035 30.4413 14.8618C30.4413 14.7988 30.4413 14.7357 30.3797 14.6979C30.164 13.6126 29.8195 12.558 29.552 11.4867C29.3601 10.736 29.1529 9.98818 28.9568 9.23753C28.8293 8.75017 28.9778 8.43226 29.3769 8.32583C29.7284 8.232 30.0113 8.45747 30.1402 8.93503C30.8404 11.5511 31.5252 14.1728 32.2647 16.7776C32.6274 18.0576 32.5266 19.2368 31.8123 20.3586C31.4354 20.8367 30.9639 21.232 30.4273 21.5196C29.9957 21.7324 29.5294 21.8662 29.0506 21.9145Z" fill="#E5E5E4"/>
<path d="M30.4525 14.8645C30.552 15.2062 30.6724 15.5437 30.7452 15.891C30.7959 16.1245 30.7556 16.3686 30.6325 16.5734C30.5094 16.7782 30.3128 16.9283 30.0828 16.9932C29.8533 17.0652 29.6045 17.0433 29.3911 16.9323C29.1777 16.8212 29.017 16.6301 28.9442 16.4008C28.4877 14.7454 28.0619 13.0831 27.625 11.4221C28.5944 12.2498 29.4305 13.222 30.1038 14.3043C30.1892 14.4443 30.2439 14.5998 30.3965 14.6866C30.3824 14.718 30.3803 14.7534 30.3906 14.7862C30.401 14.819 30.423 14.8469 30.4525 14.8645Z" fill="#DF9B2D"/>
<path d="M8.25716 18.7578L9.40834 19.5295C9.12825 20.5565 8.84489 21.5793 8.55826 22.5979C8.52185 22.7379 8.47003 22.8598 8.42662 22.99C8.25296 22.6987 8.26416 22.3612 8.21935 22.0447C8.04002 20.9553 8.05282 19.8428 8.25716 18.7578Z" fill="#DF9B2D"/>
<path d="M30.4336 21.5163C30.9702 21.2287 31.4417 20.8335 31.8187 20.3553C31.8233 21.6313 31.632 22.9005 31.2515 24.1184C31.2301 24.2042 31.2138 24.2912 31.2024 24.3789C30.8849 23.4422 30.6281 22.486 30.4336 21.5163Z" fill="#DF9B2D"/>
<path d="M25.9531 10.1814C25.9699 10.2108 25.9867 10.2402 26.0049 10.2696C25.9839 10.2472 25.9699 10.2108 25.9531 10.1814Z" fill="#F6B239"/>
<path d="M30.4432 14.8648C30.4161 14.8487 30.3953 14.8238 30.3841 14.7943C30.3729 14.7648 30.372 14.7325 30.3815 14.7024C30.4474 14.7318 30.4474 14.7948 30.4432 14.8648Z" fill="#F6B239"/>
</svg>
