<svg width="60" height="60" viewBox="0 0 60 60" fill="none" xmlns="http://www.w3.org/2000/svg">
<path d="M31.7319 24.289C31.8624 24.2973 31.9291 24.1931 32.0097 24.1223C36.3893 20.3797 40.8286 16.7084 45.3277 13.1084C45.5043 12.9733 45.6947 12.8574 45.8958 12.7626H46.368C46.5305 12.8737 46.7513 12.9015 46.8583 13.0931C46.6291 13.2084 46.5277 13.4487 46.3541 13.6209C42.5717 17.3913 38.7935 21.1667 35.0194 24.9473C34.0138 25.9529 33.0111 26.9626 32.0013 27.964C30.6749 29.2806 29.3624 30.6154 28.0138 31.9042C27.2977 32.5629 26.6162 33.2583 25.9722 33.9876C25.1388 34.9598 25.3194 36.5751 26.3416 37.3348C26.5777 37.5098 26.8624 37.6417 26.9972 37.932C26.6458 38.3376 26.3027 38.7529 25.936 39.1431C25.7555 39.3362 25.7416 39.4362 25.9485 39.639C27.1277 40.8029 27.5138 42.2195 27.036 43.7945C26.5652 45.3445 25.4763 46.2945 23.8763 46.6154C23.0877 46.7633 22.2729 46.6759 21.5336 46.3639C20.7943 46.052 20.1632 45.5293 19.7189 44.8611C19.2746 44.1929 19.0368 43.4087 19.0352 42.6063C19.0335 41.8039 19.2681 41.0187 19.7097 40.3487L19.8958 40.0709C20.4749 39.4098 21.093 38.7834 21.7305 38.1792C22.4471 37.5009 22.8809 36.5769 22.945 35.5922C23.0091 34.6076 22.6989 33.6351 22.0763 32.8695C23.0249 31.9487 24.0208 31.0862 25.0152 30.2098C26.2291 29.1311 27.4462 28.0542 28.6666 26.9792C29.0781 26.6647 29.4679 26.3227 29.8333 25.9556C30.0624 25.8723 30.2055 25.6779 30.3763 25.5195C30.8305 25.1126 31.3513 24.7779 31.7319 24.289ZM25.1777 42.6112C25.1791 42.2063 25.0604 41.8101 24.8368 41.4726C24.6131 41.1351 24.2945 40.8715 23.9211 40.7149C23.5477 40.5584 23.1363 40.5161 22.7388 40.5932C22.3413 40.6703 21.9756 40.8635 21.6879 41.1484C21.4002 41.4332 21.2033 41.7969 21.1221 42.1936C21.0409 42.5902 21.0791 43.002 21.2318 43.377C21.3845 43.752 21.645 44.0733 21.9802 44.3004C22.3154 44.5275 22.7103 44.6501 23.1152 44.6529C23.3849 44.655 23.6524 44.6039 23.9023 44.5023C24.1521 44.4008 24.3795 44.2508 24.5711 44.061C24.7628 43.8713 24.9151 43.6455 25.0192 43.3967C25.1233 43.1479 25.1772 42.8809 25.1777 42.6112Z" fill="#4D5967"/>
<path d="M29.8268 25.9584C29.4614 26.3255 29.0716 26.6675 28.6602 26.982C28.356 26.6848 28.0393 26.3973 27.7518 26.0862C27.5782 25.8987 27.474 25.882 27.2838 26.0779C26.1852 27.1987 25.0699 28.3001 23.9588 29.4112C23.8924 29.4871 23.8184 29.556 23.7379 29.6168C23.6408 29.6966 23.5162 29.7351 23.391 29.724C23.2657 29.7128 23.1499 29.6528 23.0685 29.557C22.9834 29.4731 22.9321 29.3607 22.9244 29.2414C22.9167 29.122 22.9532 29.004 23.0268 28.9098C23.0938 28.8196 23.1702 28.7367 23.2546 28.6626C24.3407 27.5765 25.4227 26.4848 26.5171 25.4084C26.724 25.2043 26.7727 25.082 26.531 24.8598C26.0463 24.414 26.0602 24.4001 25.5838 24.8751C24.5652 25.8992 23.5421 26.9219 22.5143 27.9432C22.4335 28.0356 22.34 28.116 22.2365 28.182C22.1368 28.2483 22.016 28.275 21.8976 28.257C21.7793 28.239 21.6719 28.1777 21.5963 28.0848C21.5167 28.0032 21.4693 27.8956 21.4626 27.7818C21.456 27.6681 21.4906 27.5557 21.5602 27.4654C21.6274 27.3758 21.7032 27.293 21.7865 27.2182C22.8977 26.107 24.0088 24.9959 25.1199 23.8932C25.3046 23.7112 25.2935 23.6154 25.1199 23.4487C24.5963 22.9432 24.6046 22.9362 24.081 23.4584L20.9893 26.5515C20.8435 26.6973 20.6935 26.839 20.4685 26.8043C20.3729 26.7934 20.2824 26.7557 20.2074 26.6955C20.1324 26.6352 20.0761 26.555 20.0449 26.464C20.0072 26.3696 20.0004 26.2657 20.0253 26.1672C20.0503 26.0686 20.1057 25.9805 20.1838 25.9154C20.5296 25.564 20.8782 25.2209 21.2296 24.8668C22.0449 24.0501 22.8588 23.2307 23.6824 22.4209C23.8352 22.2695 23.849 22.182 23.6824 22.0209C23.1421 21.4779 23.149 21.4654 22.6018 22.0209L19.581 25.0404C19.5144 25.116 19.441 25.1853 19.3615 25.2473C19.2629 25.3294 19.1366 25.3709 19.0085 25.3633C18.8803 25.3558 18.7598 25.2997 18.6715 25.2066C18.5831 25.1135 18.5335 24.9902 18.5327 24.8619C18.5319 24.7335 18.5799 24.6096 18.6671 24.5154C18.784 24.3786 18.9082 24.2483 19.0393 24.1251C20.0768 23.0862 21.1102 22.0418 22.1574 21.0126C22.3504 20.8237 22.3782 20.7126 22.1685 20.5126C21.6671 20.0376 21.6782 20.0265 21.1963 20.5057C20.1777 21.5297 19.1546 22.5524 18.1268 23.5737C18.0457 23.6658 17.9522 23.7462 17.849 23.8126C17.7541 23.8754 17.6399 23.9023 17.5269 23.8886C17.4139 23.8748 17.3095 23.8213 17.2324 23.7376C17.1428 23.6579 17.087 23.547 17.0761 23.4276C17.0653 23.3082 17.1003 23.1891 17.174 23.0945C17.2413 23.005 17.3171 22.9222 17.4004 22.8473C18.5115 21.7362 19.6227 20.6251 20.7338 19.5223C20.9199 19.339 20.9032 19.2445 20.7338 19.0779C20.2129 18.5737 20.2199 18.5654 19.6963 19.089C18.6657 20.1195 17.6352 21.1506 16.6046 22.182C16.4657 22.3279 16.3088 22.4695 16.0824 22.4334C15.988 22.4215 15.8989 22.3833 15.8252 22.3231C15.7515 22.2629 15.6962 22.1833 15.6657 22.0932C15.6285 21.9987 15.6219 21.8949 15.6468 21.7965C15.6717 21.698 15.7269 21.6099 15.8046 21.5445C16.1588 21.1848 16.5171 20.8293 16.874 20.4723C17.6824 19.664 18.4879 18.8515 19.3032 18.0501C19.4588 17.8973 19.4657 17.8084 19.3032 17.6501C18.7643 17.1084 18.7713 17.1015 18.2227 17.6501L15.2018 20.6709C15.1277 20.7547 15.0437 20.8293 14.9518 20.8932C14.8554 20.9644 14.7352 20.9957 14.6163 20.9807C14.4973 20.9657 14.3887 20.9055 14.3129 20.8126C14.2271 20.7293 14.1758 20.6168 14.1691 20.4974C14.1624 20.378 14.2009 20.2605 14.2768 20.1682C14.3456 20.0794 14.4228 19.9976 14.5074 19.9237C15.6088 18.8223 16.7074 17.7168 17.8157 16.6209C17.981 16.4584 18.0324 16.3668 17.8338 16.1779C17.299 15.6682 17.3088 15.6557 16.7921 16.1779L13.7602 19.2154C13.3518 19.6223 13.131 19.6223 12.7227 19.2154V18.8112L17.7004 13.839C17.7671 13.914 17.8282 13.9945 17.899 14.0654C21.7879 17.9543 25.6791 21.8432 29.5727 25.732C29.6504 25.8209 29.7421 25.8862 29.8268 25.9584Z" fill="#FE5469"/>
<path d="M26.991 37.9339C26.8521 37.6436 26.5743 37.5172 26.3354 37.3366C25.3132 36.5769 25.1368 34.963 25.966 33.9894C26.61 33.2601 27.2915 32.5647 28.0076 31.9061C29.3618 30.6172 30.6688 29.2825 31.9951 27.9658C33.0049 26.9644 34.0076 25.9547 35.0132 24.9491C38.791 21.1714 42.5692 17.3959 46.3479 13.6227C46.5215 13.4505 46.6257 13.2061 46.8521 13.095C47.2757 13.5339 47.2826 14.0297 46.8521 14.5658C45.9752 15.6593 45.0956 16.7496 44.2132 17.8366C41.441 21.245 38.6262 24.6181 35.7688 27.9561C35.7104 28.0227 35.6632 28.095 35.6118 28.1714C35.0132 28.7922 34.4729 29.463 33.9201 30.1227C33.5658 30.4799 33.2407 30.8649 32.9479 31.2741C32.2646 31.9547 31.6632 32.7089 31.0215 33.4255C29.6734 34.9228 28.3299 36.4255 26.991 37.9339Z" fill="#6C7A87"/>
<path d="M33.9258 30.12C34.4813 29.4602 35.0188 28.7894 35.6174 28.1686C39.0897 31.638 42.5619 35.1102 46.0341 38.5852C47.1452 39.6964 47.1174 41.2241 46.0174 42.3352C44.4684 43.8936 42.9147 45.4473 41.3563 46.9964C41.0786 47.2741 40.7813 47.2825 40.5605 47.0533C40.3397 46.8241 40.3813 46.538 40.6272 46.2755C40.6799 46.2186 40.7369 46.1658 40.7924 46.1102C41.8786 45.0241 42.9605 43.9339 44.0549 42.8575C44.2424 42.6727 44.2494 42.5714 44.0549 42.3866C43.5411 41.8964 43.5494 41.8866 43.048 42.3866L39.9786 45.4519C39.8925 45.5549 39.7873 45.6403 39.6688 45.7033C39.5615 45.757 39.4378 45.7681 39.3227 45.7344C39.2075 45.7006 39.1094 45.6245 39.048 45.5214C38.9745 45.4195 38.9428 45.2934 38.9593 45.169C38.9759 45.0445 39.0394 44.931 39.1369 44.8519C39.7619 44.2255 40.3869 43.6019 41.0147 42.9727C41.6147 42.37 42.2105 41.7616 42.8077 41.1561C43.6911 40.4158 43.7161 39.8852 42.9049 39.0727C40.0114 36.1783 37.1174 33.2843 34.223 30.3908C34.1272 30.295 34.0299 30.2089 33.9258 30.12Z" fill="#C53350"/>
<path d="M33.9247 30.1199C34.0233 30.2088 34.1261 30.2949 34.2205 30.3893C37.115 33.2819 40.009 36.1759 42.9025 39.0713C43.7136 39.8824 43.6886 40.4129 42.8053 41.1546C42.5733 40.9282 42.3608 40.5518 42.1025 40.5185C41.8442 40.4852 41.6247 40.8977 41.3983 41.1213C40.4178 42.0898 39.4428 43.0639 38.4733 44.0435C38.3261 44.1907 38.1747 44.3213 37.9497 44.2893C37.8548 44.2765 37.7655 44.2373 37.6918 44.1761C37.6182 44.115 37.5631 44.0344 37.533 43.9435C37.4974 43.8482 37.4926 43.7441 37.5193 43.646C37.546 43.5478 37.6027 43.4605 37.6817 43.3963C38.1085 42.9676 38.5363 42.5393 38.965 42.1115C39.7011 41.374 40.4344 40.6324 41.1789 39.9032C41.3372 39.749 41.333 39.6601 41.1789 39.5046C40.6414 38.9671 40.6469 38.9615 40.1219 39.4865L37.1011 42.5074C37.0331 42.5816 36.9598 42.6508 36.8817 42.7143C36.7888 42.7988 36.6668 42.8439 36.5413 42.84C36.4159 42.8361 36.2968 42.7836 36.2094 42.6935C36.1159 42.6028 36.0601 42.4802 36.0532 42.3501C36.0462 42.2201 36.0886 42.0922 36.1719 41.9921C36.2442 41.9068 36.3217 41.8261 36.4039 41.7504C37.4886 40.6643 38.5705 39.5727 39.665 38.4963C39.858 38.3074 39.8858 38.1976 39.6747 37.9976C39.1733 37.5226 39.1844 37.5115 38.7025 37.9976L35.683 41.0171C35.6064 41.0984 35.5247 41.175 35.4386 41.2463C35.3415 41.3301 35.2169 41.375 35.0887 41.3725C34.9605 41.3699 34.8378 41.32 34.7442 41.2324C34.6965 41.1848 34.6588 41.1283 34.633 41.0661C34.6072 41.0039 34.5939 40.9372 34.5939 40.8699C34.5939 40.8025 34.6072 40.7359 34.633 40.6737C34.6588 40.6115 34.6965 40.555 34.7442 40.5074C34.8025 40.4393 34.8705 40.3796 34.933 40.3157C36.0358 39.2143 37.1317 38.1074 38.2428 37.0157C38.4247 36.8365 38.4219 36.7379 38.2428 36.5713C37.7178 36.0657 37.7261 36.056 37.2039 36.5782C36.1733 37.6088 35.1432 38.6393 34.1136 39.6699C33.9747 39.8088 33.8358 39.9477 33.6261 39.9282C33.5302 39.9243 33.4374 39.8932 33.3585 39.8386C33.2796 39.7841 33.2178 39.7082 33.1803 39.6199C33.1339 39.529 33.1187 39.4253 33.137 39.325C33.1554 39.2246 33.2062 39.133 33.2817 39.0643C33.5442 38.7865 33.8178 38.5227 34.0872 38.2532C34.983 37.3588 35.8747 36.4588 36.7775 35.5713C36.9469 35.406 36.9872 35.3088 36.7942 35.1227C36.265 34.6102 36.2747 34.6004 35.7594 35.1143L32.7094 38.1504C32.6351 38.2339 32.5517 38.3089 32.4608 38.374C32.3653 38.4465 32.2457 38.4799 32.1265 38.4672C32.0073 38.4546 31.8973 38.3969 31.8192 38.306C31.7371 38.2272 31.6855 38.122 31.6736 38.0089C31.6616 37.8958 31.6901 37.7821 31.7539 37.6879C31.823 37.5855 31.9046 37.4922 31.9969 37.4102C33.0969 36.3074 34.1955 35.2018 35.3053 34.1088C35.4928 33.924 35.4983 33.8199 35.3053 33.6352C34.7997 33.149 34.808 33.1393 34.3122 33.6352L31.2678 36.6782C31.1939 36.7621 31.111 36.8376 31.0205 36.9032C30.9212 36.98 30.7961 37.0156 30.6712 37.0027C30.5464 36.9897 30.4312 36.9293 30.3497 36.8338C30.2645 36.7497 30.2138 36.6368 30.2077 36.5173C30.2015 36.3978 30.2403 36.2803 30.3164 36.1879C30.3784 36.1085 30.4477 36.035 30.5233 35.9685C31.6247 34.8671 32.7205 33.7574 33.8344 32.6699C34.058 32.4532 34.0344 32.3421 33.8247 32.1532C33.5178 31.8754 33.24 31.5657 32.9497 31.2699C33.2434 30.8611 33.5695 30.4765 33.9247 30.1199Z" fill="#FE5469"/>
<path d="M22.0735 32.8702C22.6961 33.6357 23.0063 34.6083 22.9422 35.5929C22.8781 36.5775 22.4443 37.5016 21.7277 38.1799C21.0902 38.7841 20.4777 39.4105 19.893 40.0716C19.7652 40.0563 19.6902 40.1535 19.5985 40.2105C18.9173 40.6636 18.1159 40.9023 17.2977 40.8958C16.4796 40.8893 15.6821 40.6379 15.0081 40.1741C14.3341 39.7102 13.8145 39.0551 13.5162 38.2932C13.218 37.5313 13.1547 36.6975 13.3347 35.8993C13.5097 35.1062 13.9184 34.3837 14.5082 33.8252C15.0979 33.2667 15.8415 32.8977 16.643 32.766C18.0319 32.5466 19.2666 32.9285 20.2541 33.948C20.4916 34.191 20.6097 34.1674 20.8305 33.948C21.2319 33.5757 21.6596 33.2299 22.0735 32.8702ZM17.3402 34.7577C17.0706 34.7562 16.8034 34.8081 16.554 34.9104C16.3046 35.0127 16.0778 35.1633 15.8869 35.3536C15.6959 35.5439 15.5445 35.7701 15.4414 36.0192C15.3383 36.2683 15.2855 36.5353 15.286 36.8049C15.2848 37.3482 15.4993 37.8698 15.8826 38.2549C16.2659 38.64 16.7865 38.8571 17.3298 38.8584C17.8731 38.8597 18.3947 38.6451 18.7798 38.2618C19.1649 37.8785 19.382 37.358 19.3833 36.8146C19.3855 36.5451 19.3342 36.2777 19.2325 36.0281C19.1308 35.7784 18.9806 35.5514 18.7906 35.3602C18.6007 35.1689 18.3747 35.0172 18.1257 34.9138C17.8768 34.8104 17.6098 34.7573 17.3402 34.7577Z" fill="#6C7A87"/>
<path d="M29.8295 25.959C29.7448 25.8868 29.6531 25.8201 29.5753 25.7437C25.6865 21.8549 21.7953 17.966 17.9017 14.0771C17.8309 14.0062 17.7698 13.9257 17.7031 13.8507C18.1582 13.3924 18.7713 13.1254 19.4169 13.1045C20.0624 13.0836 20.6915 13.3103 21.1753 13.7382C21.2684 13.8187 21.3559 13.9062 21.4434 13.9937L31.5476 24.0965C31.6101 24.1604 31.6684 24.2285 31.7295 24.2951C31.349 24.784 30.8281 25.1187 30.3753 25.5285C30.2017 25.6757 30.0587 25.8757 29.8295 25.959Z" fill="#C53350"/>
<path d="M54.6948 52.6391C54.9643 52.6387 55.2311 52.6917 55.48 52.795C55.7288 52.8983 55.9548 53.0499 56.1447 53.2411C56.3347 53.4322 56.4849 53.659 56.5867 53.9085C56.6885 54.158 56.7399 54.4252 56.7379 54.6946C56.7372 54.9637 56.6836 55.2299 56.5801 55.4782C56.4765 55.7265 56.3251 55.952 56.1344 56.1418C55.9437 56.3316 55.7175 56.4819 55.4687 56.5843C55.2199 56.6867 54.9534 56.739 54.6844 56.7384C54.4154 56.7377 54.1491 56.6841 53.9008 56.5806C53.6525 56.477 53.427 56.3256 53.2372 56.1349C53.0474 55.9442 52.8971 55.718 52.7947 55.4692C52.6923 55.2204 52.64 54.9539 52.6406 54.6849C52.6403 54.4154 52.6932 54.1486 52.7964 53.8996C52.8996 53.6507 53.051 53.4247 53.242 53.2345C53.4329 53.0443 53.6596 52.8938 53.9089 52.7916C54.1582 52.6895 54.4253 52.6376 54.6948 52.6391Z" fill="#FEFDFD"/>
</svg>
