<svg width="41" height="33" viewBox="0 0 41 33" fill="none" xmlns="http://www.w3.org/2000/svg">
<path d="M34.4881 29.1406L40.1644 29.1522V29.3056C39.8531 29.9455 39.5752 30.5955 39.0888 31.1398C38.0247 32.3298 36.7102 32.9856 35.1193 32.9885C28.3162 33.003 21.5122 33.003 14.7072 32.9885C14.477 32.9885 14.2468 32.9798 14.0167 32.9755C13.8458 32.851 13.6432 32.9378 13.4579 32.8958C11.3921 32.4138 9.99072 31.1992 9.33203 29.1623L11.9378 29.1392H12.4069H13.6504C13.7402 29.1392 13.8285 29.1392 13.9182 29.1392H34.2999C34.3607 29.1522 34.4244 29.145 34.4881 29.1406Z" fill="#C18D63"/>
<path d="M23.2471 12.327C23.7683 12.327 24.2894 12.327 24.8106 12.3184C24.9351 12.3184 25.0668 12.3531 25.1783 12.2619C25.6847 12.321 26.1955 12.3331 26.7041 12.2981C27.3749 12.3384 28.0479 12.3244 28.7164 12.2561C28.838 12.3632 28.9856 12.3169 29.1217 12.3184C30.7214 12.3184 32.3196 12.3184 33.9193 12.3184C36.2109 12.3082 38.2492 14.1048 38.5663 16.3877C38.6117 16.7284 38.6335 17.0719 38.6314 17.4156C38.6314 19.3863 38.6285 21.3561 38.6227 23.3249C38.5429 23.454 38.4933 23.5995 38.478 23.7505C38.006 25.8757 36.2095 27.4117 34.1799 27.4392C29.2419 27.5072 24.3039 27.4609 19.3659 27.4696C19.0764 27.4696 19.0272 27.3567 19.0315 27.1062C19.0445 26.5272 19.0315 25.9553 19.0315 25.3806L19.3326 24.693C19.4368 24.8001 19.5715 24.7668 19.696 24.7668C23.486 24.7668 27.2774 24.774 31.0674 24.7668C31.6981 24.7682 32.315 24.5817 32.8393 24.2312C33.9974 23.4596 34.5316 21.7368 34.1191 20.2472C33.6848 18.6968 32.4557 17.86 30.911 17.8586C27.6297 17.8586 24.3512 17.8586 21.0756 17.8586C20.9229 17.8505 20.7699 17.8641 20.621 17.8991C20.304 17.9903 20.1288 18.2002 20.1505 18.5115C20.1604 18.6544 20.2204 18.7893 20.32 18.8923C20.4195 18.9954 20.5523 19.0599 20.6949 19.0746C20.8092 19.0876 20.9245 19.0906 21.0394 19.0833C24.3951 19.0833 27.7503 19.0833 31.105 19.0833C31.4634 19.0819 31.8148 19.1823 32.1184 19.3728C32.9479 19.8824 33.042 20.7003 33.013 21.5544C32.9653 22.9457 31.9895 23.5681 30.9313 23.5566C27.9607 23.5218 24.9886 23.5015 22.0195 23.5696C21.0915 23.5913 20.4922 23.225 19.958 22.5779C19.8856 22.4896 19.8132 22.3999 19.7452 22.3101C19.7756 21.1983 19.4788 20.1603 19.0329 19.1557C19.0706 18.316 19.0083 17.4749 19.0952 16.6324C19.24 15.1963 19.9247 14.0961 21.0495 13.2304C21.701 12.7266 22.474 12.5297 23.2471 12.327Z" fill="#D7E3EE"/>
<path d="M19.0267 19.1553C19.4726 20.16 19.7693 21.198 19.7389 22.3098C19.7534 23.1306 19.542 23.9123 19.3249 24.6941L19.0238 25.3817C18.9818 25.444 18.934 25.5033 18.8964 25.5699C18.1874 26.8537 17.0938 27.883 15.7694 28.513C15.1006 28.8402 14.3811 28.9936 13.6602 29.1456H12.4166C11.3888 28.7649 10.7735 27.9716 10.3277 27.0234C9.63134 25.5438 9.41708 23.9572 9.35194 22.3445C9.32588 21.7206 9.42432 21.101 9.4967 20.4814C9.65884 19.0815 9.96575 17.6903 10.8894 16.6147C11.4684 15.9372 11.5336 15.2611 11.5003 14.4851C11.4916 14.281 11.5003 14.0755 11.5003 13.8713H15.4944C15.4944 14.4504 15.4944 15.0179 15.5016 15.5926C15.5016 15.7374 15.4654 15.9169 15.6999 15.9314C15.8154 16.0508 15.9572 16.1415 16.114 16.1963C16.9453 16.6395 17.6766 17.2491 18.2623 17.987C18.5489 18.3519 18.7531 18.7746 19.0267 19.1553Z" fill="#DF8BA3"/>
<path d="M28.7164 12.255C28.0479 12.3233 27.3749 12.3374 26.7042 12.297C26.4856 12.1392 26.2163 12.1754 25.9731 12.1088C24.4211 11.7126 23.0206 10.8671 21.9471 9.6782C21.2911 8.94507 20.7719 8.10026 20.4141 7.18388C19.9552 6.02575 19.835 4.81695 19.8741 3.58354C21.3017 3.7298 22.6605 4.27012 23.7987 5.14412C23.8884 5.21071 23.955 5.31784 24.0882 5.3106C23.7191 8.43321 25.5359 11.2721 26.694 11.9554C26.7027 11.8439 26.626 11.7686 26.5811 11.6803C26.2977 11.152 26.0627 10.5992 25.879 10.0285C25.434 8.53968 25.2479 6.98548 25.3289 5.43365C25.3824 4.09696 25.6493 2.77742 26.1193 1.52496C26.2945 1.06171 26.5927 0.656362 26.7201 0.172843V0.180082L26.8026 0.0903261C26.9401 -0.0877365 27.0501 0.0367632 27.1515 0.129414C28.5092 1.33983 29.4148 2.976 29.7196 4.76918C29.7544 4.96606 29.7529 5.17307 29.8745 5.34824C29.7645 5.51038 29.7993 5.69423 29.8065 5.8694C29.8919 7.8223 29.281 9.54646 28.1156 11.0984C27.8956 11.3879 27.5452 11.5732 27.415 11.9395L27.3817 11.9756L27.4208 11.9438C27.6857 11.9119 27.8275 11.6977 28.0143 11.5486C29.9136 10.03 30.8546 8.02063 31.0182 5.62764C31.0414 5.29757 31.1224 4.94145 30.9371 4.61427C32.2795 3.82601 33.8261 3.4551 35.38 3.54879C35.6377 3.56037 35.6999 3.65882 35.7086 3.89334C35.7823 5.49649 35.3762 7.08518 34.5422 8.45631C33.7083 9.82745 32.4843 10.9187 31.0269 11.5906C30.2929 11.9225 29.5146 12.1464 28.7164 12.255Z" fill="#9ED079"/>
<path d="M3.58951 29.1451C2.96123 28.8701 2.73684 28.3822 2.73829 27.7076C2.74987 21.1149 2.74987 14.5228 2.73829 7.93108C2.73829 6.91772 3.17259 6.48342 4.18595 6.48342L5.48885 6.47473L5.56992 6.50513C6.00422 6.62239 6.43852 6.50513 6.9423 6.58331C6.38495 6.85402 6.25466 7.27239 6.25611 7.80513C6.26769 11.8731 6.25611 15.9424 6.2648 20.0118C6.01146 20.9514 5.8305 21.8938 5.94197 22.8782C6.02144 23.4316 6.12968 23.9806 6.26624 24.5227C6.26624 25.6085 6.29085 26.6942 6.25321 27.7785C6.23005 28.4561 6.48629 28.899 7.10734 29.1451H3.58951Z" fill="#71ADBF"/>
<path d="M6.2691 20.0123C6.2691 15.9429 6.2691 11.8735 6.26041 7.80557C6.26041 7.27283 6.38925 6.85446 6.9466 6.58374C6.44861 6.49978 6.00273 6.62283 5.57422 6.50557L7.12611 6.47806L10.1315 6.47083C10.641 6.47083 11.1448 6.47082 11.6616 6.47806C11.8211 6.47474 11.9797 6.50357 12.1278 6.56281C12.2759 6.62206 12.4106 6.71051 12.5238 6.8229C12.637 6.9353 12.7264 7.06933 12.7867 7.21701C12.847 7.3647 12.877 7.52301 12.8748 7.68252C12.8748 8.79288 12.8748 9.90179 12.8748 11.0121H11.4981C11.1521 11.0121 10.8061 11.0237 10.4601 11.0121C10.1995 10.9977 10.0982 11.0773 10.104 11.3538C10.1213 12.0776 10.104 12.8145 10.104 13.5441C10.104 13.6556 10.0721 13.7786 10.185 13.8626C10.185 14.3997 10.1561 14.9353 10.185 15.4709C10.1995 15.775 10.0909 15.9255 9.82021 16.05C8.89422 16.4864 8.0813 17.1304 7.4446 17.932C6.93937 18.5603 6.59772 19.2826 6.2691 20.0123Z" fill="#8FC3D7"/>
<path d="M13.6602 29.1439C14.384 28.9919 15.1006 28.8385 15.7694 28.5113C17.0954 27.8821 18.1906 26.8527 18.9007 25.5682C18.9383 25.5016 18.9861 25.4423 19.0281 25.38C19.0281 25.9591 19.0426 26.5309 19.0281 27.1056C19.0281 27.3561 19.0759 27.469 19.3625 27.469C24.3005 27.4603 29.2385 27.5066 34.1764 27.4386C36.2032 27.4111 38.0026 25.8751 38.4746 23.75C38.4899 23.5989 38.5394 23.4534 38.6193 23.3243C38.6396 24.4115 38.6266 25.4958 38.1068 26.4933C37.357 27.9308 36.1988 28.8095 34.5876 29.0875C34.5521 29.0994 34.5189 29.117 34.4891 29.1396C34.4254 29.1396 34.3617 29.1512 34.298 29.1512H13.928C13.8382 29.1497 13.747 29.1454 13.6602 29.1439Z" fill="#91B8D7"/>
<path d="M3.58114 29.1451H7.11055L9.33705 29.1669C9.99574 31.2037 11.3971 32.4183 13.4629 32.9004C13.6482 32.9424 13.8509 32.8555 14.0217 32.98C11.2972 32.98 8.57413 33.0263 5.85108 32.98C3.54206 32.938 1.69918 31.5642 0.9131 29.4347C0.884147 29.3522 0.865328 29.2667 0.832031 29.1451H3.58114Z" fill="#996137"/>
<path d="M19.0205 19.1547C18.7468 18.774 18.5427 18.3512 18.246 17.9835C17.6603 17.2456 16.929 16.636 16.0976 16.1928C15.9408 16.138 15.799 16.0473 15.6836 15.9279C16.0108 14.2138 17.7219 12.6257 19.4895 12.3985C20.7359 12.2378 21.9882 12.3536 23.2361 12.3275C22.463 12.5302 21.6899 12.7271 21.0371 13.2294C19.9122 14.098 19.2289 15.1953 19.0827 16.6314C18.9958 17.474 19.0581 18.3151 19.0205 19.1547Z" fill="#91B8D7"/>
<path d="M19.8703 3.58344C19.8312 4.81685 19.9514 6.02999 20.4103 7.18378C20.7681 8.10017 21.2874 8.94497 21.9434 9.6781C23.0168 10.867 24.4173 11.7125 25.9693 12.1087C26.2125 12.1753 26.4818 12.1391 26.7004 12.2969C26.1918 12.3319 25.681 12.3198 25.1746 12.2607C22.4443 11.8366 20.3973 10.428 19.0842 7.99158C18.4033 6.70958 18.0916 5.26374 18.1838 3.81507C18.1939 3.61529 18.2591 3.55304 18.4531 3.55015C18.9257 3.53518 19.3989 3.54629 19.8703 3.58344Z" fill="#57B775"/>
<path d="M10.139 6.47044L7.13369 6.47768C7.13369 5.46432 7.14817 4.45095 7.12211 3.43759C7.10474 2.73837 7.30741 2.18825 7.9632 1.86398C8.31933 1.86398 8.67545 1.8495 9.03157 1.86398C9.17509 1.86242 9.31747 1.88957 9.45035 1.94382C9.58323 1.99807 9.70392 2.07833 9.80534 2.17989C9.90676 2.28144 9.98686 2.40224 10.0409 2.53519C10.095 2.66814 10.122 2.81055 10.1202 2.95407C10.1318 4.12668 10.1318 5.29784 10.139 6.47044Z" fill="#F6E47F"/>
<path d="M11.5009 11.0111H12.8776C13.6304 11.0111 14.3832 11.0198 15.136 11.0111C15.3835 11.0111 15.5051 11.056 15.4993 11.3426C15.4805 12.1837 15.4877 13.0263 15.4863 13.8688H11.4922V13.8529L11.5009 11.0111Z" fill="#D7E3EE"/>
<path d="M26.7063 0.169434C26.5789 0.651505 26.2807 1.0583 26.1055 1.52155C25.6355 2.77401 25.3687 4.09355 25.3151 5.43024C25.2342 6.98207 25.4202 8.53627 25.8652 10.0251C26.0489 10.5958 26.2839 11.1486 26.5673 11.6769C26.6122 11.7652 26.689 11.8405 26.6803 11.952C25.5323 11.2687 23.7111 8.4298 24.0745 5.30719C24.3075 3.26454 25.1486 1.53458 26.7063 0.169434Z" fill="#57B774"/>
<path d="M7.95076 1.87088C7.29497 2.19516 7.09229 2.73948 7.10966 3.44449C7.13572 4.45785 7.1198 5.47122 7.12125 6.48458L5.56935 6.51209L5.48828 6.48169C5.48828 5.36988 5.48828 4.25953 5.48828 3.15206C5.48828 2.31676 5.93271 1.87667 6.76367 1.87233C7.16178 1.8593 7.55699 1.86799 7.95076 1.87088Z" fill="#ECA532"/>
<path d="M30.9265 4.61133C31.1118 4.93416 31.0308 5.29028 31.0076 5.62469C30.844 8.01768 29.903 10.027 28.0037 11.5456C27.8169 11.6904 27.6751 11.909 27.4102 11.9408C27.5404 11.5746 27.8908 11.3936 28.1108 11.0998C29.2762 9.54786 29.8871 7.82369 29.8017 5.8708C29.7945 5.69563 29.7597 5.51178 29.8697 5.34964C30.1922 5.06337 30.5468 4.8156 30.9265 4.61133Z" fill="#57B774"/>
<path d="M26.7895 0.0866699L26.707 0.176423L26.7895 0.0866699Z" fill="#57B774"/>
<path d="M6.27104 20.0121C6.59966 19.2882 6.93552 18.5644 7.44944 17.9289C8.08613 17.1273 8.89906 16.4833 9.82505 16.0469C10.0958 15.9224 10.2043 15.7719 10.1899 15.4679C10.1667 14.9322 10.1899 14.3966 10.1899 13.8595H11.4928V13.8754C11.4928 14.0795 11.4928 14.2851 11.4928 14.4892C11.5261 15.2652 11.4624 15.9369 10.8818 16.6187C9.95824 17.6944 9.65134 19.0798 9.4892 20.4855C9.41681 21.1051 9.31837 21.7247 9.34443 22.3486C9.40958 23.9613 9.62383 25.5479 10.3202 27.0274C10.766 27.9757 11.3813 28.7646 12.4091 29.1497H11.9401C11.8857 29.1219 11.8284 29.1 11.7693 29.0846C10.2432 28.8529 8.84023 28.1121 7.78819 26.9826C7.102 26.2689 6.66046 25.4176 6.2667 24.5288C6.13203 23.986 6.02573 23.4366 5.94821 22.8828C5.83529 21.8911 6.0177 20.9516 6.27104 20.0121Z" fill="#C8518B"/>
<path d="M6.26837 24.522C6.66213 25.4108 7.10367 26.2592 7.78986 26.9758C8.8419 28.1053 10.2449 28.846 11.7709 29.0778C11.8301 29.0932 11.8873 29.1151 11.9418 29.1429L9.33597 29.1661L7.10946 29.1444C6.48841 28.8983 6.23218 28.4553 6.25534 27.7778C6.29298 26.6935 6.26692 25.6077 6.26837 24.522Z" fill="#8FC3D7"/>
<path d="M19.3242 24.6924C19.5414 23.9106 19.7585 23.1289 19.7383 22.3081C19.8092 22.3978 19.883 22.4876 19.9511 22.5759C20.4852 23.223 21.0846 23.5893 22.0125 23.5675C24.9817 23.4995 27.9479 23.5198 30.9243 23.5545C31.9826 23.5661 32.9583 22.9436 33.0061 21.5524C33.035 20.6983 32.9409 19.8803 32.1114 19.3708C31.8079 19.1802 31.4565 19.0798 31.0981 19.0812C27.7424 19.087 24.3872 19.087 21.0325 19.0812C20.9176 19.0885 20.8023 19.0856 20.6879 19.0726C20.5454 19.0579 20.4126 18.9933 20.313 18.8903C20.2134 18.7873 20.1534 18.6524 20.1436 18.5094C20.1219 18.1982 20.297 17.9883 20.6141 17.897C20.7629 17.8621 20.916 17.8484 21.0687 17.8565C24.35 17.8565 27.6285 17.8565 30.9041 17.8565C32.4487 17.8565 33.6821 18.6947 34.1121 20.2452C34.5247 21.7348 33.9948 23.4575 32.8324 24.2291C32.308 24.5796 31.6912 24.7661 31.0604 24.7648C27.2704 24.7749 23.479 24.7648 19.689 24.7648C19.5631 24.7648 19.4285 24.7995 19.3242 24.6924Z" fill="#92B8D8"/>
<path d="M27.4063 11.9354L27.3672 11.9672L27.4005 11.931L27.4063 11.9354Z" fill="#57B774"/>
<path d="M11.4936 13.8554H10.1907C10.0778 13.7714 10.1096 13.6484 10.1096 13.5369C10.1096 12.8131 10.1197 12.0762 10.1096 11.3466C10.1096 11.0701 10.2052 10.9904 10.4657 11.0049C10.8117 11.0223 11.1577 11.0049 11.5037 11.0049L11.4936 13.8554Z" fill="#92B7D6"/>
</svg>
